<svg width="14" height="15" viewBox="0 0 14 15" fill="none" xmlns="http://www.w3.org/2000/svg">
<path d="M1 10.3384H0V1.33838C0.000304367 1.07326 0.105759 0.819079 0.293229 0.631608C0.4807 0.444138 0.734877 0.338683 1 0.338379H10V1.33838H1V10.3384Z" fill="#2E3283"/>
<path d="M9.5 7.83838C9.79667 7.83838 10.0867 7.75041 10.3334 7.58558C10.58 7.42076 10.7723 7.18649 10.8858 6.9124C10.9994 6.63832 11.0291 6.33671 10.9712 6.04574C10.9133 5.75477 10.7704 5.4875 10.5607 5.27772C10.3509 5.06794 10.0836 4.92508 9.79264 4.8672C9.50166 4.80932 9.20006 4.83903 8.92597 4.95256C8.65189 5.06609 8.41762 5.25835 8.2528 5.50502C8.08797 5.7517 8 6.04171 8 6.33838C8.00044 6.73607 8.15861 7.11735 8.43982 7.39856C8.72103 7.67977 9.10231 7.83794 9.5 7.83838ZM9.5 5.83838C9.59889 5.83838 9.69556 5.8677 9.77779 5.92264C9.86001 5.97758 9.9241 6.05567 9.96194 6.14704C9.99978 6.2384 10.0097 6.33893 9.99039 6.43592C9.9711 6.53291 9.92348 6.62201 9.85355 6.69193C9.78363 6.76186 9.69454 6.80948 9.59755 6.82877C9.50056 6.84806 9.40002 6.83816 9.30866 6.80032C9.2173 6.76248 9.13921 6.69839 9.08426 6.61616C9.02932 6.53394 9 6.43727 9 6.33838C9.00012 6.20581 9.05284 6.0787 9.14658 5.98496C9.24032 5.89121 9.36743 5.8385 9.5 5.83838Z" fill="#2E3283"/>
<path d="M13 2.83838H3.5C3.23488 2.83871 2.98072 2.94417 2.79326 3.13164C2.60579 3.3191 2.50033 3.57326 2.5 3.83838V13.3384C2.50033 13.6035 2.60579 13.8577 2.79326 14.0451C2.98072 14.2326 3.23488 14.338 3.5 14.3384H13C13.2651 14.338 13.5193 14.2326 13.7067 14.0451C13.8942 13.8577 13.9997 13.6035 14 13.3384V3.83838C13.9997 3.57326 13.8942 3.3191 13.7067 3.13164C13.5193 2.94417 13.2651 2.83871 13 2.83838ZM13 13.3384H3.5V10.3384L5.5 8.33983L8.29295 11.1328C8.48048 11.3203 8.73481 11.4257 9 11.4257C9.26519 11.4257 9.51952 11.3203 9.70705 11.1328L10.5 10.3401L13 12.8384V13.3384ZM13 11.4243L11.2071 9.63133C11.0195 9.44383 10.7652 9.33849 10.5 9.33849C10.2348 9.33849 9.98048 9.44383 9.79295 9.63133L9 10.4243L6.20705 7.63133C6.01952 7.44383 5.76519 7.33849 5.5 7.33849C5.23481 7.33849 4.98048 7.44383 4.79295 7.63133L3.5 8.92433V3.83838H13V11.4243Z" fill="#2E3283"/>
</svg>
