<svg width="14" height="15" viewBox="0 0 14 15" fill="none" xmlns="http://www.w3.org/2000/svg">
<path d="M9.5 12.9283L8.205 11.6333L7.5 12.3384L9.5 14.3384L13.5 10.3384L12.7949 9.63338L9.5 12.9283Z" fill="white"/>
<path d="M6.5 7.83838H3V8.83838H6.5V7.83838Z" fill="white"/>
<path d="M9 5.33838H3V6.33838H9V5.33838Z" fill="white"/>
<path d="M9 2.83838H3V3.83838H9V2.83838Z" fill="white"/>
<path d="M6.5 14.3384H1.5C0.9485 14.3384 0.5 13.8898 0.5 13.3384V1.33838C0.5 0.786979 0.9485 0.338379 1.5 0.338379H10.5C11.0515 0.338379 11.5 0.786979 11.5 1.33838V8.83838H10.5V1.33838H1.5V13.3384H6.5V14.3384Z" fill="white"/>
</svg>
