<svg width="17" height="17" viewBox="0 0 17 17" fill="none" xmlns="http://www.w3.org/2000/svg">
<path fill-rule="evenodd" clip-rule="evenodd" d="M2.58904 2.5C2.52843 2.5 2.46877 2.51587 2.4155 2.54616C2.36224 2.57646 2.31704 2.62022 2.28404 2.67346L0.558566 5.45743C0.522961 5.51491 0.502823 5.58139 0.500276 5.64986C0.497729 5.71833 0.512867 5.78625 0.544094 5.84646C0.575321 5.90667 0.621481 5.95695 0.677707 5.99198C0.733933 6.02701 0.798144 6.04551 0.863569 6.04552H5.54032C5.54154 6.04675 5.54277 6.04796 5.54401 6.04916L7.95733 8.32371L2.71853 13.2612C2.6823 13.2945 2.65273 13.3349 2.63154 13.3802C2.61036 13.4255 2.59798 13.4748 2.59512 13.5251C2.59226 13.5755 2.59898 13.6259 2.61489 13.6735C2.6308 13.7211 2.65558 13.765 2.6878 13.8025C2.72002 13.84 2.75902 13.8704 2.80256 13.892C2.84609 13.9135 2.89329 13.9259 2.9414 13.9282C2.98952 13.9305 3.03759 13.9228 3.08283 13.9055C3.12808 13.8882 3.16959 13.8616 3.20496 13.8274L8.50087 8.83598L13.7968 13.8274C13.8322 13.8616 13.8737 13.888 13.9189 13.9053C13.9641 13.9225 14.0122 13.9302 14.0603 13.9278C14.1083 13.9255 14.1555 13.9132 14.199 13.8916C14.2425 13.87 14.2815 13.8396 14.3137 13.8022C14.3458 13.7647 14.3706 13.7209 14.3865 13.6733C14.4024 13.6258 14.4092 13.5754 14.4064 13.525C14.4035 13.4747 14.3912 13.4255 14.3701 13.3802C14.3489 13.3349 14.3194 13.2945 14.2832 13.2612L9.04444 8.32371L11.4578 6.04916C11.459 6.04796 11.4602 6.04674 11.4613 6.04552H16.1364C16.2018 6.04552 16.266 6.02702 16.3222 5.992C16.3785 5.95698 16.4246 5.90674 16.4559 5.84654C16.4871 5.78634 16.5023 5.71843 16.4997 5.64997C16.4972 5.58151 16.4771 5.51504 16.4415 5.45755L14.7179 2.67364C14.6849 2.62034 14.6397 2.57654 14.5864 2.54621C14.5331 2.51588 14.4734 2.5 14.4127 2.5H8.49996H2.58904ZM2.78649 3.26161H8.49996H14.2152L15.4673 5.28397H8.49996H1.53301L2.78649 3.26161ZM6.62726 6.04552H8.49996H10.3745L8.50087 7.81142L6.62726 6.04552Z" fill="black"/>
</svg>
