<svg width="60" height="40" viewBox="0 0 60 40" fill="none" xmlns="http://www.w3.org/2000/svg">
<g clip-path="url(#clip0_69_287)">
<path d="M59.3082 11.5797L45.0085 4.33301L40.97 12.2626L36.9301 4.33301L29.9999 7.84515L23.0682 4.33301L19.0297 12.2626L14.9913 4.33301L0.690186 11.5797L11.8455 33.4789L19.0297 29.8377L26.2154 33.4789L29.9999 26.0486L33.7843 33.4789L40.97 29.8377L48.1543 33.4789L59.3082 11.5797Z" fill="#394494"/>
<path d="M12.1023 26.0027L19.0268 29.5106L26.0159 25.9496L19.0325 12.2583L12.1023 26.0027Z" fill="#2A3073"/>
<path d="M30.0588 8.15497L22.8416 11.8292L30.0072 26.0686L37.2474 11.8292L30.0588 8.15497Z" fill="#2A3073"/>
<path d="M40.9716 12.2596L33.9624 25.9998L40.8869 29.509L47.8861 25.9625L40.9716 12.2596Z" fill="#2A3073"/>
<path d="M11.8671 33.4918C13.1716 36.1517 15.907 37.9838 19.07 37.9838C22.233 37.9838 24.9684 36.1532 26.2729 33.4932L19.07 29.8419L11.8671 33.4918Z" fill="#303981"/>
<path d="M24.7415 35.6315C27.8727 32.5012 27.8727 27.4259 24.7415 24.2956C21.6102 21.1653 16.5334 21.1653 13.4022 24.2956C10.2709 27.4259 10.2709 32.5012 13.4022 35.6315C16.5334 38.7618 21.6102 38.7618 24.7415 35.6315Z" fill="#1D1F43"/>
<path d="M48.9065 30.7397C49.3378 26.3338 46.1148 22.4126 41.7076 21.9813C37.3003 21.5501 33.3779 24.7722 32.9466 29.1781C32.5152 33.584 35.7383 37.5052 40.1455 37.9364C44.5527 38.3677 48.4751 35.1456 48.9065 30.7397Z" fill="#1D1F43"/>
<path d="M9.05585 16.2504C13.4469 15.678 16.5424 11.6553 15.9697 7.26554C15.3971 2.87577 11.3732 -0.218754 6.98213 0.353714C2.59105 0.926182 -0.504411 4.94886 0.0682288 9.33863C0.640869 13.7284 4.66476 16.8229 9.05585 16.2504Z" fill="#1D1F43"/>
<path d="M30.0445 16.3184C34.4727 16.3184 38.0625 12.7297 38.0625 8.30278C38.0625 3.87585 34.4727 0.287109 30.0445 0.287109C25.6162 0.287109 22.0264 3.87585 22.0264 8.30278C22.0264 12.7297 25.6162 16.3184 30.0445 16.3184Z" fill="#1D1F43"/>
<path d="M51.9805 16.3184C56.4088 16.3184 59.9986 12.7297 59.9986 8.30278C59.9986 3.87585 56.4088 0.287109 51.9805 0.287109C47.5522 0.287109 43.9624 3.87585 43.9624 8.30278C43.9624 12.7297 47.5522 16.3184 51.9805 16.3184Z" fill="#1D1F43"/>
<path d="M11.8699 33.4874C13.1758 36.1502 15.9126 37.9823 19.08 37.9823C22.2473 37.9823 24.9841 36.1488 26.2886 33.4874L19.08 29.8333L11.8699 33.4874Z" fill="#B4C3CD"/>
<path d="M33.7269 33.4874C35.0329 36.1502 37.7697 37.9823 40.937 37.9823C44.1044 37.9823 46.8412 36.1488 48.1457 33.4874L40.937 29.8333L33.7269 33.4874Z" fill="#B4C3CD"/>
<path d="M15.2352 11.8293L8.02651 8.17511L0.816406 11.8279C2.12238 14.4907 4.85917 16.3228 8.02651 16.3228C11.1938 16.3228 13.9306 14.4892 15.2352 11.8279V11.8293Z" fill="#B4C3CD"/>
<path d="M37.2603 11.8293L30.0517 8.17511L22.8416 11.8293C24.1475 14.4921 26.8843 16.3242 30.0517 16.3242C33.219 16.3242 35.9558 14.4907 37.2603 11.8293Z" fill="#B4C3CD"/>
<path d="M51.9862 8.17511L44.7761 11.8293C46.0821 14.4921 48.8189 16.3242 51.9862 16.3242C55.1536 16.3242 57.8904 14.4907 59.1949 11.8293L51.9862 8.17511Z" fill="#B4C3CD"/>
</g>
<defs>
<clipPath id="clip0_69_287">
<rect width="60" height="39" fill="white" transform="translate(0 0.285706)"/>
</clipPath>
</defs>
</svg>
