<svg width="17" height="17" viewBox="0 0 17 17" fill="none" xmlns="http://www.w3.org/2000/svg">
<path fill-rule="evenodd" clip-rule="evenodd" d="M6.207 14.207C6.09752 14.3168 5.964 14.3997 5.817 14.449L2.817 15.449C2.64074 15.508 2.45153 15.5167 2.2706 15.4742C2.08966 15.4316 1.92417 15.3395 1.79268 15.2081C1.6612 15.0767 1.56894 14.9113 1.52625 14.7304C1.48356 14.5495 1.49213 14.3603 1.551 14.184L2.551 11.184C2.6002 11.0366 2.68305 10.9028 2.793 10.793L10.586 3C10.9611 2.62506 11.4697 2.41443 12 2.41443C12.5303 2.41443 13.0389 2.62506 13.414 3L14 3.586C14.3749 3.96106 14.5856 4.46967 14.5856 5C14.5856 5.53033 14.3749 6.03895 14 6.414L6.207 14.207ZM3.5 11.5L11.293 3.707C11.4805 3.51953 11.7348 3.41422 12 3.41422C12.2652 3.41422 12.5195 3.51953 12.707 3.707L13.293 4.293C13.4805 4.48053 13.5858 4.73484 13.5858 5C13.5858 5.26517 13.4805 5.51947 13.293 5.707L5.5 13.5L2.5 14.5L3.5 11.5Z" fill="black"/>
<path fill-rule="evenodd" clip-rule="evenodd" d="M10.3539 3.05999C10.3075 3.01342 10.2523 2.97648 10.1915 2.95127C10.1308 2.92607 10.0657 2.91309 9.9999 2.91309C9.93413 2.91309 9.86901 2.92607 9.80827 2.95127C9.74752 2.97648 9.69234 3.01342 9.6459 3.05999L6.3539 6.35499C6.26001 6.44887 6.13267 6.50162 5.9999 6.50162C5.86712 6.50162 5.73979 6.44887 5.6459 6.35499C5.55201 6.2611 5.49927 6.13376 5.49927 6.00099C5.49927 5.86821 5.55201 5.74087 5.6459 5.64699L8.9399 2.35399C9.0792 2.2146 9.2446 2.10402 9.42665 2.02858C9.6087 1.95314 9.80383 1.91431 10.0009 1.91431C10.198 1.91431 10.3931 1.95314 10.5751 2.02858C10.7572 2.10402 10.9226 2.2146 11.0619 2.35399L11.3549 2.64599C11.4488 2.73974 11.5016 2.86695 11.5017 2.99963C11.5018 3.13231 11.4492 3.2596 11.3554 3.35349C11.2616 3.44737 11.1344 3.50017 11.0018 3.50026C10.8691 3.50036 10.7418 3.44774 10.6479 3.35399L10.3549 3.06099L10.3539 3.05999Z" fill="black"/>
<path d="M13.793 1.70697C13.9805 1.5195 14.2348 1.41418 14.5 1.41418C14.7652 1.41418 15.0195 1.5195 15.207 1.70697L15.237 1.73697C15.4193 1.9192 15.5241 2.16477 15.5297 2.42245C15.5353 2.68012 15.4412 2.93001 15.267 3.11997L14 4.49997L12.5 2.99997L13.793 1.70697Z" fill="black"/>
</svg>
