<svg width="32" height="32" viewBox="0 0 32 32" fill="none" xmlns="http://www.w3.org/2000/svg">
<rect width="32" height="32" fill="#2E3283"/>
<g clip-path="url(#clip0_108_3302)">
<path d="M16 10.7866H10.5107L10.7941 11.5507C11.5971 13.7151 13.6751 15.1532 16 15.1532C18.3249 15.1532 20.4029 13.7151 21.2059 11.5507L21.4892 10.7866H16Z" fill="white"/>
<path d="M16 13.6008L12.9414 18.4945H16H19.0592L16 13.6008Z" fill="white"/>
<path d="M16 17.9695H8.54373L9.40751 20.2987C10.2105 22.4631 12.2885 23.9011 14.6134 23.9011H17.3866C19.7115 23.9011 21.7895 22.4631 22.5925 20.2987L23.4562 17.9695H16Z" fill="white"/>
<path d="M16 22.2533L12.2721 28.2174H16H19.7284L16 22.2533Z" fill="white"/>
<path d="M26 6.51437H6V11.0184H26V6.51437Z" fill="white"/>
<path d="M20.5293 7.93826H11.4713V8.7669H20.5293V7.93826Z" fill="#2C3481"/>
<path d="M18.9064 3H13.0941V8.76639H18.9064V3Z" fill="#27AF5A"/>
<path d="M16 5.14608L17.7519 4.1449L16.7432 5.88347L17.7519 7.62151L16 6.62085L14.2481 7.62151L15.2568 5.88347L14.2481 4.1449L16 5.14608Z" fill="#F4E754"/>
</g>
<defs>
<clipPath id="clip0_108_3302">
<rect width="20" height="25.2174" fill="white" transform="translate(6 3)"/>
</clipPath>
</defs>
</svg>
