<svg width="50" height="33" viewBox="0 0 50 33" fill="none" xmlns="http://www.w3.org/2000/svg">
<g clip-path="url(#clip0_126_1148)">
<path d="M49.4236 9.41157L37.5072 3.37268L34.1418 9.98067L30.7752 3.37268L25 6.29947L19.2236 3.37268L15.8582 9.98067L12.4928 3.37268L0.575256 9.41157L9.87133 27.661L15.8582 24.6266L21.8463 27.661L25 21.469L28.1537 27.661L34.1418 24.6266L40.1287 27.661L49.4236 9.41157Z" fill="#394494"/>
<path d="M10.0854 21.4309L15.8558 24.3541L21.6801 21.3866L15.8606 9.97717L10.0854 21.4309Z" fill="#2A3073"/>
<path d="M25.0491 6.55774L19.0347 9.61963L25.006 21.4858L31.0396 9.61963L25.0491 6.55774Z" fill="#2A3073"/>
<path d="M34.143 9.97839L28.302 21.4285L34.0724 24.3529L39.9051 21.3974L34.143 9.97839Z" fill="#2A3073"/>
<path d="M9.88928 27.6717C10.9764 29.8883 13.2559 31.4151 15.8917 31.4151C18.5276 31.4151 20.8071 29.8895 21.8942 27.6729L15.8917 24.6301L9.88928 27.6717Z" fill="#303981"/>
<path d="M20.6179 29.4547C23.2273 26.8461 23.2273 22.6168 20.6179 20.0082C18.0085 17.3996 13.7779 17.3996 11.1685 20.0082C8.55911 22.6168 8.55911 26.8461 11.1685 29.4547C13.7779 32.0633 18.0085 32.0633 20.6179 29.4547Z" fill="#1D1F43"/>
<path d="M40.7556 25.3783C41.115 21.7068 38.4291 18.4391 34.7565 18.0797C31.0838 17.7204 27.8151 20.4054 27.4556 24.077C27.0962 27.7486 29.7821 31.0163 33.4547 31.3756C37.1274 31.735 40.3961 29.0499 40.7556 25.3783Z" fill="#1D1F43"/>
<path d="M7.5466 13.3039C11.2058 12.8268 13.7854 9.47461 13.3082 5.81648C12.831 2.15834 9.47775 -0.420434 5.81851 0.0566224C2.15927 0.533679 -0.420282 3.88592 0.0569187 7.54405C0.534119 11.2022 3.88736 13.781 7.5466 13.3039Z" fill="#1D1F43"/>
<path d="M25.0371 13.3607C28.7273 13.3607 31.7188 10.3701 31.7188 6.68095C31.7188 2.99184 28.7273 0.0012207 25.0371 0.0012207C21.3469 0.0012207 18.3553 2.99184 18.3553 6.68095C18.3553 10.3701 21.3469 13.3607 25.0371 13.3607Z" fill="#1D1F43"/>
<path d="M43.3171 13.3607C47.0073 13.3607 49.9988 10.3701 49.9988 6.68095C49.9988 2.99184 47.0073 0.0012207 43.3171 0.0012207C39.6269 0.0012207 36.6353 2.99184 36.6353 6.68095C36.6353 10.3701 39.6269 13.3607 43.3171 13.3607Z" fill="#1D1F43"/>
<path d="M9.89166 27.6681C10.98 29.8871 13.2606 31.4138 15.9001 31.4138C18.5395 31.4138 20.8202 29.8859 21.9073 27.6681L15.9001 24.6229L9.89166 27.6681Z" fill="#B4C3CD"/>
<path d="M28.1059 27.6681C29.1942 29.8871 31.4749 31.4138 34.1143 31.4138C36.7538 31.4138 39.0344 29.8859 40.1215 27.6681L34.1143 24.6229L28.1059 27.6681Z" fill="#B4C3CD"/>
<path d="M12.6961 9.61961L6.6889 6.57446L0.680481 9.61842C1.76879 11.8374 4.04945 13.3642 6.6889 13.3642C9.32835 13.3642 11.609 11.8362 12.6961 9.61842V9.61961Z" fill="#B4C3CD"/>
<path d="M31.0503 9.61961L25.0431 6.57446L19.0347 9.61961C20.123 11.8386 22.4036 13.3654 25.0431 13.3654C27.6825 13.3654 29.9632 11.8374 31.0503 9.61961Z" fill="#B4C3CD"/>
<path d="M43.3219 6.57446L37.3134 9.61961C38.4018 11.8386 40.6824 13.3654 43.3219 13.3654C45.9613 13.3654 48.242 11.8374 49.3291 9.61961L43.3219 6.57446Z" fill="#B4C3CD"/>
</g>
<defs>
<clipPath id="clip0_126_1148">
<rect width="50" height="32.5" fill="white"/>
</clipPath>
</defs>
</svg>
