<svg width="17" height="17" viewBox="0 0 17 17" fill="none" xmlns="http://www.w3.org/2000/svg">
<path fill-rule="evenodd" clip-rule="evenodd" d="M15.1262 11.1516C14.0959 12.461 9.57738 15.6036 8.52015 16.2446C8.08918 16.5064 7.54373 16.1894 7.54373 15.6725V14.0737C5.01849 13.9703 0.5 11.6822 0.5 7.23014C0.5 2.59198 5.03196 0.338379 8.49322 0.338379C12.2373 0.338379 16.4999 2.88144 16.4999 7.18879C16.5066 8.40174 16.1632 9.83523 15.1262 11.1516ZM6.54704 5.04528C6.33829 5.04528 6.16994 5.22987 6.16994 5.45878V8.63391C6.16994 8.86282 6.33829 9.04742 6.54704 9.04742C6.75579 9.04742 6.92414 8.86282 6.92414 8.63391V5.45878C6.92414 5.22987 6.75579 5.04528 6.54704 5.04528ZM9.58403 5.45878C9.58403 5.22987 9.75238 5.04528 9.96113 5.04528C10.1699 5.04528 10.3382 5.22987 10.3315 5.45878V8.63391C10.3315 8.81113 10.2238 8.96619 10.0689 9.02527C10.0352 9.04003 9.9948 9.04742 9.9544 9.04742C9.83992 9.04742 9.72544 8.98835 9.65137 8.87759L8.29111 6.82482V8.63391C8.29111 8.86282 8.12276 9.04742 7.91401 9.04742C7.70525 9.04742 7.5369 8.86282 7.5369 8.63391V5.54739C7.5369 5.37017 7.64465 5.21511 7.79953 5.15604C7.95441 5.09696 8.12949 5.15604 8.22377 5.30372L9.58403 7.35648V5.45878ZM5.4897 8.22776H4.48634V5.46613C4.48634 5.23723 4.31799 5.05262 4.10924 5.05262C3.90048 5.05262 3.73213 5.23723 3.73213 5.46613V8.64126C3.73213 8.87017 3.90048 9.05477 4.10924 9.05477H5.4897C5.69845 9.05477 5.8668 8.87017 5.8668 8.64126C5.8668 8.41236 5.69172 8.22776 5.4897 8.22776ZM11.5973 8.15398H13.0922C13.301 8.15398 13.4693 8.33858 13.4693 8.56748C13.4693 8.79639 13.301 8.98099 13.0922 8.98099H11.2202C11.0114 8.98099 10.8431 8.79639 10.8431 8.56748V6.97992V5.39235C10.8431 5.16344 11.0114 4.97884 11.2202 4.97884H13.0316C13.2404 4.97884 13.4087 5.16344 13.4087 5.39235C13.4087 5.62125 13.2404 5.80585 13.0316 5.80585H11.5973V6.56641H12.7623C12.971 6.56641 13.1394 6.75101 13.1394 6.97992C13.1394 7.20882 12.971 7.39342 12.7623 7.39342H11.5973V8.15398Z" fill="white"/>
</svg>
