<svg width="100" height="80" viewBox="0 0 100 80" fill="none" xmlns="http://www.w3.org/2000/svg">
<g clip-path="url(#clip0_69_420)">
<path d="M13.0597 74.7861H12.8995C12.3972 74.7861 12.225 74.602 12.225 74.1477V71.7996H12.8229V74.0999C12.8229 74.1764 12.8517 74.2122 12.9354 74.2122H13.0597V74.7861Z" fill="#231F20"/>
<path d="M14.0811 73.6935C13.8897 73.5022 13.7941 73.2702 13.7941 72.9522V72.7801C13.7941 72.1105 14.416 71.759 15.0378 71.759C15.6597 71.759 16.2816 72.0938 16.2816 72.804V74.7862H15.6837V72.8637C15.6837 72.4931 15.3679 72.3257 15.0378 72.3257C14.7078 72.3257 14.392 72.4931 14.392 72.8637C14.392 72.9714 14.404 73.055 14.4207 73.1507C14.5332 73.0957 14.6767 73.0718 14.8561 73.0718H15.2914V73.6385H14.8967C14.7413 73.6385 14.6886 73.6911 14.6575 73.8417L14.4734 74.7862H13.8467L14.0787 73.6935H14.0811Z" fill="#231F20"/>
<path d="M17.1928 74.1095C17.3722 74.1621 17.7477 74.2578 18.1137 74.2578C18.3936 74.2578 18.6327 74.1812 18.6327 73.9063C18.6327 73.4161 17.1163 73.5069 17.1163 72.5624C17.1163 71.9479 17.5994 71.7566 18.1974 71.7566C18.5371 71.7566 18.8911 71.8283 19.1542 71.912L19.0705 72.45C18.8863 72.4022 18.5275 72.3257 18.2046 72.3257C17.9415 72.3257 17.7143 72.3783 17.7143 72.5648C17.7143 73.043 19.2307 72.9044 19.2307 73.9086C19.2307 74.5901 18.7475 74.8292 18.1185 74.8292C17.7717 74.8292 17.4081 74.7647 17.1139 74.6977L17.1904 74.1119L17.1928 74.1095Z" fill="#231F20"/>
<path d="M17.157 70.9029H17.8793L17.92 70.5442H18.4462V70.9029H18.6543L18.695 70.5442H19.2212V71.4409H17.0278L17.1522 70.9029H17.157Z" fill="#231F20"/>
<path d="M21.3811 73.5428H20.886C20.7497 73.5428 20.6947 73.5954 20.6947 73.7461V74.1526C20.819 74.2004 21.0702 74.2602 21.3165 74.2602C21.6203 74.2602 21.9073 74.1645 21.9073 73.8298V72.7968C21.9073 72.4381 21.6394 72.3257 21.3094 72.3257C20.9338 72.3257 20.4794 72.474 20.2569 72.5888L20.1565 72.0579C20.4961 71.8905 20.9027 71.759 21.3165 71.759C21.9384 71.759 22.5053 72.0268 22.5053 72.7753V73.8872C22.5053 74.5926 21.9265 74.8317 21.3165 74.8317C20.8573 74.8317 20.3909 74.6954 20.0967 74.528V73.715C20.0967 73.2559 20.3048 72.9809 20.8549 72.9809H21.3811V73.5476V73.5428Z" fill="#231F20"/>
<path d="M23.981 73.9061C23.981 74.1691 24.2202 74.2576 24.4594 74.2576C24.6986 74.2576 24.9426 74.1668 24.9426 73.9061V71.7971H25.5405V73.9061C25.5405 74.5517 24.9976 74.8267 24.4594 74.8267C23.9212 74.8267 23.3831 74.5517 23.3831 73.9061V73.5188C23.3831 73.2509 23.4189 73.1433 23.5744 72.9879L23.8136 72.7488C23.8734 72.689 23.8901 72.6532 23.8901 72.5647V72.5121C23.8901 72.4116 23.8543 72.3686 23.7466 72.3686H23.4118V71.8019H23.7992C24.3015 71.8019 24.4857 72.0219 24.4857 72.4595V72.5838C24.4857 72.8277 24.4259 72.9544 24.2896 73.0907L24.0815 73.294C23.9978 73.3777 23.981 73.4255 23.981 73.5451V73.9085V73.9061Z" fill="#231F20"/>
<path d="M24.9426 71.4409L24.9832 70.5442H25.5382V71.4409H24.9402H24.9426Z" fill="#231F20"/>
<path d="M27.3919 74.7862V72.792C27.3919 72.4333 27.1288 72.3257 26.837 72.3257C26.6648 72.3257 26.4902 72.3616 26.3467 72.4094V71.8547C26.5189 71.7949 26.7174 71.759 26.9136 71.759C27.4565 71.759 27.9899 72.0221 27.9899 72.7561V74.7862H27.3919Z" fill="#231F20"/>
<path d="M30.7237 71.7996H31.3217V73.8847C31.3217 74.5542 30.8146 74.8292 30.1018 74.8292C29.6713 74.8292 29.236 74.7216 28.8892 74.5494V73.8392C28.8892 73.5116 28.9537 73.3084 29.2168 73.1769C29.0207 73.0932 28.8892 72.9258 28.8892 72.6747V72.5384C28.8892 72.1271 29.0733 71.8043 29.6067 71.8043H30.1569V72.3711H29.6737C29.5421 72.3711 29.4895 72.4619 29.4895 72.5863V72.6508C29.4895 72.8302 29.5613 72.8899 29.6737 72.8899H30.2478V73.4566H29.7813C29.5661 73.4566 29.4895 73.5571 29.4895 73.7914V74.1788C29.6498 74.2194 29.877 74.2625 30.1042 74.2625C30.4319 74.2625 30.7261 74.1668 30.7261 73.8321V71.802L30.7237 71.7996Z" fill="#231F20"/>
<path d="M34.6608 74.468C34.3331 74.7 33.8667 74.8267 33.4409 74.8267C32.8023 74.8267 32.245 74.535 32.245 73.8463V71.7971H32.843V73.8224C32.843 74.1572 33.13 74.2576 33.4409 74.2576C33.673 74.2576 33.9193 74.1978 34.0628 74.1142V70.5417H34.6608V74.4657V74.468Z" fill="#231F20"/>
<path d="M35.5745 74.1095C35.7539 74.1621 36.1295 74.2578 36.4954 74.2578C36.7753 74.2578 37.0145 74.1812 37.0145 73.9063C37.0145 73.4161 35.498 73.5069 35.498 72.5624C35.498 71.9479 35.9812 71.7566 36.5791 71.7566C36.9188 71.7566 37.2728 71.8283 37.5359 71.912L37.4522 72.45C37.268 72.4022 36.9092 72.3257 36.5863 72.3257C36.3232 72.3257 36.096 72.3783 36.096 72.5648C36.096 73.043 37.6124 72.9044 37.6124 73.9086C37.6124 74.5901 37.1293 74.8292 36.5002 74.8292C36.1534 74.8292 35.7898 74.7647 35.4956 74.6977L35.5721 74.1119L35.5745 74.1095Z" fill="#231F20"/>
<path d="M39.0643 72.199C39.0643 72.2947 39.1049 72.3425 39.2078 72.3425H39.8703V72.9092H39.0643C38.6888 72.9092 38.4663 72.749 38.4663 72.3425V72.0149H39.0643V72.199ZM39.0643 73.8465C39.0643 73.9422 39.1049 73.99 39.2078 73.99H39.8703V74.5567H39.0643C38.6888 74.5567 38.4663 74.3965 38.4663 73.99V73.6624H39.0643V73.8465Z" fill="#231F20"/>
<path d="M42.8458 73.9063C42.8458 74.5519 42.3029 74.8269 41.7647 74.8269C41.2265 74.8269 40.6884 74.5519 40.6884 73.9063V73.5189C40.6884 73.2511 40.7242 73.1435 40.8797 72.9881L41.1189 72.749C41.1787 72.6892 41.1954 72.6533 41.1954 72.5649V72.5122C41.1954 72.4118 41.1596 72.3688 41.0519 72.3688H40.7171V71.8021H41.1045C41.6068 71.8021 41.791 72.0221 41.791 72.4596V72.584C41.791 72.8279 41.7312 72.9546 41.5949 73.0909L41.3868 73.2942C41.3031 73.3778 41.2863 73.4257 41.2863 73.5452V73.9087C41.2863 74.1717 41.5255 74.2602 41.7647 74.2602C42.0039 74.2602 42.2479 74.1693 42.2479 73.9087V73.2583C42.2479 73.0622 42.1881 72.9833 41.9919 72.9833H41.9154V72.4166H41.9871C42.1067 72.4166 42.1426 72.3807 42.1713 72.2612L42.2909 71.759H42.9009L42.7813 72.254C42.7334 72.4453 42.6808 72.5816 42.5421 72.6892C42.7502 72.7968 42.8458 72.9164 42.8458 73.232V73.9063Z" fill="#231F20"/>
<path d="M44.6972 74.7862V72.792C44.6972 72.4333 44.4341 72.3257 44.1423 72.3257C43.9701 72.3257 43.7955 72.3616 43.652 72.4094V71.8547C43.8242 71.7949 44.0227 71.759 44.2189 71.759C44.7618 71.759 45.2952 72.0221 45.2952 72.7561V74.7862H44.6972Z" fill="#231F20"/>
<path d="M48.3305 73.9063C48.3305 74.5519 47.7875 74.8269 47.2493 74.8269C46.7111 74.8269 46.173 74.5519 46.173 73.9063V73.5189C46.173 73.2511 46.2089 73.1435 46.3643 72.9881L46.6035 72.749C46.6633 72.6892 46.6801 72.6533 46.6801 72.5649V72.5122C46.6801 72.4118 46.6442 72.3688 46.5365 72.3688H46.2017V71.8021H46.5892C47.0915 71.8021 47.2756 72.0221 47.2756 72.4596V72.584C47.2756 72.8279 47.2158 72.9546 47.0795 73.0909L46.8714 73.2942C46.7877 73.3778 46.7709 73.4257 46.7709 73.5452V73.9087C46.7709 74.1717 47.0101 74.2602 47.2493 74.2602C47.4885 74.2602 47.7325 74.1693 47.7325 73.9087V73.2583C47.7325 73.0622 47.6727 72.9833 47.4766 72.9833H47.4V72.4166H47.4718C47.5914 72.4166 47.6272 72.3807 47.6559 72.2612L47.7755 71.759H48.3855L48.2659 72.254C48.218 72.4453 48.1654 72.5816 48.0267 72.6892C48.2348 72.7968 48.3305 72.9164 48.3305 73.232V73.9063Z" fill="#231F20"/>
<path d="M51.6098 74.7861H51.0548L51.0142 74.4394C50.7702 74.6593 50.4832 74.8267 50.1364 74.8267C49.646 74.8267 49.2585 74.5517 49.2585 73.9061V71.7971H49.8565V73.875C49.8565 74.1142 49.9641 74.2576 50.1722 74.2576C50.4593 74.2576 50.7343 74.1022 51.0142 73.8631V71.7971H51.6122V74.7837L51.6098 74.7861Z" fill="#231F20"/>
<path d="M53.3726 74.7861H53.2124C52.7101 74.7861 52.5378 74.602 52.5378 74.1477V71.7996H53.1358V74.0999C53.1358 74.1764 53.1645 74.2122 53.2482 74.2122H53.3726V74.7861Z" fill="#231F20"/>
<path d="M55.5875 73.2438L55.0852 74.5398C55.0087 74.7359 54.8651 74.7837 54.6068 74.7837H54.2959L54.1356 71.7971H54.7384L54.803 72.9138V73.7148L55.2861 72.4427H55.8841L56.3673 73.7148V72.9138L56.4318 71.7971H57.0346L56.8743 74.7837H56.5634C56.3075 74.7837 56.1639 74.7359 56.085 74.5398L55.5827 73.2438H55.5875Z" fill="#231F20"/>
<path d="M54.9297 70.9029H55.652L55.6927 70.5442H56.2189V70.9029H56.427L56.4677 70.5442H56.9939V71.4409H54.8005L54.9249 70.9029H54.9297Z" fill="#231F20"/>
<path d="M56.4604 70.3051L56.4963 69.4993H56.9986V70.3051H56.4604Z" fill="#231F20"/>
<path d="M59.1537 73.5428H58.6586C58.5222 73.5428 58.4672 73.5954 58.4672 73.7461V74.1526C58.5916 74.2004 58.8428 74.2602 59.0891 74.2602C59.3929 74.2602 59.6799 74.1645 59.6799 73.8298V72.7968C59.6799 72.4381 59.412 72.3257 59.0819 72.3257C58.7064 72.3257 58.252 72.474 58.0295 72.5888L57.9291 72.0579C58.2687 71.8905 58.6753 71.759 59.0891 71.759C59.711 71.759 60.2779 72.0268 60.2779 72.7753V73.8872C60.2779 74.5926 59.6991 74.8317 59.0891 74.8317C58.6299 74.8317 58.1635 74.6954 57.8693 74.528V73.715C57.8693 73.2559 58.0774 72.9809 58.6275 72.9809H59.1537V73.5476V73.5428Z" fill="#231F20"/>
<path d="M61.1916 74.1095C61.371 74.1621 61.7465 74.2578 62.1125 74.2578C62.3923 74.2578 62.6315 74.1812 62.6315 73.9063C62.6315 73.4161 61.1151 73.5069 61.1151 72.5624C61.1151 71.9479 61.5982 71.7566 62.1962 71.7566C62.5358 71.7566 62.8898 71.8283 63.153 71.912L63.0692 72.45C62.8851 72.4022 62.5263 72.3257 62.2034 72.3257C61.9403 72.3257 61.713 72.3783 61.713 72.5648C61.713 73.043 63.2295 72.9044 63.2295 73.9086C63.2295 74.5901 62.7463 74.8292 62.1173 74.8292C61.7704 74.8292 61.4069 74.7647 61.1127 74.6977L61.1892 74.1119L61.1916 74.1095Z" fill="#231F20"/>
<path d="M62.732 70.7307C62.732 70.8264 62.7727 70.8742 62.8755 70.8742H63.9686V71.4409H62.732C62.3565 71.4409 62.134 71.2807 62.134 70.8742V70.4868H62.732V70.7307Z" fill="#231F20"/>
<path d="M66.7002 75.9794H66.1022C65.8463 75.7522 65.619 75.604 65.3559 75.604C65.1478 75.604 64.9804 75.7116 64.9804 75.9794H64.3824C64.3824 75.3577 64.801 75.0349 65.3081 75.0349C65.588 75.0349 65.8463 75.1353 66.1022 75.3696V75.0349H66.7002V75.9794ZM66.5328 72.5026C66.2936 72.4189 65.9348 72.3233 65.5712 72.3233C65.3153 72.3233 65.1048 72.3831 65.1048 72.5911V72.6318C65.9109 72.6437 66.6284 72.8948 66.6284 73.7556V74.4849C66.3773 74.7121 66.0305 74.8245 65.7075 74.8245C65.2603 74.8245 64.8536 74.5973 64.7819 74.1382L64.758 73.9828C64.746 73.8919 64.7054 73.8704 64.6145 73.8704H64.5499V73.3037H64.7341C65.0809 73.3037 65.2363 73.4232 65.3009 73.8178L65.3296 73.9899C65.3655 74.1812 65.521 74.2578 65.7004 74.2578C65.8128 74.2578 65.9276 74.2291 66.0281 74.1741V73.7987C66.0281 73.2128 65.3344 73.1124 64.6073 73.1124C64.5475 72.9689 64.5068 72.7728 64.5068 72.6294C64.5068 71.9551 65.045 71.7566 65.6119 71.7566C65.9874 71.7566 66.3175 71.8212 66.6404 71.9359L66.5328 72.5026Z" fill="#231F20"/>
<path d="M69.2212 74.7862V73.5787C69.0896 73.5548 68.8624 73.5141 68.6471 73.5141C68.3481 73.5141 68.0611 73.5906 68.0611 73.8895C68.0611 74.1693 68.2333 74.2602 68.4438 74.2602C68.5873 74.2602 68.7476 74.2195 68.8863 74.1693V74.7312C68.7141 74.7958 68.5395 74.8269 68.3721 74.8269C67.8578 74.8269 67.4631 74.528 67.4631 73.8895C67.4631 73.1913 67.9941 72.945 68.5801 72.945C68.7954 72.945 69.0155 72.9737 69.2188 73.0215V72.7585C69.2188 72.4237 68.9628 72.3233 68.6519 72.3233C68.3242 72.3233 67.9343 72.4357 67.731 72.5194L67.6545 71.9527C67.9535 71.8331 68.317 71.7566 68.6519 71.7566C68.8839 71.7566 69.0992 71.7925 69.2858 71.869L69.3456 71.6179H69.9435L69.867 71.9455C69.8311 72.0842 69.7904 72.1727 69.7067 72.2444C69.7785 72.3831 69.8191 72.5433 69.8191 72.7465V74.7838H69.2212V74.7862Z" fill="#231F20"/>
<path d="M70.6252 71.9359C70.8884 71.8235 71.2041 71.7566 71.5031 71.7566C72.1058 71.7566 72.644 72.0364 72.644 72.8207V73.7891C72.644 74.4586 72.2685 74.7862 71.5557 74.7862H71.0366V74.2195H71.5437C71.8714 74.2195 72.046 74.1119 72.046 73.7532V72.8517C72.046 72.4453 71.8021 72.3257 71.5031 72.3257C71.2041 72.3257 70.9171 72.4261 70.7138 72.505L70.6252 71.9383V71.9359Z" fill="#231F20"/>
<path d="M72.1536 70.7307C72.1536 70.8264 72.1943 70.8742 72.2971 70.8742H73.3902V71.4409H72.1536C71.7781 71.4409 71.5557 71.2807 71.5557 70.8742V70.4868H72.1536V70.7307Z" fill="#231F20"/>
<path d="M75.6793 74.7862V73.5787C75.5477 73.5548 75.3205 73.5141 75.1053 73.5141C74.8063 73.5141 74.5192 73.5906 74.5192 73.8895C74.5192 74.1693 74.6915 74.2602 74.9019 74.2602C75.0455 74.2602 75.2057 74.2195 75.3444 74.1693V74.7312C75.1722 74.7958 74.9976 74.8269 74.8302 74.8269C74.3159 74.8269 73.9213 74.528 73.9213 73.8895C73.9213 73.1913 74.4523 72.945 75.0383 72.945C75.2535 72.945 75.4736 72.9737 75.6769 73.0215V72.7585C75.6769 72.4237 75.421 72.3233 75.11 72.3233C74.7823 72.3233 74.3925 72.4357 74.1892 72.5194L74.1126 71.9527C74.4116 71.8331 74.7752 71.7566 75.11 71.7566C75.342 71.7566 75.5573 71.7925 75.7439 71.869L75.8037 71.6179H76.4017L76.3251 71.9455C76.2892 72.0842 76.2486 72.1727 76.1649 72.2444C76.2366 72.3831 76.2773 72.5433 76.2773 72.7465V74.7838H75.6793V74.7862Z" fill="#231F20"/>
<path d="M77.7387 73.8584C77.7387 74.1573 77.9827 74.2577 78.241 74.2577C78.4084 74.2577 78.5807 74.2218 78.7003 74.1621V74.7168C78.5448 74.7885 78.3606 74.8244 78.174 74.8244C77.6 74.8244 77.1407 74.5327 77.1407 73.8871V72.8541C77.1407 72.108 77.7746 71.7542 78.4084 71.7542C79.0423 71.7542 79.6761 72.1057 79.6761 72.8541V74.7838H79.0782V72.8732C79.0782 72.4978 78.7433 72.3232 78.4084 72.3232C78.0736 72.3232 77.7387 72.4954 77.7387 72.8732V73.8584Z" fill="#231F20"/>
<path d="M77.6071 70.9028H79.6737V71.4408H77.4803L77.6047 70.9028H77.6071Z" fill="#231F20"/>
<path d="M82.9603 74.7862H82.3623V72.8088C82.3623 72.4453 82.1064 72.3257 81.7882 72.3257C81.573 72.3257 81.341 72.3783 81.1376 72.4453L81.1974 72.8924V74.7862H80.5995V72.804L80.4751 72.1416C80.8387 71.9695 81.2883 71.759 81.7906 71.759C82.4006 71.759 82.9627 72.0221 82.9627 72.7753V74.7886L82.9603 74.7862Z" fill="#231F20"/>
<path d="M84.8115 74.7862V72.792C84.8115 72.4333 84.5484 72.3257 84.2566 72.3257C84.0844 72.3257 83.9097 72.3616 83.7662 72.4094V71.8547C83.9385 71.7949 84.137 71.759 84.3331 71.759C84.8761 71.759 85.4095 72.0221 85.4095 72.7561V74.7862H84.8115Z" fill="#231F20"/>
<path d="M86.3232 74.1095C86.5026 74.1621 86.8781 74.2578 87.2441 74.2578C87.5239 74.2578 87.7631 74.1812 87.7631 73.9063C87.7631 73.4161 86.2466 73.5069 86.2466 72.5624C86.2466 71.9479 86.7298 71.7566 87.3278 71.7566C87.6674 71.7566 88.0214 71.8283 88.2845 71.912L88.2008 72.45C88.0166 72.4022 87.6579 72.3257 87.335 72.3257C87.0719 72.3257 86.8446 72.3783 86.8446 72.5648C86.8446 73.043 88.3611 72.9044 88.3611 73.9086C88.3611 74.5901 87.8779 74.8292 87.2489 74.8292C86.902 74.8292 86.5385 74.7647 86.2443 74.6977L86.3208 74.1119L86.3232 74.1095Z" fill="#231F20"/>
<path d="M12.8038 79.4656L12.1293 77.2585H12.2704L12.8755 79.2671L13.4831 77.2585H13.6218L13.4376 77.8563L13.8634 79.2671L14.4709 77.2585H14.6097L13.9351 79.4656H13.7916L13.3683 78.0811L12.9449 79.4656H12.8014H12.8038Z" fill="#231F20"/>
<path d="M16.8604 79.4656V77.2585H18.0755V77.3901H16.9992V78.2939H17.9416V78.4254H16.9992V79.3365H18.1186V79.468H16.858L16.8604 79.4656Z" fill="#231F20"/>
<path d="M20.5917 79.3341H21.6274V79.4656H20.453V77.2585H20.5917V79.3341Z" fill="#231F20"/>
<path d="M23.926 79.4656V77.2585H25.098V77.3901H24.0648V78.3657H24.9641V78.4972H24.0648V79.468H23.926V79.4656Z" fill="#231F20"/>
<path d="M27.002 79.4656L27.8033 77.2585H27.9468L28.7481 79.4656H28.6165L28.3439 78.7172H27.4015L27.1312 79.4656H26.9996H27.002ZM27.8751 77.4211L27.4517 78.588H28.2984L27.8751 77.4211Z" fill="#231F20"/>
<path d="M31.0132 77.304C31.2117 77.2561 31.3983 77.2346 31.549 77.2346C32.0847 77.2346 32.3263 77.555 32.3263 77.8755C32.3263 78.117 32.1924 78.3585 31.9101 78.4469C31.9699 78.4948 32.0154 78.5617 32.056 78.655L32.3957 79.4632H32.2594L31.9269 78.6956C31.8527 78.5211 31.781 78.4852 31.6088 78.4852H31.1543V79.4632H31.0156V77.3016L31.0132 77.304ZM31.1519 78.3537H31.6207C32.0273 78.3537 32.1828 78.105 32.1828 77.8755C32.1828 77.6244 31.9891 77.3661 31.5418 77.3661C31.4318 77.3661 31.2906 77.3781 31.1495 77.4092V78.3537H31.1519Z" fill="#231F20"/>
<path d="M34.7087 79.4656V77.2585H35.9238V77.3901H34.8474V78.2939H35.7898V78.4254H34.8474V79.3365H35.9668V79.468H34.7063L34.7087 79.4656Z" fill="#231F20"/>
<path d="M41.7934 79.4656L41.1189 77.2585H41.2576L41.8652 79.2671L42.4727 77.2585H42.6114L42.4273 77.8563L42.853 79.2671L43.4606 77.2585H43.5993L42.9248 79.4656H42.7813L42.3579 78.0811L41.9345 79.4656H41.791H41.7934Z" fill="#231F20"/>
<path d="M45.4626 79.4656L46.2639 77.2585H46.4074L47.2087 79.4656H47.0771L46.8044 78.7172H45.862L45.5918 79.4656H45.4602H45.4626ZM46.3356 77.4211L45.9123 78.588H46.759L46.3356 77.4211Z" fill="#231F20"/>
<path d="M49.0839 77.3876V77.2561H50.7175V77.3876H49.9713V79.4632H49.8325V77.3876H49.0863H49.0839Z" fill="#231F20"/>
<path d="M54.2098 79.3053C54.0136 79.4392 53.8223 79.4847 53.6429 79.4847C53.1788 79.4847 52.7961 79.2336 52.7961 78.5545V78.258C52.7961 77.5909 53.1454 77.2322 53.6453 77.2322C53.8079 77.2322 53.9801 77.2657 54.1619 77.3637L54.1332 77.4856C53.9658 77.4043 53.7936 77.3637 53.6429 77.3637C53.2554 77.3637 52.9373 77.6339 52.9373 78.2508V78.5617C52.9373 79.1212 53.2602 79.3555 53.6429 79.3555C53.8127 79.3555 54.0136 79.3005 54.1787 79.181L54.2098 79.3053Z" fill="#231F20"/>
<path d="M56.6495 78.3465H57.8167V77.2585H57.9578V79.4656H57.8167V78.478H56.6495V79.4656H56.5107V77.2585H56.6495V78.3465Z" fill="#231F20"/>
<path d="M63.4687 77.4928V79.4632H63.33V77.2561H63.4974L64.5953 79.2551V77.2561H64.734V79.4632H64.5498L63.4687 77.4928Z" fill="#231F20"/>
<path d="M67.1379 79.4656V77.2585H68.353V77.3901H67.2766V78.2939H68.219V78.4254H67.2766V79.3365H68.396V79.468H67.1355L67.1379 79.4656Z" fill="#231F20"/>
<path d="M70.6205 77.3876V77.2561H72.2541V77.3876H71.5079V79.4632H71.3691V77.3876H70.6229H70.6205Z" fill="#231F20"/>
<path d="M75.0694 79.4656L74.3949 77.2585H74.5336L75.1412 79.2671L75.7487 77.2585H75.8874L75.7033 77.8563L76.129 79.2671L76.7366 77.2585H76.8753L76.2008 79.4656H76.0573L75.6339 78.0811L75.2105 79.4656H75.067H75.0694Z" fill="#231F20"/>
<path d="M79.0016 78.4518V78.2724C79.0016 77.6436 79.3269 77.2371 79.8651 77.2371C80.4032 77.2371 80.7285 77.6436 80.7285 78.2724V78.4518C80.7285 79.0806 80.4032 79.4871 79.8651 79.4871C79.3269 79.4871 79.0016 79.0806 79.0016 78.4518ZM79.1403 78.2629V78.4613C79.1403 78.9587 79.3962 79.3556 79.8651 79.3556C80.3339 79.3556 80.5898 78.9587 80.5898 78.4613V78.2629C80.5898 77.7655 80.3339 77.3686 79.8651 77.3686C79.3962 77.3686 79.1403 77.7655 79.1403 78.2629Z" fill="#231F20"/>
<path d="M83.0654 77.304C83.264 77.2561 83.4505 77.2346 83.6012 77.2346C84.137 77.2346 84.3786 77.555 84.3786 77.8755C84.3786 78.117 84.2446 78.3585 83.9624 78.4469C84.0222 78.4948 84.0676 78.5617 84.1083 78.655L84.4479 79.4632H84.3116L83.9791 78.6956C83.905 78.5211 83.8332 78.4852 83.661 78.4852H83.2065V79.4632H83.0678V77.3016L83.0654 77.304ZM83.2042 78.3537H83.673C84.0796 78.3537 84.2351 78.105 84.2351 77.8755C84.2351 77.6244 84.0413 77.3661 83.594 77.3661C83.484 77.3661 83.3429 77.3781 83.2018 77.4092V78.3537H83.2042Z" fill="#231F20"/>
<path d="M87.4809 78.3465C87.6364 78.3776 87.7416 78.4733 87.8206 78.6574L88.1602 79.4656H88.0239L87.6914 78.698C87.6149 78.5187 87.5479 78.4637 87.3422 78.4637H86.9045V79.4656H86.7657V77.2585H86.9045V78.3346H87.3374L87.9832 77.2585H88.1363L87.4833 78.3465H87.4809Z" fill="#231F20"/>
<path d="M98.8471 18.8231L75.0144 6.74536L68.2836 19.9613L61.5504 6.74536L50 12.5989L38.4472 6.74536L31.7164 19.9613L24.9857 6.74536L1.15051 18.8231L19.7426 55.3219L31.7164 49.2531L43.6926 55.3219L50 42.9381L56.3074 55.3219L68.2836 49.2531L80.2574 55.3219L98.8471 18.8231Z" fill="#394494"/>
<path d="M20.1708 42.8617L31.7116 48.7081L43.3601 42.7733L31.7212 19.9543L20.1708 42.8617Z" fill="#2A3073"/>
<path d="M50.098 13.1155L38.0692 19.2393L50.0119 42.9716L62.079 19.2393L50.098 13.1155Z" fill="#2A3073"/>
<path d="M68.286 19.9568L56.604 42.857L68.1449 48.7058L79.8101 42.7948L68.286 19.9568Z" fill="#2A3073"/>
<path d="M19.7786 55.3436C21.9528 59.7768 26.5117 62.8304 31.7834 62.8304C37.0552 62.8304 41.6141 59.7792 43.7883 55.346L31.7834 49.2605L19.7786 55.3436Z" fill="#303981"/>
<path d="M41.2358 58.9097C46.4545 53.6925 46.4545 45.2338 41.2358 40.0166C36.017 34.7994 27.5557 34.7994 22.337 40.0166C17.1182 45.2338 17.1182 53.6925 22.337 58.9097C27.5557 64.1269 36.017 64.1269 41.2358 58.9097Z" fill="#1D1F43"/>
<path d="M81.5112 50.7567C82.2301 43.4136 76.8583 36.8782 69.513 36.1594C62.1676 35.4407 55.6303 40.8109 54.9113 48.154C54.1924 55.4972 59.5642 62.0326 66.9095 62.7513C74.2549 63.47 80.7923 58.0998 81.5112 50.7567Z" fill="#1D1F43"/>
<path d="M15.0932 26.6078C22.4117 25.6537 27.5708 18.9492 26.6164 11.6329C25.662 4.31668 18.9555 -0.840868 11.637 0.113246C4.31854 1.06736 -0.840564 7.77183 0.113837 15.0881C1.06824 22.4044 7.77473 27.5619 15.0932 26.6078Z" fill="#1D1F43"/>
<path d="M50.0742 26.7213C57.4546 26.7213 63.4376 20.7401 63.4376 13.3619C63.4376 5.98367 57.4546 0.00244141 50.0742 0.00244141C42.6937 0.00244141 36.7107 5.98367 36.7107 13.3619C36.7107 20.7401 42.6937 26.7213 50.0742 26.7213Z" fill="#1D1F43"/>
<path d="M86.6341 26.7213C94.0146 26.7213 99.9976 20.7401 99.9976 13.3619C99.9976 5.98367 94.0146 0.00244141 86.6341 0.00244141C79.2537 0.00244141 73.2706 5.98367 73.2706 13.3619C73.2706 20.7401 79.2537 26.7213 86.6341 26.7213Z" fill="#1D1F43"/>
<path d="M19.7833 55.3364C21.9599 59.7744 26.5213 62.8279 31.8002 62.8279C37.0791 62.8279 41.6404 59.772 43.8146 55.3364L31.8002 49.2461L19.7833 55.3364Z" fill="#B4C3CD"/>
<path d="M56.2118 55.3364C58.3884 59.7744 62.9497 62.8279 68.2286 62.8279C73.5075 62.8279 78.0689 59.772 80.2431 55.3364L68.2286 49.2461L56.2118 55.3364Z" fill="#B4C3CD"/>
<path d="M25.3922 19.2392L13.3778 13.1489L1.36096 19.2368C3.53758 23.6748 8.09891 26.7284 13.3778 26.7284C18.6567 26.7284 23.218 23.6725 25.3922 19.2368V19.2392Z" fill="#B4C3CD"/>
<path d="M62.1005 19.2392L50.0861 13.1489L38.0692 19.2392C40.2458 23.6772 44.8072 26.7308 50.0861 26.7308C55.3649 26.7308 59.9263 23.6748 62.1005 19.2392Z" fill="#B4C3CD"/>
<path d="M86.6437 13.1489L74.6268 19.2392C76.8034 23.6772 81.3648 26.7308 86.6437 26.7308C91.9226 26.7308 96.4839 23.6748 98.6581 19.2392L86.6437 13.1489Z" fill="#B4C3CD"/>
</g>
<defs>
<clipPath id="clip0_69_420">
<rect width="100" height="79.4872" fill="white"/>
</clipPath>
</defs>
</svg>
