<svg width="288" height="86" viewBox="0 0 288 86" fill="none" xmlns="http://www.w3.org/2000/svg">
<path d="M90.6016 11.9375H84.7936V10.4735L87.4216 8.1695C87.8696 7.7775 88.1976 7.4255 88.4056 7.1135C88.6136 6.7935 88.7176 6.4495 88.7176 6.0815V5.9255C88.7176 5.5575 88.5976 5.2775 88.3576 5.0855C88.1176 4.8855 87.8256 4.7855 87.4816 4.7855C87.0496 4.7855 86.7216 4.9095 86.4976 5.1575C86.2736 5.3975 86.1136 5.6895 86.0176 6.0335L84.6496 5.5055C84.7376 5.2255 84.8616 4.9615 85.0216 4.7135C85.1816 4.4575 85.3816 4.2335 85.6216 4.0415C85.8696 3.8495 86.1576 3.6975 86.4856 3.5855C86.8136 3.4735 87.1896 3.4175 87.6136 3.4175C88.0536 3.4175 88.4456 3.4815 88.7896 3.6095C89.1336 3.7295 89.4216 3.9015 89.6536 4.1255C89.8936 4.3495 90.0736 4.6135 90.1936 4.9175C90.3216 5.2215 90.3856 5.5535 90.3856 5.9135C90.3856 6.2655 90.3296 6.5855 90.2176 6.8735C90.1056 7.1615 89.9536 7.4375 89.7616 7.7015C89.5696 7.9575 89.3456 8.2055 89.0896 8.4455C88.8336 8.6775 88.5616 8.9135 88.2736 9.1535L86.5096 10.6055H90.6016V11.9375ZM97.7969 11.9375H91.9889V10.4735L94.6169 8.1695C95.0649 7.7775 95.3929 7.4255 95.6009 7.1135C95.8089 6.7935 95.9129 6.4495 95.9129 6.0815V5.9255C95.9129 5.5575 95.7929 5.2775 95.5529 5.0855C95.3129 4.8855 95.0209 4.7855 94.6769 4.7855C94.2449 4.7855 93.9169 4.9095 93.6929 5.1575C93.4689 5.3975 93.3089 5.6895 93.2129 6.0335L91.8449 5.5055C91.9329 5.2255 92.0569 4.9615 92.2169 4.7135C92.3769 4.4575 92.5769 4.2335 92.8169 4.0415C93.0649 3.8495 93.3529 3.6975 93.6809 3.5855C94.0089 3.4735 94.3849 3.4175 94.8089 3.4175C95.2489 3.4175 95.6409 3.4815 95.9849 3.6095C96.3289 3.7295 96.6169 3.9015 96.8489 4.1255C97.0889 4.3495 97.2689 4.6135 97.3889 4.9175C97.5169 5.2215 97.5809 5.5535 97.5809 5.9135C97.5809 6.2655 97.5249 6.5855 97.4129 6.8735C97.3009 7.1615 97.1489 7.4375 96.9569 7.7015C96.7649 7.9575 96.5409 8.2055 96.2849 8.4455C96.0289 8.6775 95.7569 8.9135 95.4689 9.1535L93.7049 10.6055H97.7969V11.9375ZM104.036 12.0575C103.388 12.0575 102.872 11.9015 102.488 11.5895C102.104 11.2695 101.912 10.7775 101.912 10.1135C101.912 9.4895 102.096 9.0095 102.464 8.6735C102.832 8.3375 103.356 8.1695 104.036 8.1695H106.052V7.7375C106.052 7.3055 105.936 6.9775 105.704 6.7535C105.472 6.5215 105.104 6.4055 104.6 6.4055C104.128 6.4055 103.748 6.5095 103.46 6.7175C103.172 6.9175 102.936 7.1535 102.752 7.4255L101.78 6.5735C101.916 6.3655 102.072 6.1775 102.248 6.0095C102.432 5.8335 102.64 5.6855 102.872 5.5655C103.112 5.4375 103.38 5.3415 103.676 5.2775C103.98 5.2055 104.32 5.1695 104.696 5.1695C105.472 5.1695 106.108 5.3255 106.604 5.6375C106.644 5.4055 106.74 5.2415 106.892 5.1455C107.052 5.0415 107.256 4.9895 107.504 4.9895H108.908V6.2615H107.228V6.3095C107.468 6.6695 107.588 7.1255 107.588 7.6775V11.9375H106.052V9.1655H104.552C103.84 9.1655 103.484 9.4495 103.484 10.0175V10.2455C103.484 10.5255 103.564 10.7455 103.724 10.9055C103.884 11.0655 104.104 11.1455 104.384 11.1455C104.512 11.1455 104.624 11.1335 104.72 11.1095L104.828 11.9735C104.764 11.9975 104.648 12.0175 104.48 12.0335C104.312 12.0495 104.164 12.0575 104.036 12.0575ZM110.33 12.0695C110.002 12.0695 109.758 11.9895 109.598 11.8295C109.446 11.6615 109.37 11.4495 109.37 11.1935V10.9775C109.37 10.7215 109.446 10.5095 109.598 10.3415C109.758 10.1735 110.002 10.0895 110.33 10.0895C110.666 10.0895 110.91 10.1735 111.062 10.3415C111.214 10.5095 111.29 10.7215 111.29 10.9775V11.1935C111.29 11.4495 111.214 11.6615 111.062 11.8295C110.91 11.9895 110.666 12.0695 110.33 12.0695ZM112.944 7.9295C112.944 7.5135 113.016 7.1375 113.16 6.8015C113.304 6.4575 113.512 6.1655 113.784 5.9255C114.056 5.6855 114.384 5.5015 114.768 5.3735C115.16 5.2375 115.6 5.1695 116.088 5.1695C116.568 5.1695 117 5.2375 117.384 5.3735C117.776 5.5015 118.108 5.6855 118.38 5.9255C118.652 6.1655 118.86 6.4575 119.004 6.8015C119.156 7.1375 119.232 7.5135 119.232 7.9295V11.9375H117.696V8.0135C117.696 7.5015 117.552 7.1055 117.264 6.8255C116.984 6.5455 116.592 6.4055 116.088 6.4055C115.584 6.4055 115.188 6.5455 114.9 6.8255C114.62 7.1055 114.48 7.5015 114.48 8.0135V9.4775H114.54C114.58 9.3095 114.64 9.1495 114.72 8.9975C114.808 8.8375 114.92 8.6975 115.056 8.5775C115.192 8.4575 115.352 8.3615 115.536 8.2895C115.728 8.2095 115.948 8.1695 116.196 8.1695H116.532V9.6215H116.052C115.54 9.6215 115.148 9.7015 114.876 9.8615C114.612 10.0135 114.48 10.2695 114.48 10.6295V11.9375H112.944V7.9295ZM121.838 12.0695C121.51 12.0695 121.266 11.9895 121.106 11.8295C120.954 11.6615 120.878 11.4495 120.878 11.1935V10.9775C120.878 10.7215 120.954 10.5095 121.106 10.3415C121.266 10.1735 121.51 10.0895 121.838 10.0895C122.174 10.0895 122.418 10.1735 122.57 10.3415C122.722 10.5095 122.798 10.7215 122.798 10.9775V11.1935C122.798 11.4495 122.722 11.6615 122.57 11.8295C122.418 11.9895 122.174 12.0695 121.838 12.0695ZM76.1312 26.9375C75.6032 26.9375 75.2152 26.8055 74.9672 26.5415C74.7192 26.2775 74.5952 25.9055 74.5952 25.4255V20.3135H76.1312V25.7135H77.0072V26.9375H76.1312ZM80.1182 27.0575C79.4702 27.0575 78.9542 26.9015 78.5702 26.5895C78.1862 26.2695 77.9942 25.7775 77.9942 25.1135C77.9942 24.4895 78.1782 24.0095 78.5462 23.6735C78.9142 23.3375 79.4382 23.1695 80.1182 23.1695H82.1342V22.7375C82.1342 22.3055 82.0182 21.9775 81.7862 21.7535C81.5542 21.5215 81.1862 21.4055 80.6822 21.4055C80.2102 21.4055 79.8302 21.5095 79.5422 21.7175C79.2542 21.9175 79.0182 22.1535 78.8342 22.4255L77.8622 21.5735C77.9982 21.3655 78.1542 21.1775 78.3302 21.0095C78.5142 20.8335 78.7222 20.6855 78.9542 20.5655C79.1942 20.4375 79.4622 20.3415 79.7582 20.2775C80.0622 20.2055 80.4022 20.1695 80.7782 20.1695C81.7302 20.1695 82.4502 20.3855 82.9382 20.8175C83.4262 21.2495 83.6702 21.8695 83.6702 22.6775V26.9375H82.1342V24.1655H80.6342C79.9222 24.1655 79.5662 24.4495 79.5662 25.0175V25.2455C79.5662 25.5255 79.6462 25.7455 79.8062 25.9055C79.9662 26.0655 80.1862 26.1455 80.4662 26.1455C80.5942 26.1455 80.7062 26.1335 80.8022 26.1095L80.9102 26.9735C80.8462 26.9975 80.7302 27.0175 80.5622 27.0335C80.3942 27.0495 80.2462 27.0575 80.1182 27.0575ZM78.3226 18.0575H80.3506V17.0615H81.5506V18.1895H82.4746V17.0615H83.6746V19.2215H78.3226V18.0575ZM87.9872 27.0815C87.5712 27.0815 87.1872 27.0255 86.8352 26.9135C86.4832 26.7935 86.1792 26.6335 85.9232 26.4335C85.6672 26.2255 85.4672 25.9815 85.3232 25.7015C85.1792 25.4135 85.1072 25.0975 85.1072 24.7535V24.1535C85.1072 23.8495 85.1832 23.6135 85.3352 23.4455C85.4952 23.2695 85.7472 23.1815 86.0912 23.1815H87.4832V24.3455H86.5112V24.6335C86.5112 25.0495 86.6472 25.3655 86.9192 25.5815C87.1912 25.7895 87.5672 25.8935 88.0472 25.8935C88.5112 25.8935 88.8712 25.7415 89.1272 25.4375C89.3832 25.1335 89.5112 24.7135 89.5112 24.1775V23.1095C89.5112 22.5735 89.3672 22.1575 89.0792 21.8615C88.7912 21.5575 88.3872 21.4055 87.8672 21.4055C87.4032 21.4055 87.0032 21.5055 86.6672 21.7055C86.3392 21.9055 86.0952 22.1255 85.9352 22.3655L84.9992 21.5255C85.2312 21.1415 85.5912 20.8215 86.0792 20.5655C86.5752 20.3015 87.1912 20.1695 87.9272 20.1695C88.4312 20.1695 88.8792 20.2495 89.2712 20.4095C89.6632 20.5615 89.9952 20.7895 90.2672 21.0935C90.5472 21.3895 90.7592 21.7535 90.9032 22.1855C91.0472 22.6095 91.1192 23.0895 91.1192 23.6255C91.1192 24.7055 90.8472 25.5535 90.3032 26.1695C89.7592 26.7775 88.9872 27.0815 87.9872 27.0815ZM93.1307 23.3735L92.0987 22.9535C92.1307 22.5375 92.2307 22.1575 92.3987 21.8135C92.5667 21.4695 92.7907 21.1775 93.0707 20.9375C93.3587 20.6895 93.6947 20.5015 94.0787 20.3735C94.4707 20.2375 94.8947 20.1695 95.3507 20.1695C95.8307 20.1695 96.2587 20.2335 96.6347 20.3615C97.0187 20.4895 97.3427 20.6735 97.6067 20.9135C97.8707 21.1535 98.0707 21.4455 98.2067 21.7895C98.3507 22.1255 98.4227 22.5015 98.4227 22.9175V26.9375H96.8867V23.1215C96.8867 22.5695 96.7467 22.1455 96.4667 21.8495C96.1867 21.5535 95.7827 21.4055 95.2547 21.4055C94.8387 21.4055 94.4747 21.4975 94.1627 21.6815C93.8587 21.8575 93.6467 22.0895 93.5267 22.3775L93.9947 22.5575C94.2507 22.6535 94.4267 22.7655 94.5227 22.8935C94.6187 23.0215 94.6667 23.2135 94.6667 23.4695V26.9375H93.1307V23.3735ZM102.189 27.0815C101.501 27.0815 100.973 26.8575 100.605 26.4095C100.237 25.9615 100.053 25.3215 100.053 24.4895V20.3135H101.589V24.3455C101.589 24.8015 101.677 25.1615 101.853 25.4255C102.037 25.6895 102.353 25.8215 102.801 25.8215C102.969 25.8215 103.133 25.7975 103.293 25.7495C103.453 25.7015 103.593 25.6335 103.713 25.5455C103.841 25.4495 103.945 25.3335 104.025 25.1975C104.105 25.0535 104.145 24.8895 104.145 24.7055V20.3135H105.681V25.7135H106.317V26.9375H105.357C104.669 26.9375 104.313 26.5455 104.289 25.7615H104.217C104.081 26.1295 103.849 26.4415 103.521 26.6975C103.201 26.9535 102.757 27.0815 102.189 27.0815ZM110.188 22.5095C110.188 22.1575 110.096 21.8855 109.912 21.6935C109.736 21.5015 109.452 21.4055 109.06 21.4055C108.7 21.4055 108.412 21.4815 108.196 21.6335C107.988 21.7855 107.812 21.9735 107.668 22.1975L106.756 21.3815C106.988 21.0135 107.288 20.7215 107.656 20.5055C108.032 20.2815 108.536 20.1695 109.168 20.1695C110.008 20.1695 110.644 20.3655 111.076 20.7575C111.508 21.1415 111.724 21.6975 111.724 22.4255V26.9375H110.188V22.5095ZM115.886 27.0815C115.038 27.0815 114.374 26.9135 113.894 26.5775C113.414 26.2335 113.174 25.7495 113.174 25.1255C113.174 24.7415 113.286 24.4135 113.51 24.1415C113.742 23.8695 114.038 23.6815 114.398 23.5775V23.5055C113.998 23.4095 113.686 23.2215 113.462 22.9415C113.238 22.6535 113.126 22.3055 113.126 21.8975C113.126 21.6415 113.17 21.4095 113.258 21.2015C113.354 20.9855 113.482 20.8015 113.642 20.6495C113.81 20.4975 114.01 20.3815 114.242 20.3015C114.482 20.2135 114.746 20.1695 115.034 20.1695C115.218 20.1695 115.418 20.1895 115.634 20.2295C115.85 20.2615 116.046 20.3255 116.222 20.4215L115.898 21.5375C115.794 21.4815 115.694 21.4455 115.598 21.4295C115.51 21.4055 115.414 21.3935 115.31 21.3935C115.078 21.3935 114.886 21.4615 114.734 21.5975C114.582 21.7255 114.506 21.9055 114.506 22.1375C114.506 22.3695 114.574 22.5575 114.71 22.7015C114.846 22.8455 115.094 22.9175 115.454 22.9175H116.102V23.9495H115.454C115.246 23.9495 115.07 24.0175 114.926 24.1535C114.782 24.2895 114.71 24.4735 114.71 24.7055V24.9455C114.71 25.2495 114.814 25.4775 115.022 25.6295C115.238 25.7735 115.542 25.8455 115.934 25.8455C116.39 25.8455 116.746 25.7255 117.002 25.4855C117.266 25.2375 117.398 24.8815 117.398 24.4175V20.3135H118.934V24.6215C118.934 24.9975 118.862 25.3375 118.718 25.6415C118.574 25.9455 118.37 26.2055 118.106 26.4215C117.842 26.6295 117.522 26.7935 117.146 26.9135C116.77 27.0255 116.35 27.0815 115.886 27.0815ZM121.209 23.3735L120.177 22.9535C120.209 22.5375 120.309 22.1575 120.477 21.8135C120.645 21.4695 120.869 21.1775 121.149 20.9375C121.437 20.6895 121.773 20.5015 122.157 20.3735C122.549 20.2375 122.973 20.1695 123.429 20.1695C123.909 20.1695 124.337 20.2335 124.713 20.3615C125.097 20.4895 125.421 20.6735 125.685 20.9135C125.949 21.1535 126.149 21.4455 126.285 21.7895C126.429 22.1255 126.501 22.5015 126.501 22.9175V26.9375H124.965V23.1215C124.965 22.5695 124.825 22.1455 124.545 21.8495C124.265 21.5535 123.861 21.4055 123.333 21.4055C122.917 21.4055 122.553 21.4975 122.241 21.6815C121.937 21.8575 121.725 22.0895 121.605 22.3775L122.073 22.5575C122.329 22.6535 122.505 22.7655 122.601 22.8935C122.697 23.0215 122.745 23.2135 122.745 23.4695V26.9375H121.209V23.3735ZM131.779 21.9335H131.719C131.671 22.0855 131.599 22.2335 131.503 22.3775C131.407 22.5215 131.279 22.6495 131.119 22.7615C130.967 22.8735 130.779 22.9655 130.555 23.0375C130.339 23.1015 130.083 23.1335 129.787 23.1335C129.115 23.1335 128.599 22.9575 128.239 22.6055C127.879 22.2455 127.699 21.7055 127.699 20.9855V20.3135H129.235V20.7815C129.235 21.1335 129.315 21.4095 129.475 21.6095C129.643 21.8015 129.923 21.8975 130.315 21.8975H130.483C130.651 21.8975 130.811 21.8815 130.963 21.8495C131.123 21.8095 131.263 21.7495 131.383 21.6695C131.503 21.5815 131.599 21.4655 131.671 21.3215C131.743 21.1775 131.779 20.9935 131.779 20.7695V20.3135H133.315V26.9375H131.779V21.9335Z" fill="black"/>
<circle cx="103.843" cy="37.9375" r="5" fill="#8054FF"/>
<circle opacity="0.5" cx="113.843" cy="37.9375" r="5" fill="#8054FF"/>
<circle opacity="0.5" cx="123.843" cy="37.9375" r="5" fill="#8054FF"/>
<circle opacity="0.5" cx="133.843" cy="37.9375" r="5" fill="#8054FF"/>
<circle opacity="0.5" cx="143.843" cy="37.9375" r="5" fill="#8054FF"/>
<circle opacity="0.5" cx="153.843" cy="37.9375" r="5" fill="#8054FF"/>
<circle opacity="0.5" cx="163.843" cy="37.9375" r="5" fill="#8054FF"/>
<circle opacity="0.5" cx="173.843" cy="37.9375" r="5" fill="#8054FF"/>
<circle opacity="0.5" cx="183.843" cy="37.9375" r="5" fill="#8054FF"/>
<circle opacity="0.5" cx="193.843" cy="37.9375" r="5" fill="#8054FF"/>
<circle opacity="0.5" cx="203.843" cy="37.9375" r="5" fill="#8054FF"/>
<circle opacity="0.5" cx="213.843" cy="37.9375" r="5" fill="#8054FF"/>
<circle opacity="0.5" cx="223.843" cy="37.9375" r="5" fill="#8054FF"/>
<circle opacity="0.5" cx="233.843" cy="37.9375" r="5" fill="#8054FF"/>
<path d="M224.54 4.9295H220.772L220.58 7.7375H220.664C220.752 7.5615 220.848 7.3975 220.952 7.2455C221.056 7.0935 221.176 6.9655 221.312 6.8615C221.448 6.7575 221.604 6.6775 221.78 6.6215C221.964 6.5575 222.184 6.5255 222.44 6.5255C222.8 6.5255 223.136 6.5855 223.448 6.7055C223.76 6.8255 224.028 7.0015 224.252 7.2335C224.484 7.4575 224.664 7.7335 224.792 8.0615C224.928 8.3895 224.996 8.7615 224.996 9.1775C224.996 9.6015 224.928 9.9895 224.792 10.3415C224.656 10.6935 224.456 11.0015 224.192 11.2655C223.928 11.5215 223.604 11.7215 223.22 11.8655C222.836 12.0095 222.396 12.0815 221.9 12.0815C221.516 12.0815 221.172 12.0375 220.868 11.9495C220.564 11.8695 220.296 11.7575 220.064 11.6135C219.832 11.4695 219.632 11.3055 219.464 11.1215C219.296 10.9295 219.148 10.7295 219.02 10.5215L220.172 9.6335C220.268 9.7935 220.368 9.9455 220.472 10.0895C220.576 10.2255 220.696 10.3455 220.832 10.4495C220.976 10.5535 221.132 10.6375 221.3 10.7015C221.476 10.7575 221.68 10.7855 221.912 10.7855C222.384 10.7855 222.74 10.6535 222.98 10.3895C223.228 10.1255 223.352 9.7655 223.352 9.3095V9.2135C223.352 8.7815 223.228 8.4415 222.98 8.1935C222.732 7.9455 222.388 7.8215 221.948 7.8215C221.604 7.8215 221.324 7.8895 221.108 8.0255C220.892 8.1535 220.72 8.2935 220.592 8.4455L219.296 8.2655L219.608 3.5615H224.54V4.9295ZM226.251 9.0455V7.5215H229.683V9.0455H226.251ZM231.476 11.9375V10.6535H233.78V4.7015H233.672L231.848 6.8615L230.864 6.0335L232.94 3.5615H235.328V10.6535H237.248V11.9375H231.476ZM241.179 12.0815C240.643 12.0815 240.179 11.9855 239.787 11.7935C239.395 11.5935 239.071 11.3095 238.815 10.9415C238.559 10.5735 238.367 10.1215 238.239 9.5855C238.119 9.0495 238.059 8.4375 238.059 7.7495C238.059 7.0695 238.119 6.4615 238.239 5.9255C238.367 5.3815 238.559 4.9255 238.815 4.5575C239.071 4.1895 239.395 3.9095 239.787 3.7175C240.179 3.5175 240.643 3.4175 241.179 3.4175C242.243 3.4175 243.027 3.7975 243.531 4.5575C244.043 5.3175 244.299 6.3815 244.299 7.7495C244.299 9.1175 244.043 10.1815 243.531 10.9415C243.027 11.7015 242.243 12.0815 241.179 12.0815ZM241.179 10.7495C241.715 10.7495 242.087 10.5495 242.295 10.1495C242.511 9.7415 242.619 9.1935 242.619 8.5055V6.9935C242.619 6.3055 242.511 5.7615 242.295 5.3615C242.087 4.9535 241.715 4.7495 241.179 4.7495C240.643 4.7495 240.267 4.9535 240.051 5.3615C239.843 5.7615 239.739 6.3055 239.739 6.9935V8.5055C239.739 9.1935 239.843 9.7415 240.051 10.1495C240.267 10.5495 240.643 10.7495 241.179 10.7495ZM249.074 8.3735L248.042 7.9535C248.074 7.5375 248.174 7.1575 248.342 6.8135C248.51 6.4695 248.734 6.1775 249.014 5.9375C249.302 5.6895 249.638 5.5015 250.022 5.3735C250.414 5.2375 250.838 5.1695 251.294 5.1695C251.774 5.1695 252.202 5.2335 252.578 5.3615C252.962 5.4895 253.286 5.6735 253.55 5.9135C253.814 6.1535 254.014 6.4455 254.15 6.7895C254.294 7.1255 254.366 7.5015 254.366 7.9175V11.9375H252.83V8.1215C252.83 7.5695 252.69 7.1455 252.41 6.8495C252.13 6.5535 251.726 6.4055 251.198 6.4055C250.782 6.4055 250.418 6.4975 250.106 6.6815C249.802 6.8575 249.59 7.0895 249.47 7.3775L249.938 7.5575C250.194 7.6535 250.37 7.7655 250.466 7.8935C250.562 8.0215 250.61 8.2135 250.61 8.4695V11.9375H249.074V8.3735ZM256.968 12.0695C256.64 12.0695 256.396 11.9895 256.236 11.8295C256.084 11.6615 256.008 11.4495 256.008 11.1935V10.9775C256.008 10.7215 256.084 10.5095 256.236 10.3415C256.396 10.1735 256.64 10.0895 256.968 10.0895C257.304 10.0895 257.548 10.1735 257.7 10.3415C257.852 10.5095 257.928 10.7215 257.928 10.9775V11.1935C257.928 11.4495 257.852 11.6615 257.7 11.8295C257.548 11.9895 257.304 12.0695 256.968 12.0695ZM262.114 12.0815C261.266 12.0815 260.602 11.9135 260.122 11.5775C259.642 11.2335 259.402 10.7495 259.402 10.1255C259.402 9.7415 259.514 9.4135 259.738 9.1415C259.97 8.8695 260.266 8.6815 260.626 8.5775V8.5055C260.226 8.4095 259.914 8.2215 259.69 7.9415C259.466 7.6535 259.354 7.3055 259.354 6.8975C259.354 6.6415 259.398 6.4095 259.486 6.2015C259.582 5.9855 259.71 5.8015 259.87 5.6495C260.038 5.4975 260.238 5.3815 260.47 5.3015C260.71 5.2135 260.974 5.1695 261.262 5.1695C261.446 5.1695 261.646 5.1895 261.862 5.2295C262.078 5.2615 262.274 5.3255 262.45 5.4215L262.126 6.5375C262.022 6.4815 261.922 6.4455 261.826 6.4295C261.738 6.4055 261.642 6.3935 261.538 6.3935C261.306 6.3935 261.114 6.4615 260.962 6.5975C260.81 6.7255 260.734 6.9055 260.734 7.1375C260.734 7.3695 260.802 7.5575 260.938 7.7015C261.074 7.8455 261.322 7.9175 261.682 7.9175H262.33V8.9495H261.682C261.474 8.9495 261.298 9.0175 261.154 9.1535C261.01 9.2895 260.938 9.4735 260.938 9.7055V9.9455C260.938 10.2495 261.042 10.4775 261.25 10.6295C261.466 10.7735 261.77 10.8455 262.162 10.8455C262.618 10.8455 262.974 10.7255 263.23 10.4855C263.494 10.2375 263.626 9.8815 263.626 9.4175V5.3135H265.162V9.6215C265.162 9.9975 265.09 10.3375 264.946 10.6415C264.802 10.9455 264.598 11.2055 264.334 11.4215C264.07 11.6295 263.75 11.7935 263.374 11.9135C262.998 12.0255 262.578 12.0815 262.114 12.0815ZM267.527 12.0695C267.199 12.0695 266.955 11.9895 266.795 11.8295C266.643 11.6615 266.567 11.4495 266.567 11.1935V10.9775C266.567 10.7215 266.643 10.5095 266.795 10.3415C266.955 10.1735 267.199 10.0895 267.527 10.0895C267.863 10.0895 268.107 10.1735 268.259 10.3415C268.411 10.5095 268.487 10.7215 268.487 10.9775V11.1935C268.487 11.4495 268.411 11.6615 268.259 11.8295C268.107 11.9895 267.863 12.0695 267.527 12.0695ZM207.043 26.9375C206.515 26.9375 206.127 26.8055 205.879 26.5415C205.631 26.2775 205.507 25.9055 205.507 25.4255V20.3135H207.043V25.7135H207.919V26.9375H207.043ZM211.546 27.0815C210.922 27.0815 210.39 26.9775 209.95 26.7695C209.518 26.5615 209.138 26.2655 208.81 25.8815L209.758 24.9815C209.99 25.2615 210.262 25.4815 210.574 25.6415C210.886 25.7935 211.238 25.8695 211.63 25.8695C212.038 25.8695 212.33 25.8015 212.506 25.6655C212.69 25.5295 212.782 25.3415 212.782 25.1015C212.782 24.8615 212.71 24.6855 212.566 24.5735C212.422 24.4535 212.206 24.3735 211.918 24.3335L211.27 24.2495C210.942 24.2095 210.642 24.1415 210.37 24.0455C210.098 23.9495 209.862 23.8215 209.662 23.6615C209.47 23.5015 209.318 23.3055 209.206 23.0735C209.102 22.8415 209.05 22.5695 209.05 22.2575C209.05 21.9375 209.11 21.6495 209.23 21.3935C209.358 21.1295 209.53 20.9095 209.746 20.7335C209.97 20.5495 210.234 20.4095 210.538 20.3135C210.85 20.2175 211.194 20.1695 211.57 20.1695C212.186 20.1695 212.69 20.2615 213.082 20.4455C213.474 20.6295 213.826 20.8815 214.138 21.2015L213.226 22.1135C213.042 21.9055 212.806 21.7335 212.518 21.5975C212.23 21.4535 211.918 21.3815 211.582 21.3815C211.222 21.3815 210.954 21.4535 210.778 21.5975C210.61 21.7335 210.526 21.9175 210.526 22.1495C210.526 22.3815 210.598 22.5615 210.742 22.6895C210.894 22.8095 211.138 22.8935 211.474 22.9415L212.122 23.0375C212.778 23.1335 213.298 23.3255 213.682 23.6135C214.066 23.9015 214.258 24.3535 214.258 24.9695C214.258 25.2815 214.194 25.5695 214.066 25.8335C213.938 26.0895 213.754 26.3095 213.514 26.4935C213.282 26.6775 212.998 26.8215 212.662 26.9255C212.326 27.0295 211.954 27.0815 211.546 27.0815ZM208.871 18.0575H214.223V19.2215H208.871V18.0575ZM212.915 14.5895H214.223V16.4735H212.915V14.5895ZM219.213 27.0815C218.933 27.0815 218.685 27.0455 218.469 26.9735C218.261 26.9095 218.077 26.8215 217.917 26.7095C217.765 26.5895 217.637 26.4535 217.533 26.3015C217.437 26.1495 217.361 25.9935 217.305 25.8335H217.245V26.9375H215.709V20.3135H217.245V24.7055C217.245 24.8895 217.285 25.0535 217.365 25.1975C217.445 25.3335 217.549 25.4495 217.677 25.5455C217.805 25.6335 217.949 25.7015 218.109 25.7495C218.269 25.7975 218.429 25.8215 218.589 25.8215C218.829 25.8215 219.029 25.7855 219.189 25.7135C219.349 25.6335 219.477 25.5295 219.573 25.4015C219.677 25.2655 219.749 25.1095 219.789 24.9335C219.829 24.7495 219.849 24.5535 219.849 24.3455V20.3135H221.385V24.4895C221.385 25.3215 221.197 25.9615 220.821 26.4095C220.453 26.8575 219.917 27.0815 219.213 27.0815ZM225.924 27.0815C225.476 27.0815 225.072 27.0215 224.712 26.9015C224.352 26.7735 224.044 26.5935 223.788 26.3615C223.54 26.1295 223.348 25.8495 223.212 25.5215C223.084 25.1935 223.02 24.8255 223.02 24.4175V20.3135H224.556V24.3335C224.556 24.8135 224.676 25.1855 224.916 25.4495C225.156 25.7135 225.492 25.8455 225.924 25.8455C226.356 25.8455 226.692 25.7135 226.932 25.4495C227.172 25.1855 227.292 24.8135 227.292 24.3335V18.0575H228.828V24.4175C228.828 24.8255 228.76 25.1935 228.624 25.5215C228.496 25.8495 228.304 26.1295 228.048 26.3615C227.8 26.5935 227.496 26.7735 227.136 26.9015C226.776 27.0215 226.372 27.0815 225.924 27.0815ZM232.921 27.0815C232.297 27.0815 231.765 26.9775 231.325 26.7695C230.893 26.5615 230.513 26.2655 230.185 25.8815L231.133 24.9815C231.365 25.2615 231.637 25.4815 231.949 25.6415C232.261 25.7935 232.613 25.8695 233.005 25.8695C233.413 25.8695 233.705 25.8015 233.881 25.6655C234.065 25.5295 234.157 25.3415 234.157 25.1015C234.157 24.8615 234.085 24.6855 233.941 24.5735C233.797 24.4535 233.581 24.3735 233.293 24.3335L232.645 24.2495C232.317 24.2095 232.017 24.1415 231.745 24.0455C231.473 23.9495 231.237 23.8215 231.037 23.6615C230.845 23.5015 230.693 23.3055 230.581 23.0735C230.477 22.8415 230.425 22.5695 230.425 22.2575C230.425 21.9375 230.485 21.6495 230.605 21.3935C230.733 21.1295 230.905 20.9095 231.121 20.7335C231.345 20.5495 231.609 20.4095 231.913 20.3135C232.225 20.2175 232.569 20.1695 232.945 20.1695C233.561 20.1695 234.065 20.2615 234.457 20.4455C234.849 20.6295 235.201 20.8815 235.513 21.2015L234.601 22.1135C234.417 21.9055 234.181 21.7335 233.893 21.5975C233.605 21.4535 233.293 21.3815 232.957 21.3815C232.597 21.3815 232.329 21.4535 232.153 21.5975C231.985 21.7335 231.901 21.9175 231.901 22.1495C231.901 22.3815 231.973 22.5615 232.117 22.6895C232.269 22.8095 232.513 22.8935 232.849 22.9415L233.497 23.0375C234.153 23.1335 234.673 23.3255 235.057 23.6135C235.441 23.9015 235.633 24.3535 235.633 24.9695C235.633 25.2815 235.569 25.5695 235.441 25.8335C235.313 26.0895 235.129 26.3095 234.889 26.4935C234.657 26.6775 234.373 26.8215 234.037 26.9255C233.701 27.0295 233.329 27.0815 232.921 27.0815ZM238.392 25.9175C237.936 25.9175 237.592 25.8095 237.36 25.5935C237.128 25.3775 237.012 25.0695 237.012 24.6695V23.9855H238.344V24.6455H240.288V25.9175H238.392ZM238.392 22.9295C237.936 22.9295 237.592 22.8215 237.36 22.6055C237.128 22.3895 237.012 22.0815 237.012 21.6815V20.9975H238.344V21.6575H240.288V22.9295H238.392ZM244.514 27.0815C244.106 27.0815 243.73 27.0335 243.386 26.9375C243.05 26.8415 242.762 26.6975 242.522 26.5055C242.282 26.3055 242.094 26.0575 241.958 25.7615C241.83 25.4575 241.766 25.1055 241.766 24.7055C241.766 24.4815 241.782 24.2855 241.814 24.1175C241.854 23.9415 241.898 23.7855 241.946 23.6495C242.002 23.5135 242.062 23.3895 242.126 23.2775C242.198 23.1655 242.27 23.0575 242.342 22.9535C242.462 22.7695 242.574 22.5735 242.678 22.3655C242.782 22.1575 242.834 21.9495 242.834 21.7415V21.5855H241.682V20.3135H243.038C243.446 20.3135 243.758 20.4095 243.974 20.6015C244.19 20.7935 244.298 21.0495 244.298 21.3695V21.4295C244.298 21.6775 244.258 21.9215 244.178 22.1615C244.098 22.4015 243.974 22.6775 243.806 22.9895C243.678 23.2295 243.574 23.4535 243.494 23.6615C243.414 23.8615 243.374 24.1015 243.374 24.3815V24.7295C243.374 25.0895 243.47 25.3615 243.662 25.5455C243.862 25.7215 244.134 25.8095 244.478 25.8095C244.83 25.8095 245.102 25.7215 245.294 25.5455C245.486 25.3615 245.582 25.1015 245.582 24.7655V23.8055C245.582 23.4695 245.53 23.2095 245.426 23.0255C245.33 22.8415 245.142 22.7495 244.862 22.7495H244.718V21.5975H244.958C245.174 21.5975 245.35 21.5375 245.486 21.4175C245.63 21.2895 245.702 21.0775 245.702 20.7815V20.0615H247.202V20.6615C247.202 20.9975 247.106 21.2855 246.914 21.5255C246.73 21.7655 246.414 21.9255 245.966 22.0055V22.0895C246.782 22.3455 247.19 23.0935 247.19 24.3335C247.19 24.7575 247.126 25.1415 246.998 25.4855C246.878 25.8215 246.702 26.1095 246.47 26.3495C246.238 26.5815 245.954 26.7615 245.618 26.8895C245.29 27.0175 244.922 27.0815 244.514 27.0815ZM245.845 29.2535H245.017V28.2215H246.157C246.509 28.2215 246.761 28.2975 246.913 28.4495C247.065 28.6095 247.141 28.8215 247.141 29.0855V31.1135H245.845V29.2535ZM252.26 27.0815C251.98 27.0815 251.732 27.0455 251.516 26.9735C251.308 26.9095 251.124 26.8215 250.964 26.7095C250.812 26.5895 250.684 26.4535 250.58 26.3015C250.484 26.1495 250.408 25.9935 250.352 25.8335H250.292V26.9375H248.756V20.3135H250.292V24.7055C250.292 24.8895 250.332 25.0535 250.412 25.1975C250.492 25.3335 250.596 25.4495 250.724 25.5455C250.852 25.6335 250.996 25.7015 251.156 25.7495C251.316 25.7975 251.476 25.8215 251.636 25.8215C251.876 25.8215 252.076 25.7855 252.236 25.7135C252.396 25.6335 252.524 25.5295 252.62 25.4015C252.724 25.2655 252.796 25.1095 252.836 24.9335C252.876 24.7495 252.896 24.5535 252.896 24.3455V20.3135H254.432V24.4895C254.432 25.3215 254.244 25.9615 253.868 26.4095C253.5 26.8575 252.964 27.0815 252.26 27.0815ZM258.903 22.9295C258.903 22.5135 258.975 22.1375 259.119 21.8015C259.263 21.4575 259.471 21.1655 259.743 20.9255C260.015 20.6855 260.343 20.5015 260.727 20.3735C261.119 20.2375 261.559 20.1695 262.047 20.1695C262.527 20.1695 262.959 20.2375 263.343 20.3735C263.735 20.5015 264.067 20.6855 264.339 20.9255C264.611 21.1655 264.819 21.4575 264.963 21.8015C265.115 22.1375 265.191 22.5135 265.191 22.9295V26.9375H263.655V23.0135C263.655 22.5015 263.511 22.1055 263.223 21.8255C262.943 21.5455 262.551 21.4055 262.047 21.4055C261.543 21.4055 261.147 21.5455 260.859 21.8255C260.579 22.1055 260.439 22.5015 260.439 23.0135V24.4775H260.499C260.539 24.3095 260.599 24.1495 260.679 23.9975C260.767 23.8375 260.879 23.6975 261.015 23.5775C261.151 23.4575 261.311 23.3615 261.495 23.2895C261.687 23.2095 261.907 23.1695 262.155 23.1695H262.491V24.6215H262.011C261.499 24.6215 261.107 24.7015 260.835 24.8615C260.571 25.0135 260.439 25.2695 260.439 25.6295V26.9375H258.903V22.9295ZM269.285 27.0815C268.661 27.0815 268.129 26.9775 267.689 26.7695C267.257 26.5615 266.877 26.2655 266.549 25.8815L267.497 24.9815C267.729 25.2615 268.001 25.4815 268.313 25.6415C268.625 25.7935 268.977 25.8695 269.369 25.8695C269.777 25.8695 270.069 25.8015 270.245 25.6655C270.429 25.5295 270.521 25.3415 270.521 25.1015C270.521 24.8615 270.449 24.6855 270.305 24.5735C270.161 24.4535 269.945 24.3735 269.657 24.3335L269.009 24.2495C268.681 24.2095 268.381 24.1415 268.109 24.0455C267.837 23.9495 267.601 23.8215 267.401 23.6615C267.209 23.5015 267.057 23.3055 266.945 23.0735C266.841 22.8415 266.789 22.5695 266.789 22.2575C266.789 21.9375 266.849 21.6495 266.969 21.3935C267.097 21.1295 267.269 20.9095 267.485 20.7335C267.709 20.5495 267.973 20.4095 268.277 20.3135C268.589 20.2175 268.933 20.1695 269.309 20.1695C269.925 20.1695 270.429 20.2615 270.821 20.4455C271.213 20.6295 271.565 20.8815 271.877 21.2015L270.965 22.1135C270.781 21.9055 270.545 21.7335 270.257 21.5975C269.969 21.4535 269.657 21.3815 269.321 21.3815C268.961 21.3815 268.693 21.4535 268.517 21.5975C268.349 21.7335 268.265 21.9175 268.265 22.1495C268.265 22.3815 268.337 22.5615 268.481 22.6895C268.633 22.8095 268.877 22.8935 269.213 22.9415L269.861 23.0375C270.517 23.1335 271.037 23.3255 271.421 23.6135C271.805 23.9015 271.997 24.3535 271.997 24.9695C271.997 25.2815 271.933 25.5695 271.805 25.8335C271.677 26.0895 271.493 26.3095 271.253 26.4935C271.021 26.6775 270.737 26.8215 270.401 26.9255C270.065 27.0295 269.693 27.0815 269.285 27.0815ZM276.951 27.0815C276.671 27.0815 276.423 27.0455 276.207 26.9735C275.999 26.9095 275.815 26.8215 275.655 26.7095C275.503 26.5895 275.375 26.4535 275.271 26.3015C275.175 26.1495 275.099 25.9935 275.043 25.8335H274.983V26.9375H273.447V20.3135H274.983V24.7055C274.983 24.8895 275.023 25.0535 275.103 25.1975C275.183 25.3335 275.287 25.4495 275.415 25.5455C275.543 25.6335 275.687 25.7015 275.847 25.7495C276.007 25.7975 276.167 25.8215 276.327 25.8215C276.567 25.8215 276.767 25.7855 276.927 25.7135C277.087 25.6335 277.215 25.5295 277.311 25.4015C277.415 25.2655 277.487 25.1095 277.527 24.9335C277.567 24.7495 277.587 24.5535 277.587 24.3455V20.3135H279.123V24.4895C279.123 25.3215 278.935 25.9615 278.559 26.4095C278.191 26.8575 277.655 27.0815 276.951 27.0815ZM281.496 27.0695C281.168 27.0695 280.924 26.9895 280.764 26.8295C280.612 26.6615 280.536 26.4495 280.536 26.1935V25.9775C280.536 25.7215 280.612 25.5095 280.764 25.3415C280.924 25.1735 281.168 25.0895 281.496 25.0895C281.832 25.0895 282.076 25.1735 282.228 25.3415C282.38 25.5095 282.456 25.7215 282.456 25.9775V26.1935C282.456 26.4495 282.38 26.6615 282.228 26.8295C282.076 26.9895 281.832 27.0695 281.496 27.0695Z" fill="black"/>
<circle cx="243.843" cy="37.9375" r="5" fill="#8054FF"/>
<circle cx="10" cy="51.9375" r="5" fill="#2BB25C"/>
<path d="M6.092 69.9375V68.6535H8.396V62.7015H8.288L6.464 64.8615L5.48 64.0335L7.556 61.5615H9.944V68.6535H11.864V69.9375H6.092ZM15.3393 64.9455C15.8193 64.9455 16.1713 64.8495 16.3953 64.6575C16.6273 64.4575 16.7433 64.2055 16.7433 63.9015V63.8175C16.7433 63.4735 16.6313 63.2055 16.4073 63.0135C16.1913 62.8135 15.8913 62.7135 15.5073 62.7135C15.1393 62.7135 14.8113 62.8015 14.5233 62.9775C14.2433 63.1535 13.9993 63.4015 13.7913 63.7215L12.7833 62.8095C12.9273 62.6175 13.0833 62.4375 13.2513 62.2695C13.4273 62.0935 13.6273 61.9455 13.8513 61.8255C14.0753 61.6975 14.3273 61.5975 14.6073 61.5255C14.8873 61.4535 15.2033 61.4175 15.5553 61.4175C15.9793 61.4175 16.3633 61.4695 16.7073 61.5735C17.0593 61.6695 17.3593 61.8135 17.6073 62.0055C17.8633 62.1975 18.0593 62.4295 18.1953 62.7015C18.3313 62.9655 18.3993 63.2655 18.3993 63.6015C18.3993 63.8735 18.3553 64.1175 18.2673 64.3335C18.1873 64.5495 18.0713 64.7375 17.9193 64.8975C17.7753 65.0575 17.6033 65.1895 17.4033 65.2935C17.2113 65.3895 17.0073 65.4615 16.7913 65.5095V65.5815C17.0313 65.6295 17.2593 65.7055 17.4753 65.8095C17.6913 65.9135 17.8753 66.0535 18.0273 66.2295C18.1873 66.3975 18.3113 66.5975 18.3993 66.8295C18.4953 67.0615 18.5433 67.3255 18.5433 67.6215C18.5433 67.9895 18.4673 68.3255 18.3153 68.6295C18.1713 68.9335 17.9633 69.1935 17.6913 69.4095C17.4193 69.6255 17.0953 69.7935 16.7193 69.9135C16.3433 70.0255 15.9233 70.0815 15.4593 70.0815C15.0513 70.0815 14.6913 70.0375 14.3793 69.9495C14.0673 69.8695 13.7913 69.7575 13.5513 69.6135C13.3193 69.4695 13.1153 69.3055 12.9393 69.1215C12.7633 68.9295 12.6113 68.7295 12.4833 68.5215L13.6473 67.6335C13.7433 67.8015 13.8473 67.9575 13.9593 68.1015C14.0713 68.2375 14.1993 68.3575 14.3433 68.4615C14.4873 68.5655 14.6513 68.6455 14.8353 68.7015C15.0193 68.7575 15.2273 68.7855 15.4593 68.7855C15.9233 68.7855 16.2793 68.6735 16.5273 68.4495C16.7753 68.2255 16.8993 67.9175 16.8993 67.5255V67.4415C16.8993 67.0575 16.7633 66.7655 16.4913 66.5655C16.2273 66.3655 15.8433 66.2655 15.3393 66.2655H14.5113V64.9455H15.3393ZM24.9866 70.0575C24.3386 70.0575 23.8226 69.9015 23.4386 69.5895C23.0546 69.2695 22.8626 68.7775 22.8626 68.1135C22.8626 67.4895 23.0466 67.0095 23.4146 66.6735C23.7826 66.3375 24.3066 66.1695 24.9866 66.1695H27.0026V65.7375C27.0026 65.3055 26.8866 64.9775 26.6546 64.7535C26.4226 64.5215 26.0546 64.4055 25.5506 64.4055C25.0786 64.4055 24.6986 64.5095 24.4106 64.7175C24.1226 64.9175 23.8866 65.1535 23.7026 65.4255L22.7306 64.5735C22.8666 64.3655 23.0226 64.1775 23.1986 64.0095C23.3826 63.8335 23.5906 63.6855 23.8226 63.5655C24.0626 63.4375 24.3306 63.3415 24.6266 63.2775C24.9306 63.2055 25.2706 63.1695 25.6466 63.1695C26.4226 63.1695 27.0586 63.3255 27.5546 63.6375C27.5946 63.4055 27.6906 63.2415 27.8426 63.1455C28.0026 63.0415 28.2066 62.9895 28.4546 62.9895H29.8586V64.2615H28.1786V64.3095C28.4186 64.6695 28.5386 65.1255 28.5386 65.6775V69.9375H27.0026V67.1655H25.5026C24.7906 67.1655 24.4346 67.4495 24.4346 68.0175V68.2455C24.4346 68.5255 24.5146 68.7455 24.6746 68.9055C24.8346 69.0655 25.0546 69.1455 25.3346 69.1455C25.4626 69.1455 25.5746 69.1335 25.6706 69.1095L25.7786 69.9735C25.7146 69.9975 25.5986 70.0175 25.4306 70.0335C25.2626 70.0495 25.1146 70.0575 24.9866 70.0575ZM31.2802 70.0695C30.9522 70.0695 30.7082 69.9895 30.5482 69.8295C30.3962 69.6615 30.3202 69.4495 30.3202 69.1935V68.9775C30.3202 68.7215 30.3962 68.5095 30.5482 68.3415C30.7082 68.1735 30.9522 68.0895 31.2802 68.0895C31.6162 68.0895 31.8602 68.1735 32.0122 68.3415C32.1642 68.5095 32.2402 68.7215 32.2402 68.9775V69.1935C32.2402 69.4495 32.1642 69.6615 32.0122 69.8295C31.8602 69.9895 31.6162 70.0695 31.2802 70.0695ZM33.8941 65.9295C33.8941 65.5135 33.9661 65.1375 34.1101 64.8015C34.2541 64.4575 34.4621 64.1655 34.7341 63.9255C35.0061 63.6855 35.3341 63.5015 35.7181 63.3735C36.1101 63.2375 36.5501 63.1695 37.0381 63.1695C37.5181 63.1695 37.9501 63.2375 38.3341 63.3735C38.7261 63.5015 39.0581 63.6855 39.3301 63.9255C39.6021 64.1655 39.8101 64.4575 39.9541 64.8015C40.1061 65.1375 40.1821 65.5135 40.1821 65.9295V69.9375H38.6461V66.0135C38.6461 65.5015 38.5021 65.1055 38.2141 64.8255C37.9341 64.5455 37.5421 64.4055 37.0381 64.4055C36.5341 64.4055 36.1381 64.5455 35.8501 64.8255C35.5701 65.1055 35.4301 65.5015 35.4301 66.0135V67.4775H35.4901C35.5301 67.3095 35.5901 67.1495 35.6701 66.9975C35.7581 66.8375 35.8701 66.6975 36.0061 66.5775C36.1421 66.4575 36.3021 66.3615 36.4861 66.2895C36.6781 66.2095 36.8981 66.1695 37.1461 66.1695H37.4821V67.6215H37.0021C36.4901 67.6215 36.0981 67.7015 35.8261 67.8615C35.5621 68.0135 35.4301 68.2695 35.4301 68.6295V69.9375H33.8941V65.9295ZM42.788 70.0695C42.46 70.0695 42.216 69.9895 42.056 69.8295C41.904 69.6615 41.828 69.4495 41.828 69.1935V68.9775C41.828 68.7215 41.904 68.5095 42.056 68.3415C42.216 68.1735 42.46 68.0895 42.788 68.0895C43.124 68.0895 43.368 68.1735 43.52 68.3415C43.672 68.5095 43.748 68.7215 43.748 68.9775V69.1935C43.748 69.4495 43.672 69.6615 43.52 69.8295C43.368 69.9895 43.124 70.0695 42.788 70.0695ZM7.652 84.9375C7.124 84.9375 6.736 84.8055 6.488 84.5415C6.24 84.2775 6.116 83.9055 6.116 83.4255V78.3135H7.652V83.7135H8.528V84.9375H7.652ZM12.1549 85.0815C11.5309 85.0815 10.9989 84.9775 10.5589 84.7695C10.1269 84.5615 9.74691 84.2655 9.41891 83.8815L10.3669 82.9815C10.5989 83.2615 10.8709 83.4815 11.1829 83.6415C11.4949 83.7935 11.8469 83.8695 12.2389 83.8695C12.6469 83.8695 12.9389 83.8015 13.1149 83.6655C13.2989 83.5295 13.3909 83.3415 13.3909 83.1015C13.3909 82.8615 13.3189 82.6855 13.1749 82.5735C13.0309 82.4535 12.8149 82.3735 12.5269 82.3335L11.8789 82.2495C11.5509 82.2095 11.2509 82.1415 10.9789 82.0455C10.7069 81.9495 10.4709 81.8215 10.2709 81.6615C10.0789 81.5015 9.92691 81.3055 9.81491 81.0735C9.71091 80.8415 9.65891 80.5695 9.65891 80.2575C9.65891 79.9375 9.71891 79.6495 9.83891 79.3935C9.96691 79.1295 10.1389 78.9095 10.3549 78.7335C10.5789 78.5495 10.8429 78.4095 11.1469 78.3135C11.4589 78.2175 11.8029 78.1695 12.1789 78.1695C12.7949 78.1695 13.2989 78.2615 13.6909 78.4455C14.0829 78.6295 14.4349 78.8815 14.7469 79.2015L13.8349 80.1135C13.6509 79.9055 13.4149 79.7335 13.1269 79.5975C12.8389 79.4535 12.5269 79.3815 12.1909 79.3815C11.8309 79.3815 11.5629 79.4535 11.3869 79.5975C11.2189 79.7335 11.1349 79.9175 11.1349 80.1495C11.1349 80.3815 11.2069 80.5615 11.3509 80.6895C11.5029 80.8095 11.7469 80.8935 12.0829 80.9415L12.7309 81.0375C13.3869 81.1335 13.9069 81.3255 14.2909 81.6135C14.6749 81.9015 14.8669 82.3535 14.8669 82.9695C14.8669 83.2815 14.8029 83.5695 14.6749 83.8335C14.5469 84.0895 14.3629 84.3095 14.1229 84.4935C13.8909 84.6775 13.6069 84.8215 13.2709 84.9255C12.9349 85.0295 12.5629 85.0815 12.1549 85.0815ZM9.48003 76.0575H14.832V77.2215H9.48003V76.0575ZM13.524 72.5895H14.832V74.4735H13.524V72.5895ZM19.8217 85.0815C19.5417 85.0815 19.2937 85.0455 19.0777 84.9735C18.8697 84.9095 18.6857 84.8215 18.5257 84.7095C18.3737 84.5895 18.2457 84.4535 18.1417 84.3015C18.0457 84.1495 17.9697 83.9935 17.9137 83.8335H17.8537V84.9375H16.3177V78.3135H17.8537V82.7055C17.8537 82.8895 17.8937 83.0535 17.9737 83.1975C18.0537 83.3335 18.1577 83.4495 18.2857 83.5455C18.4137 83.6335 18.5577 83.7015 18.7177 83.7495C18.8777 83.7975 19.0377 83.8215 19.1977 83.8215C19.4377 83.8215 19.6377 83.7855 19.7977 83.7135C19.9577 83.6335 20.0857 83.5295 20.1817 83.4015C20.2857 83.2655 20.3577 83.1095 20.3977 82.9335C20.4377 82.7495 20.4577 82.5535 20.4577 82.3455V78.3135H21.9937V82.4895C21.9937 83.3215 21.8057 83.9615 21.4297 84.4095C21.0617 84.8575 20.5257 85.0815 19.8217 85.0815ZM25.5725 85.0575C24.9245 85.0575 24.4085 84.9015 24.0245 84.5895C23.6405 84.2695 23.4485 83.7775 23.4485 83.1135C23.4485 82.4895 23.6325 82.0095 24.0005 81.6735C24.3685 81.3375 24.8925 81.1695 25.5725 81.1695H27.5885V80.7375C27.5885 80.3055 27.4725 79.9775 27.2405 79.7535C27.0085 79.5215 26.6405 79.4055 26.1365 79.4055C25.6645 79.4055 25.2845 79.5095 24.9965 79.7175C24.7085 79.9175 24.4725 80.1535 24.2885 80.4255L23.3165 79.5735C23.4525 79.3655 23.6085 79.1775 23.7845 79.0095C23.9685 78.8335 24.1765 78.6855 24.4085 78.5655C24.6485 78.4375 24.9165 78.3415 25.2125 78.2775C25.5165 78.2055 25.8565 78.1695 26.2325 78.1695C27.1845 78.1695 27.9045 78.3855 28.3925 78.8175C28.8805 79.2495 29.1245 79.8695 29.1245 80.6775V84.9375H27.5885V82.1655H26.0885C25.3765 82.1655 25.0205 82.4495 25.0205 83.0175V83.2455C25.0205 83.5255 25.1005 83.7455 25.2605 83.9055C25.4205 84.0655 25.6405 84.1455 25.9205 84.1455C26.0485 84.1455 26.1605 84.1335 26.2565 84.1095L26.3645 84.9735C26.3005 84.9975 26.1845 85.0175 26.0165 85.0335C25.8485 85.0495 25.7005 85.0575 25.5725 85.0575ZM27.6649 74.8095H29.0809V77.2215H27.6649V74.8095ZM33.5643 80.5095C33.5643 80.1575 33.4723 79.8855 33.2883 79.6935C33.1123 79.5015 32.8283 79.4055 32.4363 79.4055C32.0763 79.4055 31.7883 79.4815 31.5723 79.6335C31.3643 79.7855 31.1883 79.9735 31.0443 80.1975L30.1323 79.3815C30.3643 79.0135 30.6643 78.7215 31.0323 78.5055C31.4083 78.2815 31.9123 78.1695 32.5443 78.1695C33.3843 78.1695 34.0203 78.3655 34.4523 78.7575C34.8843 79.1415 35.1003 79.6975 35.1003 80.4255V84.9375H33.5643V80.5095ZM39.1901 85.0815C38.5661 85.0815 38.0341 84.9775 37.5941 84.7695C37.1621 84.5615 36.7821 84.2655 36.4541 83.8815L37.4021 82.9815C37.6341 83.2615 37.9061 83.4815 38.2181 83.6415C38.5301 83.7935 38.8821 83.8695 39.2741 83.8695C39.6821 83.8695 39.9741 83.8015 40.1501 83.6655C40.3341 83.5295 40.4261 83.3415 40.4261 83.1015C40.4261 82.8615 40.3541 82.6855 40.2101 82.5735C40.0661 82.4535 39.8501 82.3735 39.5621 82.3335L38.9141 82.2495C38.5861 82.2095 38.2861 82.1415 38.0141 82.0455C37.7421 81.9495 37.5061 81.8215 37.3061 81.6615C37.1141 81.5015 36.9621 81.3055 36.8501 81.0735C36.7461 80.8415 36.6941 80.5695 36.6941 80.2575C36.6941 79.9375 36.7541 79.6495 36.8741 79.3935C37.0021 79.1295 37.1741 78.9095 37.3901 78.7335C37.6141 78.5495 37.8781 78.4095 38.1821 78.3135C38.4941 78.2175 38.8381 78.1695 39.2141 78.1695C39.8301 78.1695 40.3341 78.2615 40.7261 78.4455C41.1181 78.6295 41.4701 78.8815 41.7821 79.2015L40.8701 80.1135C40.6861 79.9055 40.4501 79.7335 40.1621 79.5975C39.8741 79.4535 39.5621 79.3815 39.2261 79.3815C38.8661 79.3815 38.5981 79.4535 38.4221 79.5975C38.2541 79.7335 38.1701 79.9175 38.1701 80.1495C38.1701 80.3815 38.2421 80.5615 38.3861 80.6895C38.5381 80.8095 38.7821 80.8935 39.1181 80.9415L39.7661 81.0375C40.4221 81.1335 40.9421 81.3255 41.3261 81.6135C41.7101 81.9015 41.9021 82.3535 41.9021 82.9695C41.9021 83.2815 41.8381 83.5695 41.7101 83.8335C41.5821 84.0895 41.3981 84.3095 41.1581 84.4935C40.9261 84.6775 40.6421 84.8215 40.3061 84.9255C39.9701 85.0295 39.5981 85.0815 39.1901 85.0815ZM46.2088 80.5095C46.2088 80.1575 46.1168 79.8855 45.9328 79.6935C45.7568 79.5015 45.4728 79.4055 45.0808 79.4055C44.7208 79.4055 44.4328 79.4815 44.2168 79.6335C44.0088 79.7855 43.8328 79.9735 43.6888 80.1975L42.7768 79.3815C43.0088 79.0135 43.3088 78.7215 43.6768 78.5055C44.0528 78.2815 44.5568 78.1695 45.1888 78.1695C46.0288 78.1695 46.6648 78.3655 47.0968 78.7575C47.5288 79.1415 47.7448 79.6975 47.7448 80.4255V84.9375H46.2088V80.5095ZM51.9066 85.0815C51.0586 85.0815 50.3946 84.9135 49.9146 84.5775C49.4346 84.2335 49.1946 83.7495 49.1946 83.1255C49.1946 82.7415 49.3066 82.4135 49.5306 82.1415C49.7626 81.8695 50.0586 81.6815 50.4186 81.5775V81.5055C50.0186 81.4095 49.7066 81.2215 49.4826 80.9415C49.2586 80.6535 49.1466 80.3055 49.1466 79.8975C49.1466 79.6415 49.1906 79.4095 49.2786 79.2015C49.3746 78.9855 49.5026 78.8015 49.6626 78.6495C49.8306 78.4975 50.0306 78.3815 50.2626 78.3015C50.5026 78.2135 50.7666 78.1695 51.0546 78.1695C51.2386 78.1695 51.4386 78.1895 51.6546 78.2295C51.8706 78.2615 52.0666 78.3255 52.2426 78.4215L51.9186 79.5375C51.8146 79.4815 51.7146 79.4455 51.6186 79.4295C51.5306 79.4055 51.4346 79.3935 51.3306 79.3935C51.0986 79.3935 50.9066 79.4615 50.7546 79.5975C50.6026 79.7255 50.5266 79.9055 50.5266 80.1375C50.5266 80.3695 50.5946 80.5575 50.7306 80.7015C50.8666 80.8455 51.1146 80.9175 51.4746 80.9175H52.1226V81.9495H51.4746C51.2666 81.9495 51.0906 82.0175 50.9466 82.1535C50.8026 82.2895 50.7306 82.4735 50.7306 82.7055V82.9455C50.7306 83.2495 50.8346 83.4775 51.0426 83.6295C51.2586 83.7735 51.5626 83.8455 51.9546 83.8455C52.4106 83.8455 52.7666 83.7255 53.0226 83.4855C53.2866 83.2375 53.4186 82.8815 53.4186 82.4175V78.3135H54.9546V82.6215C54.9546 82.9975 54.8826 83.3375 54.7386 83.6415C54.5946 83.9455 54.3906 84.2055 54.1266 84.4215C53.8626 84.6295 53.5426 84.7935 53.1666 84.9135C52.7906 85.0255 52.3706 85.0815 51.9066 85.0815ZM59.1736 85.0815C58.7656 85.0815 58.3896 85.0335 58.0456 84.9375C57.7096 84.8415 57.4216 84.6975 57.1816 84.5055C56.9416 84.3055 56.7536 84.0575 56.6176 83.7615C56.4896 83.4575 56.4256 83.1055 56.4256 82.7055C56.4256 82.4815 56.4416 82.2855 56.4736 82.1175C56.5136 81.9415 56.5576 81.7855 56.6056 81.6495C56.6616 81.5135 56.7216 81.3895 56.7856 81.2775C56.8576 81.1655 56.9296 81.0575 57.0016 80.9535C57.1216 80.7695 57.2336 80.5735 57.3376 80.3655C57.4416 80.1575 57.4936 79.9495 57.4936 79.7415V79.5855H56.3416V78.3135H57.6976C58.1056 78.3135 58.4176 78.4095 58.6336 78.6015C58.8496 78.7935 58.9576 79.0495 58.9576 79.3695V79.4295C58.9576 79.6775 58.9176 79.9215 58.8376 80.1615C58.7576 80.4015 58.6336 80.6775 58.4656 80.9895C58.3376 81.2295 58.2336 81.4535 58.1536 81.6615C58.0736 81.8615 58.0336 82.1015 58.0336 82.3815V82.7295C58.0336 83.0895 58.1296 83.3615 58.3216 83.5455C58.5216 83.7215 58.7936 83.8095 59.1376 83.8095C59.4896 83.8095 59.7616 83.7215 59.9536 83.5455C60.1456 83.3615 60.2416 83.1015 60.2416 82.7655V81.8055C60.2416 81.4695 60.1896 81.2095 60.0856 81.0255C59.9896 80.8415 59.8016 80.7495 59.5216 80.7495H59.3776V79.5975H59.6176C59.8336 79.5975 60.0096 79.5375 60.1456 79.4175C60.2896 79.2895 60.3616 79.0775 60.3616 78.7815V78.0615H61.8616V78.6615C61.8616 78.9975 61.7656 79.2855 61.5736 79.5255C61.3896 79.7655 61.0736 79.9255 60.6256 80.0055V80.0895C61.4416 80.3455 61.8496 81.0935 61.8496 82.3335C61.8496 82.7575 61.7856 83.1415 61.6576 83.4855C61.5376 83.8215 61.3616 84.1095 61.1296 84.3495C60.8976 84.5815 60.6136 84.7615 60.2776 84.8895C59.9496 85.0175 59.5816 85.0815 59.1736 85.0815ZM56.5074 76.0575H58.5354V75.0615H59.7354V76.1895H60.6594V75.0615H61.8594V77.2215H56.5074V76.0575ZM60.5514 72.5895H61.8594V74.4735H60.5514V72.5895ZM65.9142 85.0815C65.4982 85.0815 65.1142 85.0255 64.7622 84.9135C64.4102 84.7935 64.1062 84.6335 63.8502 84.4335C63.5942 84.2255 63.3942 83.9815 63.2502 83.7015C63.1062 83.4135 63.0342 83.0975 63.0342 82.7535V82.1535C63.0342 81.8495 63.1102 81.6135 63.2622 81.4455C63.4222 81.2695 63.6742 81.1815 64.0182 81.1815H65.4102V82.3455H64.4382V82.6335C64.4382 83.0495 64.5742 83.3655 64.8462 83.5815C65.1182 83.7895 65.4942 83.8935 65.9742 83.8935C66.4382 83.8935 66.7982 83.7415 67.0542 83.4375C67.3102 83.1335 67.4382 82.7135 67.4382 82.1775V81.1095C67.4382 80.5735 67.2942 80.1575 67.0062 79.8615C66.7182 79.5575 66.3142 79.4055 65.7942 79.4055C65.3302 79.4055 64.9302 79.5055 64.5942 79.7055C64.2662 79.9055 64.0222 80.1255 63.8622 80.3655L62.9262 79.5255C63.1582 79.1415 63.5182 78.8215 64.0062 78.5655C64.5022 78.3015 65.1182 78.1695 65.8542 78.1695C66.3582 78.1695 66.8062 78.2495 67.1982 78.4095C67.5902 78.5615 67.9222 78.7895 68.1942 79.0935C68.4742 79.3895 68.6862 79.7535 68.8302 80.1855C68.9742 80.6095 69.0462 81.0895 69.0462 81.6255C69.0462 82.7055 68.7742 83.5535 68.2302 84.1695C67.6862 84.7775 66.9142 85.0815 65.9142 85.0815Z" fill="black"/>
<circle opacity="0.5" cx="20" cy="51.9375" r="5" fill="#2BB25C"/>
<circle opacity="0.5" cx="30" cy="51.9375" r="5" fill="#2BB25C"/>
<circle opacity="0.5" cx="40" cy="51.9375" r="5" fill="#2BB25C"/>
<circle opacity="0.5" cx="50" cy="51.9375" r="5" fill="#2BB25C"/>
<circle opacity="0.5" cx="60" cy="51.9375" r="5" fill="#2BB25C"/>
<circle opacity="0.5" cx="70" cy="51.9375" r="5" fill="#2BB25C"/>
<circle opacity="0.5" cx="80" cy="51.9375" r="5" fill="#2BB25C"/>
<circle opacity="0.5" cx="90" cy="51.9375" r="5" fill="#2BB25C"/>
<circle opacity="0.5" cx="100" cy="51.9375" r="5" fill="#2BB25C"/>
<circle opacity="0.5" cx="110" cy="51.9375" r="5" fill="#2BB25C"/>
<circle opacity="0.5" cx="120" cy="51.9375" r="5" fill="#2BB25C"/>
<circle cx="130" cy="51.9375" r="5" fill="#2BB25C"/>
<path d="M131.552 69.9375H125.744V68.4735L128.372 66.1695C128.82 65.7775 129.148 65.4255 129.356 65.1135C129.564 64.7935 129.668 64.4495 129.668 64.0815V63.9255C129.668 63.5575 129.548 63.2775 129.308 63.0855C129.068 62.8855 128.776 62.7855 128.432 62.7855C128 62.7855 127.672 62.9095 127.448 63.1575C127.224 63.3975 127.064 63.6895 126.968 64.0335L125.6 63.5055C125.688 63.2255 125.812 62.9615 125.972 62.7135C126.132 62.4575 126.332 62.2335 126.572 62.0415C126.82 61.8495 127.108 61.6975 127.436 61.5855C127.764 61.4735 128.14 61.4175 128.564 61.4175C129.004 61.4175 129.396 61.4815 129.74 61.6095C130.084 61.7295 130.372 61.9015 130.604 62.1255C130.844 62.3495 131.024 62.6135 131.144 62.9175C131.272 63.2215 131.336 63.5535 131.336 63.9135C131.336 64.2655 131.28 64.5855 131.168 64.8735C131.056 65.1615 130.904 65.4375 130.712 65.7015C130.52 65.9575 130.296 66.2055 130.04 66.4455C129.784 66.6775 129.512 66.9135 129.224 67.1535L127.46 68.6055H131.552V69.9375ZM138.375 62.9295H134.607L134.415 65.7375H134.499C134.587 65.5615 134.683 65.3975 134.787 65.2455C134.891 65.0935 135.011 64.9655 135.147 64.8615C135.283 64.7575 135.439 64.6775 135.615 64.6215C135.799 64.5575 136.019 64.5255 136.275 64.5255C136.635 64.5255 136.971 64.5855 137.283 64.7055C137.595 64.8255 137.863 65.0015 138.087 65.2335C138.319 65.4575 138.499 65.7335 138.627 66.0615C138.763 66.3895 138.831 66.7615 138.831 67.1775C138.831 67.6015 138.763 67.9895 138.627 68.3415C138.491 68.6935 138.291 69.0015 138.027 69.2655C137.763 69.5215 137.439 69.7215 137.055 69.8655C136.671 70.0095 136.231 70.0815 135.735 70.0815C135.351 70.0815 135.007 70.0375 134.703 69.9495C134.399 69.8695 134.131 69.7575 133.899 69.6135C133.667 69.4695 133.467 69.3055 133.299 69.1215C133.131 68.9295 132.983 68.7295 132.855 68.5215L134.007 67.6335C134.103 67.7935 134.203 67.9455 134.307 68.0895C134.411 68.2255 134.531 68.3455 134.667 68.4495C134.811 68.5535 134.967 68.6375 135.135 68.7015C135.311 68.7575 135.515 68.7855 135.747 68.7855C136.219 68.7855 136.575 68.6535 136.815 68.3895C137.063 68.1255 137.187 67.7655 137.187 67.3095V67.2135C137.187 66.7815 137.063 66.4415 136.815 66.1935C136.567 65.9455 136.223 65.8215 135.783 65.8215C135.439 65.8215 135.159 65.8895 134.943 66.0255C134.727 66.1535 134.555 66.2935 134.427 66.4455L133.131 66.2655L133.443 61.5615H138.375V62.9295ZM144.987 70.0575C144.339 70.0575 143.823 69.9015 143.439 69.5895C143.055 69.2695 142.863 68.7775 142.863 68.1135C142.863 67.4895 143.047 67.0095 143.415 66.6735C143.783 66.3375 144.307 66.1695 144.987 66.1695H147.003V65.7375C147.003 65.3055 146.887 64.9775 146.655 64.7535C146.423 64.5215 146.055 64.4055 145.551 64.4055C145.079 64.4055 144.699 64.5095 144.411 64.7175C144.123 64.9175 143.887 65.1535 143.703 65.4255L142.731 64.5735C142.867 64.3655 143.023 64.1775 143.199 64.0095C143.383 63.8335 143.591 63.6855 143.823 63.5655C144.063 63.4375 144.331 63.3415 144.627 63.2775C144.931 63.2055 145.271 63.1695 145.647 63.1695C146.423 63.1695 147.059 63.3255 147.555 63.6375C147.595 63.4055 147.691 63.2415 147.843 63.1455C148.003 63.0415 148.207 62.9895 148.455 62.9895H149.859V64.2615H148.179V64.3095C148.419 64.6695 148.539 65.1255 148.539 65.6775V69.9375H147.003V67.1655H145.503C144.791 67.1655 144.435 67.4495 144.435 68.0175V68.2455C144.435 68.5255 144.515 68.7455 144.675 68.9055C144.835 69.0655 145.055 69.1455 145.335 69.1455C145.463 69.1455 145.575 69.1335 145.671 69.1095L145.779 69.9735C145.715 69.9975 145.599 70.0175 145.431 70.0335C145.263 70.0495 145.115 70.0575 144.987 70.0575ZM151.28 70.0695C150.952 70.0695 150.708 69.9895 150.548 69.8295C150.396 69.6615 150.32 69.4495 150.32 69.1935V68.9775C150.32 68.7215 150.396 68.5095 150.548 68.3415C150.708 68.1735 150.952 68.0895 151.28 68.0895C151.616 68.0895 151.86 68.1735 152.012 68.3415C152.164 68.5095 152.24 68.7215 152.24 68.9775V69.1935C152.24 69.4495 152.164 69.6615 152.012 69.8295C151.86 69.9895 151.616 70.0695 151.28 70.0695ZM153.894 65.9295C153.894 65.5135 153.966 65.1375 154.11 64.8015C154.254 64.4575 154.462 64.1655 154.734 63.9255C155.006 63.6855 155.334 63.5015 155.718 63.3735C156.11 63.2375 156.55 63.1695 157.038 63.1695C157.518 63.1695 157.95 63.2375 158.334 63.3735C158.726 63.5015 159.058 63.6855 159.33 63.9255C159.602 64.1655 159.81 64.4575 159.954 64.8015C160.106 65.1375 160.182 65.5135 160.182 65.9295V69.9375H158.646V66.0135C158.646 65.5015 158.502 65.1055 158.214 64.8255C157.934 64.5455 157.542 64.4055 157.038 64.4055C156.534 64.4055 156.138 64.5455 155.85 64.8255C155.57 65.1055 155.43 65.5015 155.43 66.0135V67.4775H155.49C155.53 67.3095 155.59 67.1495 155.67 66.9975C155.758 66.8375 155.87 66.6975 156.006 66.5775C156.142 66.4575 156.302 66.3615 156.486 66.2895C156.678 66.2095 156.898 66.1695 157.146 66.1695H157.482V67.6215H157.002C156.49 67.6215 156.098 67.7015 155.826 67.8615C155.562 68.0135 155.43 68.2695 155.43 68.6295V69.9375H153.894V65.9295ZM162.788 70.0695C162.46 70.0695 162.216 69.9895 162.056 69.8295C161.904 69.6615 161.828 69.4495 161.828 69.1935V68.9775C161.828 68.7215 161.904 68.5095 162.056 68.3415C162.216 68.1735 162.46 68.0895 162.788 68.0895C163.124 68.0895 163.368 68.1735 163.52 68.3415C163.672 68.5095 163.748 68.7215 163.748 68.9775V69.1935C163.748 69.4495 163.672 69.6615 163.52 69.8295C163.368 69.9895 163.124 70.0695 162.788 70.0695ZM128.348 85.0815C127.5 85.0815 126.836 84.9135 126.356 84.5775C125.876 84.2335 125.636 83.7495 125.636 83.1255C125.636 82.7415 125.748 82.4135 125.972 82.1415C126.204 81.8695 126.5 81.6815 126.86 81.5775V81.5055C126.46 81.4095 126.148 81.2215 125.924 80.9415C125.7 80.6535 125.588 80.3055 125.588 79.8975C125.588 79.6415 125.632 79.4095 125.72 79.2015C125.816 78.9855 125.944 78.8015 126.104 78.6495C126.272 78.4975 126.472 78.3815 126.704 78.3015C126.944 78.2135 127.208 78.1695 127.496 78.1695C127.68 78.1695 127.88 78.1895 128.096 78.2295C128.312 78.2615 128.508 78.3255 128.684 78.4215L128.36 79.5375C128.256 79.4815 128.156 79.4455 128.06 79.4295C127.972 79.4055 127.876 79.3935 127.772 79.3935C127.54 79.3935 127.348 79.4615 127.196 79.5975C127.044 79.7255 126.968 79.9055 126.968 80.1375C126.968 80.3695 127.036 80.5575 127.172 80.7015C127.308 80.8455 127.556 80.9175 127.916 80.9175H128.564V81.9495H127.916C127.708 81.9495 127.532 82.0175 127.388 82.1535C127.244 82.2895 127.172 82.4735 127.172 82.7055V82.9455C127.172 83.2495 127.276 83.4775 127.484 83.6295C127.7 83.7735 128.004 83.8455 128.396 83.8455C128.852 83.8455 129.208 83.7255 129.464 83.4855C129.728 83.2375 129.86 82.8815 129.86 82.4175V78.3135H131.396V82.6215C131.396 82.9975 131.324 83.3375 131.18 83.6415C131.036 83.9455 130.832 84.2055 130.568 84.4215C130.304 84.6295 129.984 84.7935 129.608 84.9135C129.232 85.0255 128.812 85.0815 128.348 85.0815ZM126.046 76.0575H128.074V75.0615H129.274V76.1895H130.198V75.0615H131.398V77.2215H126.046V76.0575ZM130.09 72.5895H131.398V74.4735H130.09V72.5895ZM135.159 85.0815C134.471 85.0815 133.943 84.8575 133.575 84.4095C133.207 83.9615 133.023 83.3215 133.023 82.4895V78.3135H134.559V82.3455C134.559 82.8015 134.647 83.1615 134.823 83.4255C135.007 83.6895 135.323 83.8215 135.771 83.8215C135.939 83.8215 136.103 83.7975 136.263 83.7495C136.423 83.7015 136.563 83.6335 136.683 83.5455C136.811 83.4495 136.915 83.3335 136.995 83.1975C137.075 83.0535 137.115 82.8895 137.115 82.7055V78.3135H138.651V83.7135H139.287V84.9375H138.327C137.639 84.9375 137.283 84.5455 137.259 83.7615H137.187C137.051 84.1295 136.819 84.4415 136.491 84.6975C136.171 84.9535 135.727 85.0815 135.159 85.0815ZM142.971 85.0815C142.347 85.0815 141.815 84.9775 141.375 84.7695C140.943 84.5615 140.563 84.2655 140.235 83.8815L141.183 82.9815C141.415 83.2615 141.687 83.4815 141.999 83.6415C142.311 83.7935 142.663 83.8695 143.055 83.8695C143.463 83.8695 143.755 83.8015 143.931 83.6655C144.115 83.5295 144.207 83.3415 144.207 83.1015C144.207 82.8615 144.135 82.6855 143.991 82.5735C143.847 82.4535 143.631 82.3735 143.343 82.3335L142.695 82.2495C142.367 82.2095 142.067 82.1415 141.795 82.0455C141.523 81.9495 141.287 81.8215 141.087 81.6615C140.895 81.5015 140.743 81.3055 140.631 81.0735C140.527 80.8415 140.475 80.5695 140.475 80.2575C140.475 79.9375 140.535 79.6495 140.655 79.3935C140.783 79.1295 140.955 78.9095 141.171 78.7335C141.395 78.5495 141.659 78.4095 141.963 78.3135C142.275 78.2175 142.619 78.1695 142.995 78.1695C143.611 78.1695 144.115 78.2615 144.507 78.4455C144.899 78.6295 145.251 78.8815 145.563 79.2015L144.651 80.1135C144.467 79.9055 144.231 79.7335 143.943 79.5975C143.655 79.4535 143.343 79.3815 143.007 79.3815C142.647 79.3815 142.379 79.4535 142.203 79.5975C142.035 79.7335 141.951 79.9175 141.951 80.1495C141.951 80.3815 142.023 80.5615 142.167 80.6895C142.319 80.8095 142.563 80.8935 142.899 80.9415L143.547 81.0375C144.203 81.1335 144.723 81.3255 145.107 81.6135C145.491 81.9015 145.683 82.3535 145.683 82.9695C145.683 83.2815 145.619 83.5695 145.491 83.8335C145.363 84.0895 145.179 84.3095 144.939 84.4935C144.707 84.6775 144.423 84.8215 144.087 84.9255C143.751 85.0295 143.379 85.0815 142.971 85.0815ZM149.99 80.5095C149.99 80.1575 149.898 79.8855 149.714 79.6935C149.538 79.5015 149.254 79.4055 148.862 79.4055C148.502 79.4055 148.214 79.4815 147.998 79.6335C147.79 79.7855 147.614 79.9735 147.47 80.1975L146.558 79.3815C146.79 79.0135 147.09 78.7215 147.458 78.5055C147.834 78.2815 148.338 78.1695 148.97 78.1695C149.81 78.1695 150.446 78.3655 150.878 78.7575C151.31 79.1415 151.526 79.6975 151.526 80.4255V84.9375H149.99V80.5095ZM155.688 85.0815C154.84 85.0815 154.176 84.9135 153.696 84.5775C153.216 84.2335 152.976 83.7495 152.976 83.1255C152.976 82.7415 153.088 82.4135 153.312 82.1415C153.544 81.8695 153.84 81.6815 154.2 81.5775V81.5055C153.8 81.4095 153.488 81.2215 153.264 80.9415C153.04 80.6535 152.928 80.3055 152.928 79.8975C152.928 79.6415 152.972 79.4095 153.06 79.2015C153.156 78.9855 153.284 78.8015 153.444 78.6495C153.612 78.4975 153.812 78.3815 154.044 78.3015C154.284 78.2135 154.548 78.1695 154.836 78.1695C155.02 78.1695 155.22 78.1895 155.436 78.2295C155.652 78.2615 155.848 78.3255 156.024 78.4215L155.7 79.5375C155.596 79.4815 155.496 79.4455 155.4 79.4295C155.312 79.4055 155.216 79.3935 155.112 79.3935C154.88 79.3935 154.688 79.4615 154.536 79.5975C154.384 79.7255 154.308 79.9055 154.308 80.1375C154.308 80.3695 154.376 80.5575 154.512 80.7015C154.648 80.8455 154.896 80.9175 155.256 80.9175H155.904V81.9495H155.256C155.048 81.9495 154.872 82.0175 154.728 82.1535C154.584 82.2895 154.512 82.4735 154.512 82.7055V82.9455C154.512 83.2495 154.616 83.4775 154.824 83.6295C155.04 83.7735 155.344 83.8455 155.736 83.8455C156.192 83.8455 156.548 83.7255 156.804 83.4855C157.068 83.2375 157.2 82.8815 157.2 82.4175V78.3135H158.736V82.6215C158.736 82.9975 158.664 83.3375 158.52 83.6415C158.376 83.9455 158.172 84.2055 157.908 84.4215C157.644 84.6295 157.324 84.7935 156.948 84.9135C156.572 85.0255 156.152 85.0815 155.688 85.0815ZM162.955 85.0815C162.547 85.0815 162.171 85.0335 161.827 84.9375C161.491 84.8415 161.203 84.6975 160.963 84.5055C160.723 84.3055 160.535 84.0575 160.399 83.7615C160.271 83.4575 160.207 83.1055 160.207 82.7055C160.207 82.4815 160.223 82.2855 160.255 82.1175C160.295 81.9415 160.339 81.7855 160.387 81.6495C160.443 81.5135 160.503 81.3895 160.567 81.2775C160.639 81.1655 160.711 81.0575 160.783 80.9535C160.903 80.7695 161.015 80.5735 161.119 80.3655C161.223 80.1575 161.275 79.9495 161.275 79.7415V79.5855H160.123V78.3135H161.479C161.887 78.3135 162.199 78.4095 162.415 78.6015C162.631 78.7935 162.739 79.0495 162.739 79.3695V79.4295C162.739 79.6775 162.699 79.9215 162.619 80.1615C162.539 80.4015 162.415 80.6775 162.247 80.9895C162.119 81.2295 162.015 81.4535 161.935 81.6615C161.855 81.8615 161.815 82.1015 161.815 82.3815V82.7295C161.815 83.0895 161.911 83.3615 162.103 83.5455C162.303 83.7215 162.575 83.8095 162.919 83.8095C163.271 83.8095 163.543 83.7215 163.735 83.5455C163.927 83.3615 164.023 83.1015 164.023 82.7655V81.8055C164.023 81.4695 163.971 81.2095 163.867 81.0255C163.771 80.8415 163.583 80.7495 163.303 80.7495H163.159V79.5975H163.399C163.615 79.5975 163.791 79.5375 163.927 79.4175C164.071 79.2895 164.143 79.0775 164.143 78.7815V78.0615H165.643V78.6615C165.643 78.9975 165.547 79.2855 165.355 79.5255C165.171 79.7655 164.855 79.9255 164.407 80.0055V80.0895C165.223 80.3455 165.631 81.0935 165.631 82.3335C165.631 82.7575 165.567 83.1415 165.439 83.4855C165.319 83.8215 165.143 84.1095 164.911 84.3495C164.679 84.5815 164.395 84.7615 164.059 84.8895C163.731 85.0175 163.363 85.0815 162.955 85.0815ZM160.289 76.0575H162.317V75.0615H163.517V76.1895H164.441V75.0615H165.641V77.2215H160.289V76.0575ZM164.333 72.5895H165.641V74.4735H164.333V72.5895ZM169.695 85.0815C169.279 85.0815 168.895 85.0255 168.543 84.9135C168.191 84.7935 167.887 84.6335 167.631 84.4335C167.375 84.2255 167.175 83.9815 167.031 83.7015C166.887 83.4135 166.815 83.0975 166.815 82.7535V82.1535C166.815 81.8495 166.891 81.6135 167.043 81.4455C167.203 81.2695 167.455 81.1815 167.799 81.1815H169.191V82.3455H168.219V82.6335C168.219 83.0495 168.355 83.3655 168.627 83.5815C168.899 83.7895 169.275 83.8935 169.755 83.8935C170.219 83.8935 170.579 83.7415 170.835 83.4375C171.091 83.1335 171.219 82.7135 171.219 82.1775V81.1095C171.219 80.5735 171.075 80.1575 170.787 79.8615C170.499 79.5575 170.095 79.4055 169.575 79.4055C169.111 79.4055 168.711 79.5055 168.375 79.7055C168.047 79.9055 167.803 80.1255 167.643 80.3655L166.707 79.5255C166.939 79.1415 167.299 78.8215 167.787 78.5655C168.283 78.3015 168.899 78.1695 169.635 78.1695C170.139 78.1695 170.587 78.2495 170.979 78.4095C171.371 78.5615 171.703 78.7895 171.975 79.0935C172.255 79.3895 172.467 79.7535 172.611 80.1855C172.755 80.6095 172.827 81.0895 172.827 81.6255C172.827 82.7055 172.555 83.5535 172.011 84.1695C171.467 84.7775 170.695 85.0815 169.695 85.0815Z" fill="black"/>
</svg>
