<svg width="301" height="360" viewBox="0 0 301 360" fill="none" xmlns="http://www.w3.org/2000/svg">
<path d="M14.3438 92.1701V48.8509H26.4319V92.1701H14.3438Z" fill="white"/>
<path d="M46.3281 92.1701L31.9895 48.8509H44.9018L54.5127 82.3347H54.7372L64.1211 48.8509H77.1839L62.6949 92.1701H46.3281Z" fill="white"/>
<path d="M75.007 30.6821V43.2959H36.418V35.7133H64.4215V30.6821H75.007Z" fill="white"/>
<path d="M100.457 62.9649H103.011V70.5475H101.059C96.8545 70.5475 92.6499 73.0249 92.6499 76.9284C92.6499 80.832 95.2038 83.4598 101.284 83.4598C107.364 83.4598 109.693 80.3064 109.693 73.7009V48.8509H121.631V76.1043C121.631 87.0648 115.025 92.7721 101.286 92.7721C87.5472 92.7721 80.5642 86.6158 80.5642 78.2066C80.5642 72.5758 83.6412 68.5957 88.3713 66.7945C83.2661 65.3683 80.8628 60.4876 80.8628 56.4335C80.8628 53.0555 81.3143 51.1037 81.9139 48.8509H94.0021C93.252 51.4788 93.1755 54.5557 93.1755 56.658C93.1755 60.1125 96.63 62.9649 100.457 62.9649Z" fill="white"/>
<path d="M169.226 92.1701H157.515V84.2124H157.214C155.487 89.6187 150.458 92.7721 142.424 92.7721C134.39 92.7721 127.634 87.2918 127.634 77.7575V48.8534H139.495V74.4535C139.495 80.4594 142.799 83.1613 148.055 83.1613C153.76 83.1613 157.214 78.9567 157.214 73.5504V48.8509H169.226V92.1701Z" fill="white"/>
<path d="M178.911 92.1696V59.3619C178.911 49.376 188.82 46.4495 188.82 42.1684C188.82 40.1402 187.394 38.4894 184.465 38.4894C181.536 38.4894 179.661 39.5406 179.661 44.1202H169.826C169.826 34.0603 175.906 30.0062 184.539 30.0062C193.173 30.0062 198.954 33.4607 198.954 41.9439C198.954 50.4271 190.92 51.4783 190.92 59.5124V92.1696H178.908H178.911Z" fill="white"/>
<path d="M241 55.3811C241 62.4381 237.096 65.8161 230.488 67.2423C236.42 67.1683 241 70.0207 241 77.3023V92.1664H228.988V77.6008C228.988 72.5696 225.309 71.896 221.78 72.1205L211.945 73.0977V92.1664H200.007V48.8472H211.945V64.6885L220.127 63.7878C226.133 63.0377 228.985 61.16 228.985 55.3786V48.8472H240.997V55.3786L241 55.3811Z" fill="white"/>
<path d="M247.006 92.1701V48.8509H258.867V73.5504C258.867 78.9567 262.921 83.1613 268.552 83.1613C273.882 83.1613 276.586 80.4594 276.586 74.4535V48.8534H288.598V77.5329C288.598 87.0673 282.518 92.7721 274.109 92.7721C266.151 92.7721 260.594 89.6187 258.867 84.2124H258.566V92.1701H247.003H247.006Z" fill="white"/>
<path d="M287.771 43.2937H277.26V28.7281H287.771V43.2937Z" fill="white"/>
<path d="M15.6626 189.353V141.233H29.0907V189.353H15.6626Z" fill="white"/>
<path d="M82.3824 189.354H68.9543V169.088L59.114 170.006C53.693 170.423 50.6061 171.758 50.6061 175.343C50.6061 178.346 53.0243 179.763 57.029 179.763H61.4482V189.354H57.446C46.8531 189.354 36.845 188.52 36.845 176.343C36.845 162.749 51.6079 162.249 69.0382 160.914C68.6212 154.742 65.87 151.656 59.114 151.656C55.1932 151.656 51.941 153.99 50.69 157.494H37.8468C39.2656 147.569 48.0227 140.897 59.114 140.897C74.2101 140.897 82.3824 147.236 82.3824 161.915V189.354Z" fill="white"/>
<path d="M82.2988 121.048V135.058H39.5151V126.634H59.7806V121.045H68.7869V126.634H73.3739V121.045H82.2988V121.048Z" fill="white"/>
<path d="M101.98 163.751V168.506C101.98 175.679 105.232 179.681 112.155 179.681C119.079 179.681 122.247 175.679 122.247 168.506V162.5C122.247 155.411 117.994 151.658 110.988 151.658C106.65 151.658 102.732 153.743 101.481 157.496H88.554C89.9728 147.572 99.48 140.9 110.988 140.9C126.501 140.9 135.592 147.821 135.592 162.5V168.422C135.592 183.185 127.669 190.023 112.155 190.023C96.6424 190.023 88.7193 183.183 88.7193 168.422V163.751H101.98Z" fill="white"/>
<path d="M142.095 189.354V159.579C142.095 147.318 150.018 140.897 165.28 140.897C180.541 140.897 188.464 147.32 188.464 159.579V189.354H175.036V160.832C175.036 154.409 171.949 151.658 165.277 151.658C158.605 151.658 155.518 154.409 155.518 160.832V189.354H142.09H142.095Z" fill="white"/>
<path d="M229.581 189.354V156.494C229.581 153.743 228.996 151.658 226.413 151.658L221.076 154.076H217.656L212.402 151.658C208.733 152.492 207.731 157.58 207.731 165.836C207.731 172.757 210.818 179.681 217.823 179.681H221.994V189.356H217.157C202.811 189.356 194.306 183.017 194.306 165.836C194.306 151.325 196.808 141.065 209.234 140.9L219.326 146.321L229.584 140.9C239.592 140.9 243.012 145.403 243.012 154.328V189.356H229.584L229.581 189.354Z" fill="white"/>
<path d="M247.928 126.638V135.062H224.075C210.815 135.062 209.729 129.724 209.729 122.551V121.384H220.739V122.302C220.739 126.223 221.906 126.805 226.661 126.64H247.928V126.638Z" fill="white"/>
<path d="M218.489 102.534H227.414C232.085 102.534 232.085 109.706 235.838 109.706H246.929V117.462H230.999C226.412 117.63 226.163 110.124 222.575 110.124H218.489V102.534Z" fill="white"/>
<path d="M272.031 189.687C263.775 189.687 259.437 187.185 256.686 181.596L246.677 158.661H260.189L268.446 178.428C269.03 179.595 270.114 180.513 271.532 180.513C272.951 180.513 273.617 179.595 273.617 176.844V141.231H287.046V176.76C287.046 185.601 281.708 189.687 272.033 189.687H272.031Z" fill="white"/>
<path d="M118.292 117.34V130.183H113.69V118.633C113.69 115.786 111.968 114.66 109.486 114.66C106.574 114.66 104.852 116.647 104.852 119.758V130.183H100.25V111.085H104.718V114.527H104.785C105.58 112.178 108.195 110.952 111.571 110.952C115.277 110.952 118.29 113.237 118.29 117.34H118.292Z" fill="#2BB25C"/>
<path d="M120.244 105.522V108.634H111.176C105.979 108.634 105.649 106.517 105.649 103.768V103.272H109.488V103.669C109.488 105.258 109.853 105.557 111.904 105.522H120.244Z" fill="#2BB25C"/>
<path d="M108.859 95.9599H112.168C114.021 95.9599 114.021 98.8394 115.544 98.8394H119.978V101.687H113.821C112.035 101.786 111.934 98.8073 110.478 98.8073H108.857V95.9599H108.859Z" fill="#2BB25C"/>
<path d="M129.81 130.315C126.832 130.315 125.208 129.422 124.216 127.436L119.98 118.002H124.68L128.288 126.244C128.52 126.74 129.05 127.07 129.645 127.07C130.274 127.07 130.573 126.705 130.637 125.58V111.084H135.271V125.481C135.271 128.857 133.284 130.313 129.81 130.313V130.315Z" fill="#2BB25C"/>
<path d="M151.722 130.183V126.576H151.588C150.927 128.96 148.511 130.448 144.901 130.448C141.292 130.448 138.316 128.098 138.316 123.894V120.617H142.918V122.67C142.918 125.517 144.64 126.741 147.021 126.741C149.802 126.741 151.588 124.755 151.588 122.107V119.129C151.588 116.218 149.967 114.727 146.821 114.727C144.869 114.727 143.179 115.655 142.617 117.276H138.148C138.711 113.469 142.417 110.954 146.821 110.954C152.713 110.954 156.188 113.437 156.188 119.129V130.183H151.719H151.722Z" fill="#2BB25C"/>
<path d="M177.008 111.085V123C177.008 128.064 173.897 130.447 168.071 130.447C162.245 130.447 159.102 128.064 159.102 123V111.085H163.736V122.339C163.736 125.085 164.96 126.741 168.071 126.741C171.183 126.741 172.374 125.085 172.374 122.339V111.085H177.008Z" fill="#2BB25C"/>
<path d="M178.96 105.522V108.634H169.892C164.696 108.634 164.365 106.517 164.365 103.768V103.272H168.205V103.669C168.205 105.258 168.57 105.557 170.62 105.522H178.96Z" fill="#2BB25C"/>
<path d="M197.826 111.085V123C197.826 128.064 194.715 130.447 188.889 130.447C183.063 130.447 179.92 128.064 179.92 123V111.085H184.554V122.339C184.554 125.085 185.777 126.741 188.889 126.741C192 126.741 193.192 125.085 193.192 122.339V111.085H197.826Z" fill="#2BB25C"/>
<path d="M25.0039 278.728L29.0999 223.037L14.3739 227.133L10.5 212.077L50.6904 199.786L44.7117 280.278L25.0039 278.728Z" fill="#2BB25C"/>
<path d="M60.6543 235.995C61.318 228.244 63.0897 221.602 65.9693 216.176C71.0621 206.765 79.6983 201.119 91.6558 201.23C92.5416 201.119 93.4274 201.23 94.3132 201.341C104.721 202.116 112.249 207.764 117.009 216.62C120.552 223.485 122.213 232.232 122.102 242.529C122.102 244.522 121.991 246.514 121.88 248.396C121.216 256.147 119.556 262.789 116.565 268.326C111.361 277.737 102.836 283.272 90.8785 283.272C89.9927 283.272 89.1068 283.161 88.221 283.161C77.8132 282.275 70.1738 276.74 65.5251 267.882C61.9818 261.018 60.3212 252.27 60.4322 242.085C60.4322 239.76 60.5433 237.878 60.6543 235.995ZM82.5754 259.91C84.125 264.781 86.6714 267.216 90.5478 267.549H91.1006C95.3076 267.549 97.9651 265.114 99.5147 260.021C100.178 257.696 100.734 254.706 100.953 251.274C101.175 248.616 101.286 245.628 101.395 242.307C101.395 234.778 101.062 228.8 99.8453 224.482C98.4068 219.722 96.0799 217.284 92.317 217.064L91.5422 216.953C87.3352 216.953 84.4556 219.278 82.9061 224.371C82.3533 226.806 81.7982 229.685 81.5786 233.118C81.3565 235.775 81.2454 238.874 81.1369 242.196C81.1369 249.724 81.3589 255.592 82.5754 259.91ZM129.852 239.316C131.513 218.059 141.366 193.922 165.061 195.693C183.219 197.021 194.51 209.864 192.739 233.668C191.078 254.925 181.334 279.062 157.53 277.291C139.483 275.852 128.081 263.009 129.852 239.316ZM172.589 228.797C173.364 218.278 171.925 212.08 164.617 211.525C154.32 210.75 150.999 231.233 150.113 244.187C149.227 254.817 150.777 261.015 157.752 261.57C168.382 262.234 171.592 241.64 172.589 228.8V228.797Z" fill="#2BB25C"/>
<path d="M217.091 256.505C206.683 256.505 197.939 247.869 197.939 237.019C197.939 226.17 206.686 217.422 217.202 217.311C227.721 217.311 236.246 225.837 236.355 236.686C236.355 247.536 227.83 256.394 217.091 256.505ZM217.091 228.05C212.44 228.05 208.899 231.924 208.899 236.797C208.899 241.67 212.554 245.764 217.313 245.764C222.073 245.764 225.505 241.668 225.505 236.797C225.505 231.926 221.851 228.05 217.091 228.05ZM238.364 277.495L224.746 279.267L258.405 201.324L271.801 199.552L238.364 277.495ZM271.236 278.951C260.828 278.951 252.084 270.315 252.084 259.466C252.084 248.616 260.831 239.869 271.347 239.758C281.866 239.758 290.391 248.283 290.5 259.133C290.5 269.982 281.975 278.84 271.236 278.951ZM271.236 250.496C266.588 250.496 263.044 254.37 263.044 259.244C263.044 264.117 266.699 268.21 271.458 268.21C276.218 268.21 279.65 264.114 279.65 259.244C279.65 254.373 275.996 250.496 271.236 250.496Z" fill="#2BB25C"/>
<path d="M281.22 215.642L289.942 210.621L284.921 219.344L289.942 228.069L281.22 223.045L272.495 228.069L277.519 219.344L272.495 210.621L281.22 215.642Z" fill="#F8EB54"/>
<path d="M54.5853 22.7281H51.58V11.9574H54.5853V22.7281ZM67.15 11.9574H70.174L67.7287 22.7281H65.078L63.0247 15.8215L60.99 22.7281H58.302L55.894 11.9574H58.918L60.038 18.6028L61.9793 12.2001H64.0887L66.03 18.6028L67.15 11.9574ZM67.5662 7.44012H69.5635V10.5761H59.9875V8.69078H64.5235V7.44012H66.5395V8.69078H67.5662V7.44012ZM69.4889 3.22145V6.63745H66.9689V3.22145H69.4889ZM71.0009 16.9975H73.9689V18.0615C73.9689 19.6668 74.6969 20.5628 76.2462 20.5628C77.7955 20.5628 78.5049 19.6668 78.5049 18.0615V16.7175C78.5049 15.1308 77.5529 14.2908 75.9849 14.2908C75.0142 14.2908 74.1369 14.7575 73.8569 15.5975H70.9635C71.2809 13.3761 73.4089 11.8828 75.9849 11.8828C79.4569 11.8828 81.4915 13.4321 81.4915 16.7175V18.0428C81.4915 21.3468 79.7182 22.8775 76.2462 22.8775C72.7742 22.8775 71.0009 21.3468 71.0009 18.0428V16.9975ZM90.3156 9.51212H93.321V18.7335C93.321 21.4588 91.5476 22.8775 88.1316 22.8775C84.7156 22.8775 82.9423 21.4588 82.9423 18.7335V11.9574H85.9476V18.2668C85.9476 19.6668 86.6196 20.4881 88.1316 20.4881C89.625 20.4881 90.3156 19.6668 90.3156 18.2668V9.51212ZM100.297 16.4375C101.66 16.8668 104.068 17.3335 103.769 20.0961C103.545 22.1868 101.137 22.8775 99.1588 22.8775C96.9935 22.8775 94.6788 21.8695 94.6042 19.4428H97.2548C97.4788 20.1521 98.3375 20.5628 99.1775 20.5628C100.073 20.5628 100.988 20.2828 100.988 19.5361C100.988 18.9015 99.9802 18.6588 98.2628 18.2668C96.4335 17.8561 94.7162 17.2215 94.7162 15.1868C94.7162 12.8908 97.1242 11.8828 99.2522 11.8828C101.324 11.8828 103.751 12.7975 103.769 15.3175H101.119C100.969 14.4961 100.148 14.2161 99.2522 14.2161C98.5242 14.2161 97.6095 14.5335 97.6095 15.1308C97.6095 15.8775 98.9722 16.0081 100.297 16.4375ZM108.599 14.4775H110.54V16.5308H107.983C105.257 16.5308 104.772 15.1121 104.772 13.7308V13.4135H107.273V13.6375C107.273 14.2908 107.609 14.4775 108.599 14.4775ZM108.599 19.7415H110.54V21.7948H107.983C105.257 21.7948 104.772 20.3761 104.772 19.0135V18.6775H107.273V18.9015C107.273 19.5735 107.591 19.7415 108.599 19.7415ZM118.484 18.0428C118.484 16.5121 117.999 15.9335 116.991 15.8215V14.7015L118.783 11.9574H121.732L119.548 14.9068C120.967 15.0188 121.489 16.2321 121.489 17.4828V19.0321C121.489 21.6828 119.884 22.8775 116.561 22.8775C113.257 22.8775 111.671 21.6828 111.671 19.0321V18.1735C111.671 15.9708 113.463 14.7575 113.705 13.7308H111.895V11.9574H116.692V12.8161C116.692 14.3655 114.676 15.8215 114.676 18.4908C114.676 19.7415 115.087 20.5628 116.561 20.5628C118.073 20.5628 118.484 19.7415 118.484 18.3415V18.0428ZM130.235 22.7281H127.23V15.7281C127.23 14.7761 126.595 14.3281 125.475 14.2721C124.523 14.2161 123.683 14.4588 122.638 14.7575V12.5361C123.739 12.0881 124.859 11.8828 126.185 11.8828C128.406 11.8828 130.235 12.7601 130.235 15.0188V22.7281ZM134.635 22.7281H131.76V11.9574H134.709V18.0988C134.709 19.4428 135.717 20.4881 137.117 20.4881C138.443 20.4881 139.115 19.8161 139.115 18.3228V11.9574H142.101V19.0881C142.101 21.4588 140.589 22.8775 138.499 22.8775C136.52 22.8775 135.139 22.0935 134.709 20.7495C134.672 20.7495 134.653 20.7495 134.635 20.7495V22.7281ZM154.287 22.7281H151.282V15.3735C151.282 14.7575 151.151 14.2908 150.573 14.2908L149.378 14.8321H148.613L147.437 14.2908C146.615 14.4775 146.391 15.6161 146.391 17.4641C146.391 19.0135 147.082 20.5628 148.65 20.5628H149.583V22.7281H148.501C145.29 22.7281 143.386 21.3095 143.386 17.4641C143.386 14.2161 143.946 11.9201 146.727 11.8828L148.986 13.0961L151.282 11.8828C153.522 11.8828 154.287 12.8908 154.287 14.8881V22.7281ZM154.293 8.69078V10.5761H144.698V8.69078H154.293ZM161.274 16.4375C162.637 16.8668 165.045 17.3335 164.746 20.0961C164.522 22.1868 162.114 22.8775 160.135 22.8775C157.97 22.8775 155.655 21.8695 155.581 19.4428H158.231C158.455 20.1521 159.314 20.5628 160.154 20.5628C161.05 20.5628 161.965 20.2828 161.965 19.5361C161.965 18.9015 160.957 18.6588 159.239 18.2668C157.41 17.8561 155.693 17.2215 155.693 15.1868C155.693 12.8908 158.101 11.8828 160.229 11.8828C162.301 11.8828 164.727 12.7975 164.746 15.3175H162.095C161.946 14.4961 161.125 14.2161 160.229 14.2161C159.501 14.2161 158.586 14.5335 158.586 15.1308C158.586 15.8775 159.949 16.0081 161.274 16.4375ZM160.97 8.69078H165.73V10.5761H160.391C157.423 10.5761 157.181 9.38145 157.181 7.77612V7.51478H159.645V7.72012C159.645 8.59745 159.906 8.72812 160.97 8.69078ZM174.783 13.2455C175.642 13.9921 175.941 14.9815 175.847 16.1575C175.735 17.6135 173.831 20.7121 172.506 22.7281H169.37L166.365 16.9041H169.314L170.975 20.4135H171.087C172.039 18.8641 172.991 17.1468 172.991 16.1388C172.991 14.7761 172.002 14.2535 170.845 14.2535C169.725 14.2535 168.81 14.7015 168.605 15.5975H165.749C165.991 13.2828 167.97 11.8828 170.845 11.8828C171.61 11.8828 172.282 12.0508 172.842 12.2561L173.626 11.2481H176.463L174.783 13.2455ZM175.381 24.3148V26.2001H166.365V24.3148H175.381ZM186.335 14.2535H180.828C180.548 14.2535 180.324 14.2908 180.324 14.5335C180.324 15.5228 186.689 15.0375 186.689 18.1175V19.4428C186.689 21.8135 184.673 22.8215 181.836 22.8215C179.129 22.8215 177.151 21.5521 177.151 19.4241V17.8935H179.783V19.3495C179.783 20.2081 180.865 20.5441 181.836 20.5441C182.881 20.5441 183.815 20.2641 183.815 19.1628V18.4908C183.815 17.1841 177.095 17.7628 177.095 14.3281C177.095 11.7334 179.969 11.9574 180.511 11.9574H186.335V14.2535ZM193.594 16.4375C194.957 16.8668 197.365 17.3335 197.066 20.0961C196.842 22.1868 194.434 22.8775 192.456 22.8775C190.29 22.8775 187.976 21.8695 187.901 19.4428H190.552C190.776 20.1521 191.634 20.5628 192.474 20.5628C193.37 20.5628 194.285 20.2828 194.285 19.5361C194.285 18.9015 193.277 18.6588 191.56 18.2668C189.73 17.8561 188.013 17.2215 188.013 15.1868C188.013 12.8908 190.421 11.8828 192.549 11.8828C194.621 11.8828 197.048 12.7975 197.066 15.3175H194.416C194.266 14.4961 193.445 14.2161 192.549 14.2161C191.821 14.2161 190.906 14.5335 190.906 15.1308C190.906 15.8775 192.269 16.0081 193.594 16.4375ZM203.93 16.4375C205.293 16.8668 207.701 17.3335 207.402 20.0961C207.178 22.1868 204.77 22.8775 202.792 22.8775C200.626 22.8775 198.312 21.8695 198.237 19.4428H200.888C201.112 20.1521 201.97 20.5628 202.81 20.5628C203.706 20.5628 204.621 20.2828 204.621 19.5361C204.621 18.9015 203.613 18.6588 201.896 18.2668C200.066 17.8561 198.349 17.2215 198.349 15.1868C198.349 12.8908 200.757 11.8828 202.885 11.8828C204.957 11.8828 207.384 12.7975 207.402 15.3175H204.752C204.602 14.4961 203.781 14.2161 202.885 14.2161C202.157 14.2161 201.242 14.5335 201.242 15.1308C201.242 15.8775 202.605 16.0081 203.93 16.4375ZM211.653 22.7281H208.778V11.9574H211.728V18.0988C211.728 19.4428 212.736 20.4881 214.136 20.4881C215.461 20.4881 216.133 19.8161 216.133 18.3228V11.9574H219.12V19.0881C219.12 21.4588 217.608 22.8775 215.517 22.8775C213.538 22.8775 212.157 22.0935 211.728 20.7495C211.69 20.7495 211.672 20.7495 211.653 20.7495V22.7281ZM230.932 11.9574V22.7281H228.02V20.7495C228.001 20.7495 227.964 20.7495 227.945 20.7495C227.516 22.0935 226.265 22.8775 224.268 22.8775C222.196 22.8775 220.591 21.5148 220.591 19.1441V11.9574H223.54V18.3228C223.54 19.8161 224.361 20.4881 225.668 20.4881C227.087 20.4881 227.945 19.4428 227.945 18.0988V11.9574H230.932ZM228.39 24.0348H230.817V25.6775C230.817 27.6935 228.875 27.9921 227.606 27.9921C226.337 27.9921 224.675 27.6935 224.526 25.8081H223.481V24.0348H226.822V25.3041C226.822 25.9201 226.99 26.2935 227.606 26.2935C228.241 26.2935 228.39 25.9201 228.39 25.1735V24.0348ZM244.033 22.8775C240.598 22.8775 239.273 21.5335 239.273 18.8081V16.1015C239.273 14.7388 238.657 14.2721 237.201 14.2721H235.409V19.5735C235.427 20.3015 235.707 20.7495 236.286 20.7495H237.238V22.7281H236.193C234.046 22.7281 232.403 22.4668 232.403 19.9095V11.9574H237.163C240.486 11.9574 242.278 13.2268 242.278 15.9521V18.5841C242.278 19.8721 242.614 20.5441 244.033 20.5441C245.339 20.5441 245.75 20.0775 245.75 18.5841V11.9574H248.755V18.8081C248.755 21.5335 247.374 22.8775 244.033 22.8775ZM248.55 24.3148V26.2001H239.497V24.3148H248.55Z" fill="#8C92FF"/>
<path d="M214.141 204.809V210.95H211.136V206.414L208.933 206.62C207.738 206.713 207.029 207.012 207.029 207.814C207.029 208.486 207.57 208.804 208.466 208.804H209.456V210.95H208.56C206.189 210.95 203.949 210.764 203.949 208.038C203.949 205.369 206.394 204.958 209.754 204.716L211.154 204.585C211.061 203.204 210.445 202.513 208.933 202.513C208.056 202.513 207.328 203.036 207.048 203.82H204.173C204.49 201.598 206.45 200.105 208.933 200.105C209.773 200.105 210.501 200.273 211.154 200.534L211.994 199.47H214.869L213.04 201.654C213.749 202.345 214.141 203.334 214.141 204.809ZM225.698 204.809V210.95H222.693V206.414L220.49 206.62C219.296 206.713 218.586 207.012 218.586 207.814C218.586 208.486 219.128 208.804 220.024 208.804H221.013V210.95H220.117C217.746 210.95 215.506 210.764 215.506 208.038C215.506 205.369 217.952 204.958 221.312 204.716L222.712 204.585C222.618 203.204 222.002 202.513 220.49 202.513C219.613 202.513 218.885 203.036 218.605 203.82H215.73C216.048 201.598 218.008 200.105 220.49 200.105C221.33 200.105 222.058 200.273 222.712 200.534L223.552 199.47H226.426L224.597 201.654C225.306 202.345 225.698 203.334 225.698 204.809ZM232.738 204.66C234.101 205.089 236.509 205.556 236.21 208.318C235.986 210.409 233.578 211.1 231.6 211.1C229.434 211.1 227.12 210.092 227.045 207.665H229.696C229.92 208.374 230.778 208.785 231.618 208.785C232.514 208.785 233.429 208.505 233.429 207.758C233.429 207.124 232.421 206.881 230.704 206.489C228.874 206.078 227.157 205.444 227.157 203.409C227.157 201.113 229.565 200.105 231.693 200.105C233.765 200.105 236.192 201.02 236.21 203.54H233.56C233.41 202.718 232.589 202.438 231.693 202.438C230.965 202.438 230.05 202.756 230.05 203.353C230.05 204.1 231.413 204.23 232.738 204.66ZM237.175 209.289C237.175 208.374 237.829 207.646 238.949 207.646C240.069 207.646 240.741 208.374 240.741 209.289C240.741 210.204 240.069 210.95 238.949 210.95C237.829 210.95 237.175 210.204 237.175 209.289Z" fill="#8C92FF"/>
<path d="M29.8587 303.032L26.2947 296.804H30.3267L33.2427 303.032H29.8587ZM35.3307 303.032L31.7667 296.804H35.7987L38.7147 303.032H35.3307ZM45.0993 315.272H40.8513V300.044H45.0993V315.272ZM61.9459 306.596V315.272H57.6979V308.864L54.6019 309.152C52.9099 309.296 51.9019 309.692 51.9019 310.844C51.9019 311.78 52.6579 312.248 53.9179 312.248H55.3219V315.272H54.0619C50.7139 315.272 47.5459 315.02 47.5459 311.168C47.5459 307.388 51.0019 306.812 55.7539 306.452L57.7339 306.272C57.5899 304.328 56.7259 303.356 54.6019 303.356C53.3419 303.356 52.3339 304.076 51.9379 305.192H47.8699C48.3019 302.06 51.0739 299.936 54.6019 299.936C55.7899 299.936 56.7979 300.188 57.7339 300.548L58.9219 299.036H62.9899L60.3979 302.132C61.4059 303.104 61.9459 304.508 61.9459 306.596ZM78.7616 300.044V315.272H74.6576V312.464C74.6216 312.464 74.5856 312.464 74.5496 312.464C73.9376 314.372 72.1736 315.488 69.3656 315.488C66.4136 315.488 64.1456 313.544 64.1456 310.196V300.044H68.3216V309.044C68.3216 311.168 69.4736 312.104 71.3456 312.104C73.3256 312.104 74.5496 310.628 74.5496 308.72V300.044H78.7616ZM80.7728 307.172H84.9848V308.684C84.9848 310.952 85.9928 312.212 88.1888 312.212C90.3848 312.212 91.3928 310.952 91.3928 308.684V306.776C91.3928 304.544 90.0248 303.356 87.8288 303.356C86.4608 303.356 85.2008 304.004 84.8048 305.192H80.7368C81.1688 302.06 84.1928 299.936 87.8288 299.936C92.7248 299.936 95.6048 302.132 95.6048 306.776V308.648C95.6048 313.328 93.0848 315.488 88.1888 315.488C83.2928 315.488 80.7728 313.328 80.7728 308.648V307.172ZM105.173 299.936C109.997 299.936 112.661 302.096 112.661 305.948V315.272H108.413V306.38C108.413 304.364 107.297 303.356 105.173 303.356C103.085 303.356 101.969 304.364 101.969 306.38V308.504C102.509 307.568 103.589 307.46 104.885 307.46H106.217V310.448H104.813C103.697 310.448 101.969 310.736 101.969 312.14V315.272H97.7215V305.948C97.7215 302.096 100.349 299.936 105.173 299.936ZM109.586 293.564C111.71 293.564 112.898 294.464 112.898 296.192C112.898 297.848 111.71 298.784 109.586 298.784C107.426 298.784 106.238 297.92 106.238 296.192C106.238 294.464 107.462 293.564 109.586 293.564ZM109.586 297.128C110.162 297.128 110.594 296.768 110.594 296.192C110.594 295.544 110.162 295.22 109.586 295.22C108.974 295.22 108.542 295.544 108.542 296.192C108.542 296.768 108.974 297.128 109.586 297.128ZM125.102 315.272H120.854V305.372C120.854 304.04 119.954 303.392 118.37 303.32C117.038 303.248 115.85 303.572 114.374 304.004V300.872C115.922 300.224 117.506 299.936 119.378 299.936C122.51 299.936 125.102 301.196 125.102 304.364V315.272ZM134.379 300.044C139.095 300.044 141.615 301.844 141.615 305.696V315.272H137.367V305.876C137.367 303.896 136.503 303.32 134.451 303.284H131.499V310.808C131.535 311.852 131.931 312.464 132.759 312.464H134.091V315.272H132.615C129.591 315.272 127.251 314.912 127.251 311.276V300.044H134.379ZM154 315.272H149.752V305.372C149.752 304.04 148.852 303.392 147.268 303.32C145.936 303.248 144.748 303.572 143.272 304.004V300.872C144.82 300.224 146.404 299.936 148.276 299.936C151.408 299.936 154 301.196 154 304.364V315.272ZM160.217 315.272H156.149V300.044H160.325V308.72C160.325 310.628 161.765 312.104 163.745 312.104C165.617 312.104 166.553 311.168 166.553 309.044V300.044H170.765V310.124C170.765 313.472 168.641 315.488 165.689 315.488C162.881 315.488 160.937 314.372 160.325 312.464C160.289 312.464 160.253 312.464 160.217 312.464V315.272ZM183.289 296.588H187.537V309.62C187.537 313.472 185.017 315.488 180.193 315.488C175.369 315.488 172.849 313.472 172.849 309.62V300.044H177.097V308.972C177.097 310.952 178.069 312.104 180.193 312.104C182.317 312.104 183.289 310.952 183.289 308.972V296.588ZM197.394 306.38C199.302 306.992 202.722 307.64 202.29 311.564C201.966 314.516 198.582 315.488 195.774 315.488C192.714 315.488 189.438 314.048 189.33 310.628H193.074C193.398 311.636 194.622 312.212 195.81 312.212C197.07 312.212 198.366 311.816 198.366 310.772C198.366 309.872 196.926 309.512 194.514 308.972C191.922 308.396 189.51 307.496 189.51 304.616C189.51 301.376 192.894 299.936 195.918 299.936C198.834 299.936 202.254 301.232 202.29 304.796H198.546C198.33 303.644 197.178 303.248 195.918 303.248C194.874 303.248 193.578 303.68 193.578 304.544C193.578 305.588 195.522 305.768 197.394 306.38ZM209.139 303.608H211.875V306.524H208.275C204.423 306.524 203.739 304.508 203.739 302.564V302.096H207.267V302.42C207.267 303.356 207.735 303.608 209.139 303.608ZM209.139 311.06H211.875V313.94H208.275C204.423 313.94 203.739 311.96 203.739 310.016V309.548H207.267V309.872C207.267 310.808 207.699 311.06 209.139 311.06ZM223.1 308.648C223.1 306.488 222.416 305.66 221.012 305.516V303.932L223.532 300.044H227.708L224.612 304.22C226.628 304.364 227.348 306.092 227.348 307.856V310.052C227.348 313.796 225.08 315.488 220.4 315.488C215.72 315.488 213.488 313.796 213.488 310.052V308.828C213.488 305.732 216.008 304.004 216.368 302.564H213.812V300.044H220.58V301.268C220.58 303.464 217.736 305.516 217.736 309.296C217.736 311.06 218.312 312.212 220.4 312.212C222.524 312.212 223.1 311.06 223.1 309.08V308.648ZM239.746 315.272H235.498V305.372C235.498 304.04 234.598 303.392 233.014 303.32C231.682 303.248 230.494 303.572 229.018 304.004V300.872C230.566 300.224 232.15 299.936 234.022 299.936C237.154 299.936 239.746 301.196 239.746 304.364V315.272ZM245.964 315.272H241.896V300.044H246.072V308.72C246.072 310.628 247.512 312.104 249.492 312.104C251.364 312.104 252.3 311.168 252.3 309.044V300.044H256.512V310.124C256.512 313.472 254.388 315.488 251.436 315.488C248.628 315.488 246.684 314.372 246.072 312.464C246.036 312.464 246 312.464 245.964 312.464V315.272ZM273.751 315.272H269.503V304.868C269.503 304.004 269.323 303.356 268.495 303.356L266.803 304.112H265.723L264.067 303.356C262.915 303.608 262.591 305.228 262.591 307.82C262.591 310.016 263.563 312.212 265.795 312.212H267.091V315.272H265.579C261.043 315.272 258.343 313.256 258.343 307.82C258.343 303.248 259.135 300.008 263.059 299.936L266.263 301.664L269.503 299.936C272.671 299.936 273.751 301.376 273.751 304.184V315.272ZM273.733 295.436V298.1H260.161V295.436H273.733ZM63.2994 342.596V351.272H59.0514V344.864L55.9554 345.152C54.2634 345.296 53.2554 345.692 53.2554 346.844C53.2554 347.78 54.0114 348.248 55.2714 348.248H56.6754V351.272H55.4154C52.0674 351.272 48.8994 351.02 48.8994 347.168C48.8994 343.388 52.3554 342.812 57.1074 342.452L59.0874 342.272C58.9434 340.328 58.0794 339.356 55.9554 339.356C54.6954 339.356 53.6874 340.076 53.2914 341.192H49.2234C49.6554 338.06 52.4274 335.936 55.9554 335.936C57.1434 335.936 58.1514 336.188 59.0874 336.548L60.2754 335.036H64.3434L61.7514 338.132C62.7594 339.104 63.2994 340.508 63.2994 342.596ZM59.8471 353.108H63.2671V355.448C63.2671 358.292 60.5311 358.724 58.7311 358.724C56.9311 358.724 54.5911 358.292 54.3751 355.628H52.8991V353.108H57.6151V354.908C57.6151 355.772 57.8671 356.312 58.7311 356.312C59.6311 356.312 59.8471 355.772 59.8471 354.728V353.108ZM63.1231 328.988V334.1H59.4511V328.988H63.1231ZM73.2751 342.38C75.1831 342.992 78.6031 343.64 78.1711 347.564C77.8471 350.516 74.4631 351.488 71.6551 351.488C68.5951 351.488 65.3191 350.048 65.2111 346.628H68.9551C69.2791 347.636 70.5031 348.212 71.6911 348.212C72.9511 348.212 74.2471 347.816 74.2471 346.772C74.2471 345.872 72.8071 345.512 70.3951 344.972C67.8031 344.396 65.3911 343.496 65.3911 340.616C65.3911 337.376 68.7751 335.936 71.7991 335.936C74.7151 335.936 78.1351 337.232 78.1711 340.796H74.4271C74.2111 339.644 73.0591 339.248 71.7991 339.248C70.7551 339.248 69.4591 339.68 69.4591 340.544C69.4591 341.588 71.4031 341.768 73.2751 342.38ZM72.8521 331.436H79.5841V334.1H72.0241C67.8481 334.1 67.4881 332.408 67.4881 330.14V329.78H70.9801V330.068C70.9801 331.292 71.3401 331.472 72.8521 331.436ZM92.3641 337.88C93.5881 338.924 94.0201 340.328 93.8761 341.984C93.7321 344.036 91.0321 348.428 89.1601 351.272H84.7321L80.4841 343.028H84.6601L87.0001 347.996H87.1441C88.5121 345.8 89.8441 343.388 89.8441 341.948C89.8441 340.04 88.4401 339.284 86.8201 339.284C85.2361 339.284 83.9401 339.932 83.6521 341.192H79.6201C79.9441 337.916 82.7521 335.936 86.8201 335.936C87.9001 335.936 88.8361 336.188 89.6281 336.476L90.7441 335.036H94.7401L92.3641 337.88ZM93.2281 353.504V356.168H80.4841V353.504H93.2281ZM108.694 339.284H100.918C100.522 339.284 100.198 339.356 100.198 339.68C100.198 341.084 109.198 340.4 109.198 344.756V346.628C109.198 349.976 106.354 351.416 102.322 351.416C98.5063 351.416 95.6983 349.616 95.6983 346.592V344.432H99.4423V346.484C99.4423 347.708 100.954 348.176 102.322 348.176C103.798 348.176 105.13 347.78 105.13 346.232V345.296C105.13 343.424 95.6263 344.252 95.6263 339.392C95.6263 335.72 99.6943 336.044 100.45 336.044H108.694V339.284ZM118.943 342.38C120.851 342.992 124.271 343.64 123.839 347.564C123.515 350.516 120.131 351.488 117.323 351.488C114.263 351.488 110.987 350.048 110.879 346.628H114.623C114.947 347.636 116.171 348.212 117.359 348.212C118.619 348.212 119.915 347.816 119.915 346.772C119.915 345.872 118.475 345.512 116.063 344.972C113.471 344.396 111.059 343.496 111.059 340.616C111.059 337.376 114.443 335.936 117.467 335.936C120.383 335.936 123.803 337.232 123.839 340.796H120.095C119.879 339.644 118.727 339.248 117.467 339.248C116.423 339.248 115.127 339.68 115.127 340.544C115.127 341.588 117.071 341.768 118.943 342.38ZM133.568 342.38C135.476 342.992 138.896 343.64 138.464 347.564C138.14 350.516 134.756 351.488 131.948 351.488C128.888 351.488 125.612 350.048 125.504 346.628H129.248C129.572 347.636 130.796 348.212 131.984 348.212C133.244 348.212 134.54 347.816 134.54 346.772C134.54 345.872 133.1 345.512 130.688 344.972C128.096 344.396 125.684 343.496 125.684 340.616C125.684 337.376 129.068 335.936 132.092 335.936C135.008 335.936 138.428 337.232 138.464 340.796H134.72C134.504 339.644 133.352 339.248 132.092 339.248C131.048 339.248 129.752 339.68 129.752 340.544C129.752 341.588 131.696 341.768 133.568 342.38ZM144.485 351.272H140.417V336.044H144.593V344.72C144.593 346.628 146.033 348.104 148.013 348.104C149.885 348.104 150.821 347.168 150.821 345.044V336.044H155.033V346.124C155.033 349.472 152.909 351.488 149.957 351.488C147.149 351.488 145.205 350.372 144.593 348.464C144.557 348.464 144.521 348.464 144.485 348.464V351.272ZM171.732 336.044V351.272H167.628V348.464C167.592 348.464 167.556 348.464 167.52 348.464C166.908 350.372 165.144 351.488 162.336 351.488C159.384 351.488 157.116 349.544 157.116 346.196V336.044H161.292V345.044C161.292 347.168 162.444 348.104 164.316 348.104C166.296 348.104 167.52 346.628 167.52 344.72V336.044H171.732ZM168.163 353.108H171.583V355.448C171.583 358.292 168.847 358.724 167.047 358.724C165.247 358.724 162.907 358.292 162.691 355.628H161.215V353.108H165.931V354.908C165.931 355.772 166.183 356.312 167.047 356.312C167.947 356.312 168.163 355.772 168.163 354.728V353.108ZM190.267 351.488C185.407 351.488 183.535 349.58 183.535 345.728V341.912C183.535 339.968 182.671 339.32 180.619 339.32H178.063V346.808C178.099 347.852 178.495 348.464 179.323 348.464H180.655V351.272H179.179C176.155 351.272 173.815 350.912 173.815 347.276V336.044H180.547C185.263 336.044 187.783 337.844 187.783 341.696V345.404C187.783 347.24 188.251 348.176 190.267 348.176C192.103 348.176 192.679 347.528 192.679 345.404V336.044H196.927V345.728C196.927 349.58 194.983 351.488 190.267 351.488ZM196.639 353.504V356.168H183.859V353.504H196.639ZM204.567 351.272H200.355V339.752C200.355 336.224 203.847 335.216 203.847 333.704C203.847 332.984 203.343 332.408 202.299 332.408C201.327 332.408 200.607 332.768 200.607 334.388H197.151C197.151 330.86 199.311 329.42 202.335 329.42C205.431 329.42 207.411 330.644 207.411 333.632C207.411 336.512 204.567 336.98 204.567 339.788V351.272ZM222.178 336.044V338.348C222.178 340.832 220.81 342.02 218.47 342.524C220.558 342.488 222.178 343.496 222.178 346.052V351.272H217.966V346.16C217.966 344.396 216.67 344.144 215.41 344.216L211.954 344.576V351.272H207.778V336.044H211.954V341.624L214.834 341.3C216.958 341.048 217.966 340.364 217.966 338.348V336.044H222.178ZM228.333 351.272H224.265V336.044H228.441V344.72C228.441 346.628 229.881 348.104 231.861 348.104C233.733 348.104 234.669 347.168 234.669 345.044V336.044H238.881V346.124C238.881 349.472 236.757 351.488 233.805 351.488C230.997 351.488 229.053 350.372 228.441 348.464C228.405 348.464 228.369 348.464 228.333 348.464V351.272ZM238.588 328.988V334.1H234.916V328.988H238.588ZM245.86 339.032L248.776 332.804H252.808L249.244 339.032H245.86ZM240.388 339.032L243.304 332.804H247.336L243.772 339.032H240.388Z" fill="#F8EB54"/>
</svg>
