<svg width="281" height="284" viewBox="0 0 281 284" fill="none" xmlns="http://www.w3.org/2000/svg">
<path d="M4.34375 92.1701V48.8509H16.4319V92.1701H4.34375Z" fill="white"/>
<path d="M36.3281 92.1701L21.9895 48.8509H34.9018L44.5127 82.3347H44.7372L54.1211 48.8509H67.1839L52.6949 92.1701H36.3281Z" fill="white"/>
<path d="M65.007 30.6821V43.2959H26.418V35.7133H54.4215V30.6821H65.007Z" fill="white"/>
<path d="M90.4571 62.9649H93.0109V70.5475H91.0591C86.8545 70.5475 82.6499 73.0249 82.6499 76.9284C82.6499 80.832 85.2038 83.4598 91.2837 83.4598C97.3635 83.4598 99.6929 80.3064 99.6929 73.7009V48.8509H111.631V76.1043C111.631 87.0648 105.025 92.7721 91.2861 92.7721C77.5472 92.7721 70.5642 86.6158 70.5642 78.2066C70.5642 72.5758 73.6412 68.5957 78.3713 66.7945C73.2661 65.3683 70.8628 60.4876 70.8628 56.4335C70.8628 53.0555 71.3143 51.1037 71.9139 48.8509H84.0021C83.252 51.4788 83.1755 54.5557 83.1755 56.658C83.1755 60.1125 86.63 62.9649 90.4571 62.9649Z" fill="white"/>
<path d="M159.226 92.1701H147.515V84.2124H147.214C145.487 89.6187 140.458 92.7721 132.424 92.7721C124.39 92.7721 117.634 87.2918 117.634 77.7575V48.8534H129.495V74.4535C129.495 80.4594 132.799 83.1613 138.055 83.1613C143.76 83.1613 147.214 78.9567 147.214 73.5504V48.8509H159.226V92.1701Z" fill="white"/>
<path d="M168.911 92.1696V59.3619C168.911 49.376 178.82 46.4495 178.82 42.1684C178.82 40.1402 177.394 38.4894 174.465 38.4894C171.536 38.4894 169.661 39.5406 169.661 44.1202H159.826C159.826 34.0603 165.906 30.0062 174.539 30.0062C183.173 30.0062 188.954 33.4607 188.954 41.9439C188.954 50.4271 180.92 51.4783 180.92 59.5124V92.1696H168.908H168.911Z" fill="white"/>
<path d="M231 55.3811C231 62.4381 227.096 65.8161 220.488 67.2423C226.42 67.1683 231 70.0207 231 77.3023V92.1664H218.988V77.6008C218.988 72.5696 215.309 71.896 211.78 72.1205L201.945 73.0977V92.1664H190.007V48.8472H201.945V64.6885L210.127 63.7878C216.133 63.0377 218.985 61.16 218.985 55.3786V48.8472H230.997V55.3786L231 55.3811Z" fill="white"/>
<path d="M237.006 92.1701V48.8509H248.867V73.5504C248.867 78.9567 252.921 83.1613 258.552 83.1613C263.882 83.1613 266.586 80.4594 266.586 74.4535V48.8534H278.598V77.5329C278.598 87.0673 272.518 92.7721 264.109 92.7721C256.151 92.7721 250.594 89.6187 248.867 84.2124H248.566V92.1701H237.003H237.006Z" fill="white"/>
<path d="M277.771 43.2937H267.26V28.7281H277.771V43.2937Z" fill="white"/>
<path d="M5.6626 189.353V141.233H19.0907V189.353H5.6626Z" fill="white"/>
<path d="M72.3824 189.354H58.9543V169.088L49.114 170.006C43.693 170.423 40.6061 171.758 40.6061 175.343C40.6061 178.346 43.0243 179.763 47.029 179.763H51.4482V189.354H47.446C36.8531 189.354 26.845 188.52 26.845 176.343C26.845 162.749 41.6079 162.249 59.0382 160.914C58.6212 154.742 55.87 151.656 49.114 151.656C45.1932 151.656 41.941 153.99 40.69 157.494H27.8468C29.2656 147.569 38.0227 140.897 49.114 140.897C64.2101 140.897 72.3824 147.236 72.3824 161.915V189.354Z" fill="white"/>
<path d="M72.2988 121.048V135.058H29.5151V126.634H49.7806V121.045H58.7869V126.634H63.3739V121.045H72.2988V121.048Z" fill="white"/>
<path d="M91.9795 163.751V168.506C91.9795 175.679 95.2317 179.681 102.155 179.681C109.079 179.681 112.247 175.679 112.247 168.506V162.5C112.247 155.411 107.994 151.658 100.988 151.658C96.6505 151.658 92.7321 153.743 91.4811 157.496H78.554C79.9728 147.572 89.48 140.9 100.988 140.9C116.501 140.9 125.592 147.821 125.592 162.5V168.422C125.592 183.185 117.669 190.023 102.155 190.023C86.6424 190.023 78.7193 183.183 78.7193 168.422V163.751H91.9795Z" fill="white"/>
<path d="M132.095 189.354V159.579C132.095 147.318 140.018 140.897 155.28 140.897C170.541 140.897 178.464 147.32 178.464 159.579V189.354H165.036V160.832C165.036 154.409 161.949 151.658 155.277 151.658C148.605 151.658 145.518 154.409 145.518 160.832V189.354H132.09H132.095Z" fill="white"/>
<path d="M219.581 189.354V156.494C219.581 153.743 218.996 151.658 216.413 151.658L211.076 154.076H207.656L202.402 151.658C198.733 152.492 197.731 157.58 197.731 165.836C197.731 172.757 200.818 179.681 207.823 179.681H211.994V189.356H207.157C192.811 189.356 184.306 183.017 184.306 165.836C184.306 151.325 186.808 141.065 199.234 140.9L209.326 146.321L219.584 140.9C229.592 140.9 233.012 145.403 233.012 154.328V189.356H219.584L219.581 189.354Z" fill="white"/>
<path d="M237.928 126.638V135.062H214.075C200.815 135.062 199.729 129.724 199.729 122.551V121.384H210.739V122.302C210.739 126.223 211.906 126.805 216.661 126.64H237.928V126.638Z" fill="white"/>
<path d="M208.489 102.534H217.414C222.085 102.534 222.085 109.706 225.838 109.706H236.929V117.462H220.999C216.412 117.63 216.163 110.124 212.575 110.124H208.489V102.534Z" fill="white"/>
<path d="M262.031 189.687C253.775 189.687 249.437 187.185 246.686 181.596L236.677 158.661H250.189L258.446 178.428C259.03 179.595 260.114 180.513 261.532 180.513C262.951 180.513 263.617 179.595 263.617 176.844V141.231H277.046V176.76C277.046 185.601 271.708 189.687 262.033 189.687H262.031Z" fill="white"/>
<path d="M108.292 117.34V130.183H103.69V118.633C103.69 115.786 101.968 114.66 99.4855 114.66C96.5739 114.66 94.8516 116.647 94.8516 119.758V130.183H90.2498V111.085H94.7184V114.527H94.785C95.5795 112.178 98.1951 110.952 101.571 110.952C105.277 110.952 108.29 113.237 108.29 117.34H108.292Z" fill="#2BB25C"/>
<path d="M110.244 105.522V108.634H101.176C95.9793 108.634 95.6487 106.517 95.6487 103.768V103.272H99.4881V103.669C99.4881 105.258 99.8533 105.557 101.904 105.522H110.244Z" fill="#2BB25C"/>
<path d="M98.8592 95.9599H102.168C104.021 95.9599 104.021 98.8394 105.544 98.8394H109.978V101.687H103.821C102.035 101.786 101.934 98.8073 100.478 98.8073H98.8567V95.9599H98.8592Z" fill="#2BB25C"/>
<path d="M119.81 130.315C116.832 130.315 115.208 129.422 114.216 127.436L109.98 118.002H114.68L118.288 126.244C118.52 126.74 119.05 127.07 119.645 127.07C120.274 127.07 120.573 126.705 120.637 125.58V111.084H125.271V125.481C125.271 128.857 123.284 130.313 119.81 130.313V130.315Z" fill="#2BB25C"/>
<path d="M141.722 130.183V126.576H141.588C140.927 128.96 138.511 130.448 134.901 130.448C131.292 130.448 128.316 128.098 128.316 123.894V120.617H132.918V122.67C132.918 125.517 134.64 126.741 137.021 126.741C139.802 126.741 141.588 124.755 141.588 122.107V119.129C141.588 116.218 139.967 114.727 136.821 114.727C134.869 114.727 133.179 115.655 132.617 117.276H128.148C128.711 113.469 132.417 110.954 136.821 110.954C142.713 110.954 146.188 113.437 146.188 119.129V130.183H141.719H141.722Z" fill="#2BB25C"/>
<path d="M167.008 111.085V123C167.008 128.064 163.897 130.447 158.071 130.447C152.245 130.447 149.102 128.064 149.102 123V111.085H153.736V122.339C153.736 125.085 154.96 126.741 158.071 126.741C161.183 126.741 162.374 125.085 162.374 122.339V111.085H167.008Z" fill="#2BB25C"/>
<path d="M168.96 105.522V108.634H159.892C154.696 108.634 154.365 106.517 154.365 103.768V103.272H158.205V103.669C158.205 105.258 158.57 105.557 160.62 105.522H168.96Z" fill="#2BB25C"/>
<path d="M187.826 111.085V123C187.826 128.064 184.715 130.447 178.889 130.447C173.063 130.447 169.92 128.064 169.92 123V111.085H174.554V122.339C174.554 125.085 175.777 126.741 178.889 126.741C182 126.741 183.192 125.085 183.192 122.339V111.085H187.826Z" fill="#2BB25C"/>
<path d="M15.0039 278.728L19.0999 223.037L4.37395 227.133L0.5 212.077L40.6904 199.786L34.7117 280.278L15.0039 278.728Z" fill="#2BB25C"/>
<path d="M50.6543 235.995C51.318 228.244 53.0897 221.602 55.9693 216.176C61.0621 206.765 69.6983 201.119 81.6558 201.23C82.5416 201.119 83.4274 201.23 84.3132 201.341C94.7211 202.116 102.249 207.764 107.009 216.62C110.552 223.485 112.213 232.232 112.102 242.529C112.102 244.522 111.991 246.514 111.88 248.396C111.216 256.147 109.556 262.789 106.565 268.326C101.361 277.737 92.8359 283.272 80.8785 283.272C79.9927 283.272 79.1068 283.161 78.221 283.161C67.8132 282.275 60.1738 276.74 55.5251 267.882C51.9818 261.018 50.3212 252.27 50.4322 242.085C50.4322 239.76 50.5433 237.878 50.6543 235.995ZM72.5754 259.91C74.125 264.781 76.6714 267.216 80.5478 267.549H81.1006C85.3076 267.549 87.9651 265.114 89.5147 260.021C90.1784 257.696 90.7336 254.706 90.9532 251.274C91.1753 248.616 91.2863 245.628 91.3949 242.307C91.3949 234.778 91.0618 228.8 89.8453 224.482C88.4068 219.722 86.0799 217.284 82.317 217.064L81.5422 216.953C77.3352 216.953 74.4556 219.278 72.9061 224.371C72.3533 226.806 71.7982 229.685 71.5786 233.118C71.3565 235.775 71.2454 238.874 71.1369 242.196C71.1369 249.724 71.3589 255.592 72.5754 259.91ZM119.852 239.316C121.513 218.059 131.366 193.922 155.061 195.693C173.219 197.021 184.51 209.864 182.739 233.668C181.078 254.925 171.334 279.062 147.53 277.291C129.483 275.852 118.081 263.009 119.852 239.316ZM162.589 228.797C163.364 218.278 161.925 212.08 154.617 211.525C144.32 210.75 140.999 231.233 140.113 244.187C139.227 254.817 140.777 261.015 147.752 261.57C158.382 262.234 161.592 241.64 162.589 228.8V228.797Z" fill="#2BB25C"/>
<path d="M207.091 256.505C196.683 256.505 187.939 247.869 187.939 237.019C187.939 226.17 196.686 217.422 207.202 217.311C217.721 217.311 226.246 225.837 226.355 236.686C226.355 247.536 217.83 256.394 207.091 256.505ZM207.091 228.05C202.44 228.05 198.899 231.924 198.899 236.797C198.899 241.67 202.554 245.764 207.313 245.764C212.073 245.764 215.505 241.668 215.505 236.797C215.505 231.926 211.851 228.05 207.091 228.05ZM228.364 277.495L214.746 279.267L248.405 201.324L261.801 199.552L228.364 277.495ZM261.236 278.951C250.828 278.951 242.084 270.315 242.084 259.466C242.084 248.616 250.831 239.869 261.347 239.758C271.866 239.758 280.391 248.283 280.5 259.133C280.5 269.982 271.975 278.84 261.236 278.951ZM261.236 250.496C256.588 250.496 253.044 254.37 253.044 259.244C253.044 264.117 256.699 268.21 261.458 268.21C266.218 268.21 269.65 264.114 269.65 259.244C269.65 254.373 265.996 250.496 261.236 250.496Z" fill="#2BB25C"/>
<path d="M271.22 215.642L279.942 210.621L274.921 219.344L279.942 228.069L271.22 223.045L262.495 228.069L267.519 219.344L262.495 210.621L271.22 215.642Z" fill="#F8EB54"/>
<path d="M44.5853 22.7281H41.58V11.9574H44.5853V22.7281ZM57.15 11.9574H60.174L57.7287 22.7281H55.078L53.0247 15.8215L50.99 22.7281H48.302L45.894 11.9574H48.918L50.038 18.6028L51.9793 12.2001H54.0887L56.03 18.6028L57.15 11.9574ZM57.5662 7.44012H59.5635V10.5761H49.9875V8.69078H54.5235V7.44012H56.5395V8.69078H57.5662V7.44012ZM59.4889 3.22145V6.63745H56.9689V3.22145H59.4889ZM61.0009 16.9975H63.9689V18.0615C63.9689 19.6668 64.6969 20.5628 66.2462 20.5628C67.7955 20.5628 68.5049 19.6668 68.5049 18.0615V16.7175C68.5049 15.1308 67.5529 14.2908 65.9849 14.2908C65.0142 14.2908 64.1369 14.7575 63.8569 15.5975H60.9635C61.2809 13.3761 63.4089 11.8828 65.9849 11.8828C69.4569 11.8828 71.4915 13.4321 71.4915 16.7175V18.0428C71.4915 21.3468 69.7182 22.8775 66.2462 22.8775C62.7742 22.8775 61.0009 21.3468 61.0009 18.0428V16.9975ZM80.3156 9.51212H83.321V18.7335C83.321 21.4588 81.5476 22.8775 78.1316 22.8775C74.7156 22.8775 72.9423 21.4588 72.9423 18.7335V11.9574H75.9476V18.2668C75.9476 19.6668 76.6196 20.4881 78.1316 20.4881C79.625 20.4881 80.3156 19.6668 80.3156 18.2668V9.51212ZM90.2975 16.4375C91.6602 16.8668 94.0682 17.3335 93.7695 20.0961C93.5455 22.1868 91.1375 22.8775 89.1588 22.8775C86.9935 22.8775 84.6788 21.8695 84.6042 19.4428H87.2548C87.4788 20.1521 88.3375 20.5628 89.1775 20.5628C90.0735 20.5628 90.9882 20.2828 90.9882 19.5361C90.9882 18.9015 89.9802 18.6588 88.2628 18.2668C86.4335 17.8561 84.7162 17.2215 84.7162 15.1868C84.7162 12.8908 87.1242 11.8828 89.2522 11.8828C91.3242 11.8828 93.7508 12.7975 93.7695 15.3175H91.1188C90.9695 14.4961 90.1482 14.2161 89.2522 14.2161C88.5242 14.2161 87.6095 14.5335 87.6095 15.1308C87.6095 15.8775 88.9722 16.0081 90.2975 16.4375ZM98.5988 14.4775H100.54V16.5308H97.9828C95.2574 16.5308 94.7721 15.1121 94.7721 13.7308V13.4135H97.2734V13.6375C97.2734 14.2908 97.6094 14.4775 98.5988 14.4775ZM98.5988 19.7415H100.54V21.7948H97.9828C95.2574 21.7948 94.7721 20.3761 94.7721 19.0135V18.6775H97.2734V18.9015C97.2734 19.5735 97.5908 19.7415 98.5988 19.7415ZM108.484 18.0428C108.484 16.5121 107.999 15.9335 106.991 15.8215V14.7015L108.783 11.9574H111.732L109.548 14.9068C110.967 15.0188 111.489 16.2321 111.489 17.4828V19.0321C111.489 21.6828 109.884 22.8775 106.561 22.8775C103.257 22.8775 101.671 21.6828 101.671 19.0321V18.1735C101.671 15.9708 103.463 14.7575 103.705 13.7308H101.895V11.9574H106.692V12.8161C106.692 14.3655 104.676 15.8215 104.676 18.4908C104.676 19.7415 105.087 20.5628 106.561 20.5628C108.073 20.5628 108.484 19.7415 108.484 18.3415V18.0428ZM120.235 22.7281H117.23V15.7281C117.23 14.7761 116.595 14.3281 115.475 14.2721C114.523 14.2161 113.683 14.4588 112.638 14.7575V12.5361C113.739 12.0881 114.859 11.8828 116.185 11.8828C118.406 11.8828 120.235 12.7601 120.235 15.0188V22.7281ZM124.635 22.7281H121.76V11.9574H124.709V18.0988C124.709 19.4428 125.717 20.4881 127.117 20.4881C128.443 20.4881 129.115 19.8161 129.115 18.3228V11.9574H132.101V19.0881C132.101 21.4588 130.589 22.8775 128.499 22.8775C126.52 22.8775 125.139 22.0935 124.709 20.7495C124.672 20.7495 124.653 20.7495 124.635 20.7495V22.7281ZM144.287 22.7281H141.282V15.3735C141.282 14.7575 141.151 14.2908 140.573 14.2908L139.378 14.8321H138.613L137.437 14.2908C136.615 14.4775 136.391 15.6161 136.391 17.4641C136.391 19.0135 137.082 20.5628 138.65 20.5628H139.583V22.7281H138.501C135.29 22.7281 133.386 21.3095 133.386 17.4641C133.386 14.2161 133.946 11.9201 136.727 11.8828L138.986 13.0961L141.282 11.8828C143.522 11.8828 144.287 12.8908 144.287 14.8881V22.7281ZM144.293 8.69078V10.5761H134.698V8.69078H144.293ZM151.274 16.4375C152.637 16.8668 155.045 17.3335 154.746 20.0961C154.522 22.1868 152.114 22.8775 150.135 22.8775C147.97 22.8775 145.655 21.8695 145.581 19.4428H148.231C148.455 20.1521 149.314 20.5628 150.154 20.5628C151.05 20.5628 151.965 20.2828 151.965 19.5361C151.965 18.9015 150.957 18.6588 149.239 18.2668C147.41 17.8561 145.693 17.2215 145.693 15.1868C145.693 12.8908 148.101 11.8828 150.229 11.8828C152.301 11.8828 154.727 12.7975 154.746 15.3175H152.095C151.946 14.4961 151.125 14.2161 150.229 14.2161C149.501 14.2161 148.586 14.5335 148.586 15.1308C148.586 15.8775 149.949 16.0081 151.274 16.4375ZM150.97 8.69078H155.73V10.5761H150.391C147.423 10.5761 147.181 9.38145 147.181 7.77612V7.51478H149.645V7.72012C149.645 8.59745 149.906 8.72812 150.97 8.69078ZM164.783 13.2455C165.642 13.9921 165.941 14.9815 165.847 16.1575C165.735 17.6135 163.831 20.7121 162.506 22.7281H159.37L156.365 16.9041H159.314L160.975 20.4135H161.087C162.039 18.8641 162.991 17.1468 162.991 16.1388C162.991 14.7761 162.002 14.2535 160.845 14.2535C159.725 14.2535 158.81 14.7015 158.605 15.5975H155.749C155.991 13.2828 157.97 11.8828 160.845 11.8828C161.61 11.8828 162.282 12.0508 162.842 12.2561L163.626 11.2481H166.463L164.783 13.2455ZM165.381 24.3148V26.2001H156.365V24.3148H165.381ZM176.335 14.2535H170.828C170.548 14.2535 170.324 14.2908 170.324 14.5335C170.324 15.5228 176.689 15.0375 176.689 18.1175V19.4428C176.689 21.8135 174.673 22.8215 171.836 22.8215C169.129 22.8215 167.151 21.5521 167.151 19.4241V17.8935H169.783V19.3495C169.783 20.2081 170.865 20.5441 171.836 20.5441C172.881 20.5441 173.815 20.2641 173.815 19.1628V18.4908C173.815 17.1841 167.095 17.7628 167.095 14.3281C167.095 11.7334 169.969 11.9574 170.511 11.9574H176.335V14.2535ZM183.594 16.4375C184.957 16.8668 187.365 17.3335 187.066 20.0961C186.842 22.1868 184.434 22.8775 182.456 22.8775C180.29 22.8775 177.976 21.8695 177.901 19.4428H180.552C180.776 20.1521 181.634 20.5628 182.474 20.5628C183.37 20.5628 184.285 20.2828 184.285 19.5361C184.285 18.9015 183.277 18.6588 181.56 18.2668C179.73 17.8561 178.013 17.2215 178.013 15.1868C178.013 12.8908 180.421 11.8828 182.549 11.8828C184.621 11.8828 187.048 12.7975 187.066 15.3175H184.416C184.266 14.4961 183.445 14.2161 182.549 14.2161C181.821 14.2161 180.906 14.5335 180.906 15.1308C180.906 15.8775 182.269 16.0081 183.594 16.4375ZM193.93 16.4375C195.293 16.8668 197.701 17.3335 197.402 20.0961C197.178 22.1868 194.77 22.8775 192.792 22.8775C190.626 22.8775 188.312 21.8695 188.237 19.4428H190.888C191.112 20.1521 191.97 20.5628 192.81 20.5628C193.706 20.5628 194.621 20.2828 194.621 19.5361C194.621 18.9015 193.613 18.6588 191.896 18.2668C190.066 17.8561 188.349 17.2215 188.349 15.1868C188.349 12.8908 190.757 11.8828 192.885 11.8828C194.957 11.8828 197.384 12.7975 197.402 15.3175H194.752C194.602 14.4961 193.781 14.2161 192.885 14.2161C192.157 14.2161 191.242 14.5335 191.242 15.1308C191.242 15.8775 192.605 16.0081 193.93 16.4375ZM201.653 22.7281H198.778V11.9574H201.728V18.0988C201.728 19.4428 202.736 20.4881 204.136 20.4881C205.461 20.4881 206.133 19.8161 206.133 18.3228V11.9574H209.12V19.0881C209.12 21.4588 207.608 22.8775 205.517 22.8775C203.538 22.8775 202.157 22.0935 201.728 20.7495C201.69 20.7495 201.672 20.7495 201.653 20.7495V22.7281ZM220.932 11.9574V22.7281H218.02V20.7495C218.001 20.7495 217.964 20.7495 217.945 20.7495C217.516 22.0935 216.265 22.8775 214.268 22.8775C212.196 22.8775 210.591 21.5148 210.591 19.1441V11.9574H213.54V18.3228C213.54 19.8161 214.361 20.4881 215.668 20.4881C217.087 20.4881 217.945 19.4428 217.945 18.0988V11.9574H220.932ZM218.39 24.0348H220.817V25.6775C220.817 27.6935 218.875 27.9921 217.606 27.9921C216.337 27.9921 214.675 27.6935 214.526 25.8081H213.481V24.0348H216.822V25.3041C216.822 25.9201 216.99 26.2935 217.606 26.2935C218.241 26.2935 218.39 25.9201 218.39 25.1735V24.0348ZM234.033 22.8775C230.598 22.8775 229.273 21.5335 229.273 18.8081V16.1015C229.273 14.7388 228.657 14.2721 227.201 14.2721H225.409V19.5735C225.427 20.3015 225.707 20.7495 226.286 20.7495H227.238V22.7281H226.193C224.046 22.7281 222.403 22.4668 222.403 19.9095V11.9574H227.163C230.486 11.9574 232.278 13.2268 232.278 15.9521V18.5841C232.278 19.8721 232.614 20.5441 234.033 20.5441C235.339 20.5441 235.75 20.0775 235.75 18.5841V11.9574H238.755V18.8081C238.755 21.5335 237.374 22.8775 234.033 22.8775ZM238.55 24.3148V26.2001H229.497V24.3148H238.55Z" fill="#8C92FF"/>
<path d="M204.141 204.809V210.95H201.136V206.414L198.933 206.62C197.738 206.713 197.029 207.012 197.029 207.814C197.029 208.486 197.57 208.804 198.466 208.804H199.456V210.95H198.56C196.189 210.95 193.949 210.764 193.949 208.038C193.949 205.369 196.394 204.958 199.754 204.716L201.154 204.585C201.061 203.204 200.445 202.513 198.933 202.513C198.056 202.513 197.328 203.036 197.048 203.82H194.173C194.49 201.598 196.45 200.105 198.933 200.105C199.773 200.105 200.501 200.273 201.154 200.534L201.994 199.47H204.869L203.04 201.654C203.749 202.345 204.141 203.334 204.141 204.809ZM215.698 204.809V210.95H212.693V206.414L210.49 206.62C209.296 206.713 208.586 207.012 208.586 207.814C208.586 208.486 209.128 208.804 210.024 208.804H211.013V210.95H210.117C207.746 210.95 205.506 210.764 205.506 208.038C205.506 205.369 207.952 204.958 211.312 204.716L212.712 204.585C212.618 203.204 212.002 202.513 210.49 202.513C209.613 202.513 208.885 203.036 208.605 203.82H205.73C206.048 201.598 208.008 200.105 210.49 200.105C211.33 200.105 212.058 200.273 212.712 200.534L213.552 199.47H216.426L214.597 201.654C215.306 202.345 215.698 203.334 215.698 204.809ZM222.738 204.66C224.101 205.089 226.509 205.556 226.21 208.318C225.986 210.409 223.578 211.1 221.6 211.1C219.434 211.1 217.12 210.092 217.045 207.665H219.696C219.92 208.374 220.778 208.785 221.618 208.785C222.514 208.785 223.429 208.505 223.429 207.758C223.429 207.124 222.421 206.881 220.704 206.489C218.874 206.078 217.157 205.444 217.157 203.409C217.157 201.113 219.565 200.105 221.693 200.105C223.765 200.105 226.192 201.02 226.21 203.54H223.56C223.41 202.718 222.589 202.438 221.693 202.438C220.965 202.438 220.05 202.756 220.05 203.353C220.05 204.1 221.413 204.23 222.738 204.66ZM227.175 209.289C227.175 208.374 227.829 207.646 228.949 207.646C230.069 207.646 230.741 208.374 230.741 209.289C230.741 210.204 230.069 210.95 228.949 210.95C227.829 210.95 227.175 210.204 227.175 209.289Z" fill="#8C92FF"/>
</svg>
