<svg width="288" height="86" viewBox="0 0 288 86" fill="none" xmlns="http://www.w3.org/2000/svg">
<path d="M72.071 11.9375H66.299V10.6535H68.603V4.7015H68.495L66.671 6.8615L65.687 6.0335L67.763 3.5615H70.151V10.6535H72.071V11.9375ZM76.0023 12.0815C74.0463 12.0815 72.9423 11.0495 72.9423 9.6455C72.9423 8.5655 73.6023 7.8815 74.5983 7.6055V7.5095C73.7703 7.2095 73.1943 6.5615 73.1943 5.5895C73.1943 4.3175 74.2023 3.4175 76.0023 3.4175C77.8023 3.4175 78.8103 4.3175 78.8103 5.5895C78.8103 6.5615 78.2343 7.2095 77.4063 7.5095V7.6055C78.4023 7.8815 79.0623 8.5655 79.0623 9.6455C79.0623 11.0495 77.9583 12.0815 76.0023 12.0815ZM76.0023 10.8455C76.9023 10.8455 77.4183 10.4015 77.4183 9.6575V9.4055C77.4183 8.6615 76.9023 8.2175 76.0023 8.2175C75.1023 8.2175 74.5863 8.6615 74.5863 9.4055V9.6575C74.5863 10.4015 75.1023 10.8455 76.0023 10.8455ZM76.0023 7.0415C76.8423 7.0415 77.3103 6.6335 77.3103 5.9375V5.7455C77.3103 5.0615 76.8423 4.6535 76.0023 4.6535C75.1623 4.6535 74.6943 5.0615 74.6943 5.7455V5.9375C74.6943 6.6335 75.1623 7.0415 76.0023 7.0415ZM85.1936 12.0575C83.9096 12.0575 83.0696 11.4335 83.0696 10.1135C83.0696 8.8775 83.8496 8.1695 85.1936 8.1695H87.2096V7.7375C87.2096 6.8735 86.7536 6.4055 85.7576 6.4055C84.8216 6.4055 84.2816 6.8735 83.9096 7.4255L82.9376 6.5735C83.4896 5.7335 84.3416 5.1695 85.8536 5.1695C86.6456 5.1695 87.2816 5.3375 87.7616 5.6375C87.8456 5.1815 88.1696 4.9895 88.6616 4.9895H90.0656V6.2615H88.3856V6.3095C88.6256 6.6695 88.7456 7.1255 88.7456 7.6775V11.9375H87.2096V9.1655H85.7096C85.0136 9.1655 84.6416 9.4535 84.6416 10.0175V10.2455C84.6416 10.7975 84.9776 11.1455 85.5416 11.1455C85.6736 11.1455 85.7816 11.1335 85.8776 11.1095L85.9856 11.9735C85.8536 12.0215 85.4456 12.0575 85.1936 12.0575ZM91.4872 12.0695C90.8392 12.0695 90.5272 11.6975 90.5272 11.1935V10.9775C90.5272 10.4615 90.8392 10.0895 91.4872 10.0895C92.1472 10.0895 92.4472 10.4615 92.4472 10.9775V11.1935C92.4472 11.6975 92.1472 12.0695 91.4872 12.0695ZM94.1012 11.9375V7.9295C94.1012 6.2495 95.3012 5.1695 97.2452 5.1695C99.1772 5.1695 100.389 6.2495 100.389 7.9295V11.9375H98.8532V8.0135C98.8532 6.9935 98.2412 6.4055 97.2452 6.4055C96.2372 6.4055 95.6372 6.9935 95.6372 8.0135V9.4775H95.6972C95.8652 8.8175 96.3572 8.1695 97.3532 8.1695H97.6892V9.6215H97.2092C96.1892 9.6215 95.6372 9.9095 95.6372 10.6295V11.9375H94.1012ZM102.995 12.0695C102.347 12.0695 102.035 11.6975 102.035 11.1935V10.9775C102.035 10.4615 102.347 10.0895 102.995 10.0895C103.655 10.0895 103.955 10.4615 103.955 10.9775V11.1935C103.955 11.6975 103.655 12.0695 102.995 12.0695ZM57.2887 26.9375C56.2447 26.9375 55.7527 26.3855 55.7527 25.4255V20.3135H57.2887V25.7135H58.1647V26.9375H57.2887ZM61.2756 27.0575C59.9916 27.0575 59.1516 26.4335 59.1516 25.1135C59.1516 23.8775 59.9316 23.1695 61.2756 23.1695H63.2916V22.7375C63.2916 21.8735 62.8356 21.4055 61.8396 21.4055C60.9036 21.4055 60.3636 21.8735 59.9916 22.4255L59.0196 21.5735C59.5716 20.7335 60.4236 20.1695 61.9356 20.1695C63.8316 20.1695 64.8276 21.0695 64.8276 22.6775V26.9375H63.2916V24.1655H61.7916C61.0956 24.1655 60.7236 24.4535 60.7236 25.0175V25.2455C60.7236 25.7975 61.0596 26.1455 61.6236 26.1455C61.7556 26.1455 61.8636 26.1335 61.9596 26.1095L62.0676 26.9735C61.9356 27.0215 61.5276 27.0575 61.2756 27.0575ZM59.48 19.2215V18.0575H61.508V17.0615H62.708V18.1895H63.632V17.0615H64.832V19.2215H59.48ZM69.1446 27.0815C67.4886 27.0815 66.2646 26.1215 66.2646 24.7535V24.1535C66.2646 23.5535 66.5646 23.1815 67.2486 23.1815H68.6406V24.3455H67.6686V24.6335C67.6686 25.4615 68.2566 25.8935 69.2046 25.8935C70.1286 25.8935 70.6686 25.2455 70.6686 24.1775V23.1095C70.6686 22.0415 70.0566 21.4055 69.0246 21.4055C68.1006 21.4055 67.4046 21.8855 67.0926 22.3655L66.1566 21.5255C66.6246 20.7695 67.6206 20.1695 69.0846 20.1695C71.0886 20.1695 72.2766 21.4655 72.2766 23.6255C72.2766 25.7735 71.1246 27.0815 69.1446 27.0815ZM74.2882 26.9375V23.3735L73.2562 22.9535C73.3762 21.2735 74.6722 20.1695 76.5082 20.1695C78.4282 20.1695 79.5802 21.2495 79.5802 22.9175V26.9375H78.0442V23.1215C78.0442 22.0295 77.4562 21.4055 76.4122 21.4055C75.5842 21.4055 74.9242 21.8015 74.6842 22.3775L75.1522 22.5575C75.6682 22.7495 75.8242 22.9655 75.8242 23.4695V26.9375H74.2882ZM83.3465 27.0815C81.9785 27.0815 81.2105 26.1455 81.2105 24.4895V20.3135H82.7465V24.3455C82.7465 25.2455 83.0705 25.8215 83.9585 25.8215C84.6185 25.8215 85.3025 25.4375 85.3025 24.7055V20.3135H86.8385V25.7135H87.4745V26.9375H86.5145C85.8305 26.9375 85.4705 26.5295 85.4465 25.7615H85.3745C85.1105 26.4935 84.4745 27.0815 83.3465 27.0815ZM91.3456 26.9375V22.5095C91.3456 21.8135 90.9976 21.4055 90.2176 21.4055C89.5096 21.4055 89.1136 21.7535 88.8256 22.1975L87.9136 21.3815C88.3696 20.6495 89.0656 20.1695 90.3256 20.1695C91.9936 20.1695 92.8816 20.9735 92.8816 22.4255V26.9375H91.3456ZM97.0433 27.0815C95.3513 27.0815 94.3313 26.3735 94.3313 25.1255C94.3313 24.3575 94.8353 23.7815 95.5553 23.5775V23.5055C94.7633 23.3135 94.2833 22.7015 94.2833 21.8975C94.2833 20.8655 95.0393 20.1695 96.1913 20.1695C96.5513 20.1695 97.0313 20.2295 97.3793 20.4215L97.0553 21.5375C96.8513 21.4295 96.6713 21.3935 96.4673 21.3935C96.0113 21.3935 95.6633 21.6695 95.6633 22.1375C95.6633 22.5935 95.9033 22.9175 96.6113 22.9175H97.2593V23.9495H96.6113C96.1913 23.9495 95.8673 24.2375 95.8673 24.7055V24.9455C95.8673 25.5455 96.3113 25.8455 97.0913 25.8455C97.9913 25.8455 98.5553 25.3415 98.5553 24.4175V20.3135H100.091V24.6215C100.091 26.1215 98.9033 27.0815 97.0433 27.0815ZM102.366 26.9375V23.3735L101.334 22.9535C101.454 21.2735 102.75 20.1695 104.586 20.1695C106.506 20.1695 107.658 21.2495 107.658 22.9175V26.9375H106.122V23.1215C106.122 22.0295 105.534 21.4055 104.49 21.4055C103.662 21.4055 103.002 21.8015 102.762 22.3775L103.23 22.5575C103.746 22.7495 103.902 22.9655 103.902 23.4695V26.9375H102.366ZM112.937 26.9375V21.9335H112.877C112.685 22.5455 112.121 23.1335 110.945 23.1335C109.613 23.1335 108.857 22.4135 108.857 20.9855V20.3135H110.393V20.7815C110.393 21.4775 110.693 21.8975 111.473 21.8975H111.641C112.313 21.8975 112.937 21.6575 112.937 20.7695V20.3135H114.473V26.9375H112.937Z" fill="black"/>
<circle cx="85" cy="37.9375" r="5" fill="#8054FF"/>
<circle opacity="0.5" cx="95" cy="37.9375" r="5" fill="#8054FF"/>
<circle opacity="0.5" cx="105" cy="37.9375" r="5" fill="#8054FF"/>
<circle opacity="0.5" cx="115" cy="37.9375" r="5" fill="#8054FF"/>
<circle opacity="0.5" cx="125" cy="37.9375" r="5" fill="#8054FF"/>
<circle opacity="0.5" cx="135" cy="37.9375" r="5" fill="#8054FF"/>
<circle opacity="0.5" cx="145" cy="37.9375" r="5" fill="#8054FF"/>
<circle opacity="0.5" cx="155" cy="37.9375" r="5" fill="#8054FF"/>
<circle opacity="0.5" cx="165" cy="37.9375" r="5" fill="#8054FF"/>
<circle opacity="0.5" cx="175" cy="37.9375" r="5" fill="#8054FF"/>
<circle opacity="0.5" cx="185" cy="37.9375" r="5" fill="#8054FF"/>
<circle opacity="0.5" cx="195" cy="37.9375" r="5" fill="#8054FF"/>
<circle opacity="0.5" cx="205" cy="37.9375" r="5" fill="#8054FF"/>
<circle opacity="0.5" cx="215" cy="37.9375" r="5" fill="#8054FF"/>
<path d="M215.991 11.9375H210.219V10.6535H212.523V4.7015H212.415L210.591 6.8615L209.607 6.0335L211.683 3.5615H214.071V10.6535H215.991V11.9375ZM220.622 11.9375V8.3735L219.59 7.9535C219.71 6.2735 221.006 5.1695 222.842 5.1695C224.762 5.1695 225.914 6.2495 225.914 7.9175V11.9375H224.378V8.1215C224.378 7.0295 223.79 6.4055 222.746 6.4055C221.918 6.4055 221.258 6.8015 221.018 7.3775L221.486 7.5575C222.002 7.7495 222.158 7.9655 222.158 8.4695V11.9375H220.622ZM228.517 12.0695C227.869 12.0695 227.557 11.6975 227.557 11.1935V10.9775C227.557 10.4615 227.869 10.0895 228.517 10.0895C229.177 10.0895 229.477 10.4615 229.477 10.9775V11.1935C229.477 11.6975 229.177 12.0695 228.517 12.0695ZM233.662 12.0815C231.97 12.0815 230.95 11.3735 230.95 10.1255C230.95 9.3575 231.454 8.7815 232.174 8.5775V8.5055C231.382 8.3135 230.902 7.7015 230.902 6.8975C230.902 5.8655 231.658 5.1695 232.81 5.1695C233.17 5.1695 233.65 5.2295 233.998 5.4215L233.674 6.5375C233.47 6.4295 233.29 6.3935 233.086 6.3935C232.63 6.3935 232.282 6.6695 232.282 7.1375C232.282 7.5935 232.522 7.9175 233.23 7.9175H233.878V8.9495H233.23C232.81 8.9495 232.486 9.2375 232.486 9.7055V9.9455C232.486 10.5455 232.93 10.8455 233.71 10.8455C234.61 10.8455 235.174 10.3415 235.174 9.4175V5.3135H236.71V9.6215C236.71 11.1215 235.522 12.0815 233.662 12.0815ZM239.075 12.0695C238.427 12.0695 238.115 11.6975 238.115 11.1935V10.9775C238.115 10.4615 238.427 10.0895 239.075 10.0895C239.735 10.0895 240.035 10.4615 240.035 10.9775V11.1935C240.035 11.6975 239.735 12.0695 239.075 12.0695ZM188.201 26.9375C187.157 26.9375 186.665 26.3855 186.665 25.4255V20.3135H188.201V25.7135H189.077V26.9375H188.201ZM192.704 27.0815C191.456 27.0815 190.616 26.6375 189.968 25.8815L190.916 24.9815C191.384 25.5335 192.008 25.8695 192.788 25.8695C193.592 25.8695 193.94 25.5815 193.94 25.1015C193.94 24.6215 193.652 24.4175 193.076 24.3335L192.428 24.2495C191.108 24.0815 190.208 23.5055 190.208 22.2575C190.208 20.9615 191.24 20.1695 192.728 20.1695C193.964 20.1695 194.672 20.5535 195.296 21.2015L194.384 22.1135C194.012 21.6935 193.412 21.3815 192.74 21.3815C192.02 21.3815 191.684 21.6815 191.684 22.1495C191.684 22.6175 191.96 22.8455 192.632 22.9415L193.28 23.0375C194.588 23.2295 195.416 23.7335 195.416 24.9695C195.416 26.2175 194.348 27.0815 192.704 27.0815ZM190.029 19.2215V18.0575H195.381V19.2215H190.029ZM194.073 16.4735V14.5895H195.381V16.4735H194.073ZM200.371 27.0815C199.243 27.0815 198.691 26.4815 198.463 25.8335H198.403V26.9375H196.867V20.3135H198.403V24.7055C198.403 25.4375 199.099 25.8215 199.747 25.8215C200.707 25.8215 201.007 25.1855 201.007 24.3455V20.3135H202.543V24.4895C202.543 26.1455 201.763 27.0815 200.371 27.0815ZM207.081 27.0815C205.281 27.0815 204.177 26.0375 204.177 24.4175V20.3135H205.713V24.3335C205.713 25.2935 206.229 25.8455 207.081 25.8455C207.933 25.8455 208.449 25.2935 208.449 24.3335V18.0575H209.985V24.4175C209.985 26.0375 208.881 27.0815 207.081 27.0815ZM214.079 27.0815C212.831 27.0815 211.991 26.6375 211.343 25.8815L212.291 24.9815C212.759 25.5335 213.383 25.8695 214.163 25.8695C214.967 25.8695 215.315 25.5815 215.315 25.1015C215.315 24.6215 215.027 24.4175 214.451 24.3335L213.803 24.2495C212.483 24.0815 211.583 23.5055 211.583 22.2575C211.583 20.9615 212.615 20.1695 214.103 20.1695C215.339 20.1695 216.047 20.5535 216.671 21.2015L215.759 22.1135C215.387 21.6935 214.787 21.3815 214.115 21.3815C213.395 21.3815 213.059 21.6815 213.059 22.1495C213.059 22.6175 213.335 22.8455 214.007 22.9415L214.655 23.0375C215.963 23.2295 216.791 23.7335 216.791 24.9695C216.791 26.2175 215.723 27.0815 214.079 27.0815ZM219.55 25.9175C218.65 25.9175 218.17 25.4615 218.17 24.6695V23.9855H219.502V24.6455H221.446V25.9175H219.55ZM219.55 22.9295C218.65 22.9295 218.17 22.4735 218.17 21.6815V20.9975H219.502V21.6575H221.446V22.9295H219.55ZM225.672 27.0815C224.028 27.0815 222.924 26.3135 222.924 24.7055C222.924 23.8175 223.224 23.3615 223.5 22.9535C223.74 22.5815 223.992 22.1615 223.992 21.7415V21.5855H222.84V20.3135H224.196C225 20.3135 225.456 20.7335 225.456 21.3695V21.4295C225.456 21.9215 225.3 22.3655 224.964 22.9895C224.712 23.4695 224.532 23.8175 224.532 24.3815V24.7295C224.532 25.4375 224.952 25.8095 225.636 25.8095C226.332 25.8095 226.74 25.4375 226.74 24.7655V23.8055C226.74 23.1335 226.572 22.7495 226.02 22.7495H225.876V21.5975H226.116C226.548 21.5975 226.86 21.3695 226.86 20.7815V20.0615H228.36V20.6615C228.36 21.3215 228.012 21.8495 227.124 22.0055V22.0895C227.928 22.3415 228.348 23.0855 228.348 24.3335C228.348 26.0375 227.316 27.0815 225.672 27.0815ZM227.003 31.1135V29.2535H226.175V28.2215H227.315C228.011 28.2215 228.299 28.5575 228.299 29.0855V31.1135H227.003ZM233.417 27.0815C232.289 27.0815 231.737 26.4815 231.509 25.8335H231.449V26.9375H229.913V20.3135H231.449V24.7055C231.449 25.4375 232.145 25.8215 232.793 25.8215C233.753 25.8215 234.053 25.1855 234.053 24.3455V20.3135H235.589V24.4895C235.589 26.1455 234.809 27.0815 233.417 27.0815ZM240.06 26.9375V22.9295C240.06 21.2495 241.26 20.1695 243.204 20.1695C245.136 20.1695 246.348 21.2495 246.348 22.9295V26.9375H244.812V23.0135C244.812 21.9935 244.2 21.4055 243.204 21.4055C242.196 21.4055 241.596 21.9935 241.596 23.0135V24.4775H241.656C241.824 23.8175 242.316 23.1695 243.312 23.1695H243.648V24.6215H243.168C242.148 24.6215 241.596 24.9095 241.596 25.6295V26.9375H240.06ZM250.442 27.0815C249.194 27.0815 248.354 26.6375 247.706 25.8815L248.654 24.9815C249.122 25.5335 249.746 25.8695 250.526 25.8695C251.33 25.8695 251.678 25.5815 251.678 25.1015C251.678 24.6215 251.39 24.4175 250.814 24.3335L250.166 24.2495C248.846 24.0815 247.946 23.5055 247.946 22.2575C247.946 20.9615 248.978 20.1695 250.466 20.1695C251.702 20.1695 252.41 20.5535 253.034 21.2015L252.122 22.1135C251.75 21.6935 251.15 21.3815 250.478 21.3815C249.758 21.3815 249.422 21.6815 249.422 22.1495C249.422 22.6175 249.698 22.8455 250.37 22.9415L251.018 23.0375C252.326 23.2295 253.154 23.7335 253.154 24.9695C253.154 26.2175 252.086 27.0815 250.442 27.0815ZM258.109 27.0815C256.981 27.0815 256.429 26.4815 256.201 25.8335H256.141V26.9375H254.605V20.3135H256.141V24.7055C256.141 25.4375 256.837 25.8215 257.485 25.8215C258.445 25.8215 258.745 25.1855 258.745 24.3455V20.3135H260.281V24.4895C260.281 26.1455 259.501 27.0815 258.109 27.0815ZM262.653 27.0695C262.005 27.0695 261.693 26.6975 261.693 26.1935V25.9775C261.693 25.4615 262.005 25.0895 262.653 25.0895C263.313 25.0895 263.613 25.4615 263.613 25.9775V26.1935C263.613 26.6975 263.313 27.0695 262.653 27.0695Z" fill="black"/>
<circle cx="225" cy="37.9375" r="5" fill="#8054FF"/>
<circle cx="15" cy="51.9375" r="5" fill="#2BB25C"/>
<path d="M16.864 69.9375H11.092V68.6535H13.396V62.7015H13.288L11.464 64.8615L10.48 64.0335L12.556 61.5615H14.944V68.6535H16.864V69.9375ZM19.5113 64.9455H20.3393C21.2993 64.9455 21.7433 64.5015 21.7433 63.9015V63.8175C21.7433 63.1335 21.2633 62.7135 20.5073 62.7135C19.7753 62.7135 19.1993 63.0855 18.7913 63.7215L17.7833 62.8095C18.3473 62.0295 19.1393 61.4175 20.5553 61.4175C22.2473 61.4175 23.3993 62.2575 23.3993 63.6015C23.3993 64.6815 22.6673 65.3295 21.7913 65.5095V65.5815C22.7633 65.7615 23.5433 66.4335 23.5433 67.6215C23.5433 69.0975 22.3073 70.0815 20.4593 70.0815C18.8273 70.0815 18.0113 69.3375 17.4833 68.5215L18.6473 67.6335C19.0193 68.3055 19.5233 68.7855 20.4593 68.7855C21.3833 68.7855 21.8993 68.3055 21.8993 67.5255V67.4415C21.8993 66.6735 21.3353 66.2655 20.3393 66.2655H19.5113V64.9455ZM29.9866 70.0575C28.7026 70.0575 27.8626 69.4335 27.8626 68.1135C27.8626 66.8775 28.6426 66.1695 29.9866 66.1695H32.0026V65.7375C32.0026 64.8735 31.5466 64.4055 30.5506 64.4055C29.6146 64.4055 29.0746 64.8735 28.7026 65.4255L27.7306 64.5735C28.2826 63.7335 29.1346 63.1695 30.6466 63.1695C31.4386 63.1695 32.0746 63.3375 32.5546 63.6375C32.6386 63.1815 32.9626 62.9895 33.4546 62.9895H34.8586V64.2615H33.1786V64.3095C33.4186 64.6695 33.5386 65.1255 33.5386 65.6775V69.9375H32.0026V67.1655H30.5026C29.8066 67.1655 29.4346 67.4535 29.4346 68.0175V68.2455C29.4346 68.7975 29.7706 69.1455 30.3346 69.1455C30.4666 69.1455 30.5746 69.1335 30.6706 69.1095L30.7786 69.9735C30.6466 70.0215 30.2386 70.0575 29.9866 70.0575ZM36.2802 70.0695C35.6322 70.0695 35.3202 69.6975 35.3202 69.1935V68.9775C35.3202 68.4615 35.6322 68.0895 36.2802 68.0895C36.9402 68.0895 37.2402 68.4615 37.2402 68.9775V69.1935C37.2402 69.6975 36.9402 70.0695 36.2802 70.0695ZM38.8941 69.9375V65.9295C38.8941 64.2495 40.0941 63.1695 42.0381 63.1695C43.9701 63.1695 45.1821 64.2495 45.1821 65.9295V69.9375H43.6461V66.0135C43.6461 64.9935 43.0341 64.4055 42.0381 64.4055C41.0301 64.4055 40.4301 64.9935 40.4301 66.0135V67.4775H40.4901C40.6581 66.8175 41.1501 66.1695 42.1461 66.1695H42.4821V67.6215H42.0021C40.9821 67.6215 40.4301 67.9095 40.4301 68.6295V69.9375H38.8941ZM47.788 70.0695C47.14 70.0695 46.828 69.6975 46.828 69.1935V68.9775C46.828 68.4615 47.14 68.0895 47.788 68.0895C48.448 68.0895 48.748 68.4615 48.748 68.9775V69.1935C48.748 69.6975 48.448 70.0695 47.788 70.0695ZM12.652 84.9375C11.608 84.9375 11.116 84.3855 11.116 83.4255V78.3135H12.652V83.7135H13.528V84.9375H12.652ZM17.1549 85.0815C15.9069 85.0815 15.0669 84.6375 14.4189 83.8815L15.3669 82.9815C15.8349 83.5335 16.4589 83.8695 17.2389 83.8695C18.0429 83.8695 18.3909 83.5815 18.3909 83.1015C18.3909 82.6215 18.1029 82.4175 17.5269 82.3335L16.8789 82.2495C15.5589 82.0815 14.6589 81.5055 14.6589 80.2575C14.6589 78.9615 15.6909 78.1695 17.1789 78.1695C18.4149 78.1695 19.1229 78.5535 19.7469 79.2015L18.8349 80.1135C18.4629 79.6935 17.8629 79.3815 17.1909 79.3815C16.4709 79.3815 16.1349 79.6815 16.1349 80.1495C16.1349 80.6175 16.4109 80.8455 17.0829 80.9415L17.7309 81.0375C19.0389 81.2295 19.8669 81.7335 19.8669 82.9695C19.8669 84.2175 18.7989 85.0815 17.1549 85.0815ZM14.48 77.2215V76.0575H19.832V77.2215H14.48ZM18.524 74.4735V72.5895H19.832V74.4735H18.524ZM24.8217 85.0815C23.6937 85.0815 23.1417 84.4815 22.9137 83.8335H22.8537V84.9375H21.3177V78.3135H22.8537V82.7055C22.8537 83.4375 23.5497 83.8215 24.1977 83.8215C25.1577 83.8215 25.4577 83.1855 25.4577 82.3455V78.3135H26.9937V82.4895C26.9937 84.1455 26.2137 85.0815 24.8217 85.0815ZM30.5725 85.0575C29.2885 85.0575 28.4485 84.4335 28.4485 83.1135C28.4485 81.8775 29.2285 81.1695 30.5725 81.1695H32.5885V80.7375C32.5885 79.8735 32.1325 79.4055 31.1365 79.4055C30.2005 79.4055 29.6605 79.8735 29.2885 80.4255L28.3165 79.5735C28.8685 78.7335 29.7205 78.1695 31.2325 78.1695C33.1285 78.1695 34.1245 79.0695 34.1245 80.6775V84.9375H32.5885V82.1655H31.0885C30.3925 82.1655 30.0205 82.4535 30.0205 83.0175V83.2455C30.0205 83.7975 30.3565 84.1455 30.9205 84.1455C31.0525 84.1455 31.1605 84.1335 31.2565 84.1095L31.3645 84.9735C31.2325 85.0215 30.8245 85.0575 30.5725 85.0575ZM32.6649 77.2215V74.8095H34.0809V77.2215H32.6649ZM38.5643 84.9375V80.5095C38.5643 79.8135 38.2163 79.4055 37.4363 79.4055C36.7283 79.4055 36.3323 79.7535 36.0443 80.1975L35.1323 79.3815C35.5883 78.6495 36.2843 78.1695 37.5443 78.1695C39.2123 78.1695 40.1003 78.9735 40.1003 80.4255V84.9375H38.5643ZM44.1901 85.0815C42.9421 85.0815 42.1021 84.6375 41.4541 83.8815L42.4021 82.9815C42.8701 83.5335 43.4941 83.8695 44.2741 83.8695C45.0781 83.8695 45.4261 83.5815 45.4261 83.1015C45.4261 82.6215 45.1381 82.4175 44.5621 82.3335L43.9141 82.2495C42.5941 82.0815 41.6941 81.5055 41.6941 80.2575C41.6941 78.9615 42.7261 78.1695 44.2141 78.1695C45.4501 78.1695 46.1581 78.5535 46.7821 79.2015L45.8701 80.1135C45.4981 79.6935 44.8981 79.3815 44.2261 79.3815C43.5061 79.3815 43.1701 79.6815 43.1701 80.1495C43.1701 80.6175 43.4461 80.8455 44.1181 80.9415L44.7661 81.0375C46.0741 81.2295 46.9021 81.7335 46.9021 82.9695C46.9021 84.2175 45.8341 85.0815 44.1901 85.0815ZM51.2088 84.9375V80.5095C51.2088 79.8135 50.8608 79.4055 50.0808 79.4055C49.3728 79.4055 48.9768 79.7535 48.6888 80.1975L47.7768 79.3815C48.2328 78.6495 48.9288 78.1695 50.1888 78.1695C51.8568 78.1695 52.7448 78.9735 52.7448 80.4255V84.9375H51.2088ZM56.9066 85.0815C55.2146 85.0815 54.1946 84.3735 54.1946 83.1255C54.1946 82.3575 54.6986 81.7815 55.4186 81.5775V81.5055C54.6266 81.3135 54.1466 80.7015 54.1466 79.8975C54.1466 78.8655 54.9026 78.1695 56.0546 78.1695C56.4146 78.1695 56.8946 78.2295 57.2426 78.4215L56.9186 79.5375C56.7146 79.4295 56.5346 79.3935 56.3306 79.3935C55.8746 79.3935 55.5266 79.6695 55.5266 80.1375C55.5266 80.5935 55.7666 80.9175 56.4746 80.9175H57.1226V81.9495H56.4746C56.0546 81.9495 55.7306 82.2375 55.7306 82.7055V82.9455C55.7306 83.5455 56.1746 83.8455 56.9546 83.8455C57.8546 83.8455 58.4186 83.3415 58.4186 82.4175V78.3135H59.9546V82.6215C59.9546 84.1215 58.7666 85.0815 56.9066 85.0815ZM64.1736 85.0815C62.5296 85.0815 61.4256 84.3135 61.4256 82.7055C61.4256 81.8175 61.7256 81.3615 62.0016 80.9535C62.2416 80.5815 62.4936 80.1615 62.4936 79.7415V79.5855H61.3416V78.3135H62.6976C63.5016 78.3135 63.9576 78.7335 63.9576 79.3695V79.4295C63.9576 79.9215 63.8016 80.3655 63.4656 80.9895C63.2136 81.4695 63.0336 81.8175 63.0336 82.3815V82.7295C63.0336 83.4375 63.4536 83.8095 64.1376 83.8095C64.8336 83.8095 65.2416 83.4375 65.2416 82.7655V81.8055C65.2416 81.1335 65.0736 80.7495 64.5216 80.7495H64.3776V79.5975H64.6176C65.0496 79.5975 65.3616 79.3695 65.3616 78.7815V78.0615H66.8616V78.6615C66.8616 79.3215 66.5136 79.8495 65.6256 80.0055V80.0895C66.4296 80.3415 66.8496 81.0855 66.8496 82.3335C66.8496 84.0375 65.8176 85.0815 64.1736 85.0815ZM61.5074 77.2215V76.0575H63.5354V75.0615H64.7354V76.1895H65.6594V75.0615H66.8594V77.2215H61.5074ZM65.5514 74.4735V72.5895H66.8594V74.4735H65.5514ZM70.9142 85.0815C69.2582 85.0815 68.0342 84.1215 68.0342 82.7535V82.1535C68.0342 81.5535 68.3342 81.1815 69.0182 81.1815H70.4102V82.3455H69.4382V82.6335C69.4382 83.4615 70.0262 83.8935 70.9742 83.8935C71.8982 83.8935 72.4382 83.2455 72.4382 82.1775V81.1095C72.4382 80.0415 71.8262 79.4055 70.7942 79.4055C69.8702 79.4055 69.1742 79.8855 68.8622 80.3655L67.9262 79.5255C68.3942 78.7695 69.3902 78.1695 70.8542 78.1695C72.8582 78.1695 74.0462 79.4655 74.0462 81.6255C74.0462 83.7735 72.8942 85.0815 70.9142 85.0815Z" fill="black"/>
<circle opacity="0.5" cx="25" cy="51.9375" r="5" fill="#2BB25C"/>
<circle opacity="0.5" cx="35" cy="51.9375" r="5" fill="#2BB25C"/>
<circle opacity="0.5" cx="45" cy="51.9375" r="5" fill="#2BB25C"/>
<circle opacity="0.5" cx="55" cy="51.9375" r="5" fill="#2BB25C"/>
<circle opacity="0.5" cx="65" cy="51.9375" r="5" fill="#2BB25C"/>
<circle opacity="0.5" cx="75" cy="51.9375" r="5" fill="#2BB25C"/>
<circle opacity="0.5" cx="85" cy="51.9375" r="5" fill="#2BB25C"/>
<circle opacity="0.5" cx="95" cy="51.9375" r="5" fill="#2BB25C"/>
<circle cx="105" cy="51.9375" r="5" fill="#2BB25C"/>
<path d="M106.552 68.6055V69.9375H100.744V68.4735L103.372 66.1695C104.26 65.3895 104.668 64.8135 104.668 64.0815V63.9255C104.668 63.1935 104.116 62.7855 103.432 62.7855C102.568 62.7855 102.16 63.3495 101.968 64.0335L100.6 63.5055C100.96 62.3895 101.86 61.4175 103.564 61.4175C105.328 61.4175 106.336 62.4735 106.336 63.9135C106.336 65.3055 105.388 66.1935 104.224 67.1535L102.46 68.6055H106.552ZM110.795 70.0815C108.659 70.0815 107.675 68.4855 107.675 65.7495C107.675 63.0135 108.659 61.4175 110.795 61.4175C112.931 61.4175 113.915 63.0135 113.915 65.7495C113.915 68.4855 112.931 70.0815 110.795 70.0815ZM110.795 68.7495C111.863 68.7495 112.235 67.8855 112.235 66.5055V64.9935C112.235 63.6135 111.863 62.7495 110.795 62.7495C109.727 62.7495 109.355 63.6135 109.355 64.9935V66.5055C109.355 67.8855 109.727 68.7495 110.795 68.7495ZM119.987 70.0575C118.703 70.0575 117.863 69.4335 117.863 68.1135C117.863 66.8775 118.643 66.1695 119.987 66.1695H122.003V65.7375C122.003 64.8735 121.547 64.4055 120.551 64.4055C119.615 64.4055 119.075 64.8735 118.703 65.4255L117.731 64.5735C118.283 63.7335 119.135 63.1695 120.647 63.1695C121.439 63.1695 122.075 63.3375 122.555 63.6375C122.639 63.1815 122.963 62.9895 123.455 62.9895H124.859V64.2615H123.179V64.3095C123.419 64.6695 123.539 65.1255 123.539 65.6775V69.9375H122.003V67.1655H120.503C119.807 67.1655 119.435 67.4535 119.435 68.0175V68.2455C119.435 68.7975 119.771 69.1455 120.335 69.1455C120.467 69.1455 120.575 69.1335 120.671 69.1095L120.779 69.9735C120.647 70.0215 120.239 70.0575 119.987 70.0575ZM126.28 70.0695C125.632 70.0695 125.32 69.6975 125.32 69.1935V68.9775C125.32 68.4615 125.632 68.0895 126.28 68.0895C126.94 68.0895 127.24 68.4615 127.24 68.9775V69.1935C127.24 69.6975 126.94 70.0695 126.28 70.0695ZM128.894 69.9375V65.9295C128.894 64.2495 130.094 63.1695 132.038 63.1695C133.97 63.1695 135.182 64.2495 135.182 65.9295V69.9375H133.646V66.0135C133.646 64.9935 133.034 64.4055 132.038 64.4055C131.03 64.4055 130.43 64.9935 130.43 66.0135V67.4775H130.49C130.658 66.8175 131.15 66.1695 132.146 66.1695H132.482V67.6215H132.002C130.982 67.6215 130.43 67.9095 130.43 68.6295V69.9375H128.894ZM137.788 70.0695C137.14 70.0695 136.828 69.6975 136.828 69.1935V68.9775C136.828 68.4615 137.14 68.0895 137.788 68.0895C138.448 68.0895 138.748 68.4615 138.748 68.9775V69.1935C138.748 69.6975 138.448 70.0695 137.788 70.0695ZM103.348 85.0815C101.656 85.0815 100.636 84.3735 100.636 83.1255C100.636 82.3575 101.14 81.7815 101.86 81.5775V81.5055C101.068 81.3135 100.588 80.7015 100.588 79.8975C100.588 78.8655 101.344 78.1695 102.496 78.1695C102.856 78.1695 103.336 78.2295 103.684 78.4215L103.36 79.5375C103.156 79.4295 102.976 79.3935 102.772 79.3935C102.316 79.3935 101.968 79.6695 101.968 80.1375C101.968 80.5935 102.208 80.9175 102.916 80.9175H103.564V81.9495H102.916C102.496 81.9495 102.172 82.2375 102.172 82.7055V82.9455C102.172 83.5455 102.616 83.8455 103.396 83.8455C104.296 83.8455 104.86 83.3415 104.86 82.4175V78.3135H106.396V82.6215C106.396 84.1215 105.208 85.0815 103.348 85.0815ZM101.046 77.2215V76.0575H103.074V75.0615H104.274V76.1895H105.198V75.0615H106.398V77.2215H101.046ZM105.09 74.4735V72.5895H106.398V74.4735H105.09ZM110.159 85.0815C108.791 85.0815 108.023 84.1455 108.023 82.4895V78.3135H109.559V82.3455C109.559 83.2455 109.883 83.8215 110.771 83.8215C111.431 83.8215 112.115 83.4375 112.115 82.7055V78.3135H113.651V83.7135H114.287V84.9375H113.327C112.643 84.9375 112.283 84.5295 112.259 83.7615H112.187C111.923 84.4935 111.287 85.0815 110.159 85.0815ZM117.971 85.0815C116.723 85.0815 115.883 84.6375 115.235 83.8815L116.183 82.9815C116.651 83.5335 117.275 83.8695 118.055 83.8695C118.859 83.8695 119.207 83.5815 119.207 83.1015C119.207 82.6215 118.919 82.4175 118.343 82.3335L117.695 82.2495C116.375 82.0815 115.475 81.5055 115.475 80.2575C115.475 78.9615 116.507 78.1695 117.995 78.1695C119.231 78.1695 119.939 78.5535 120.563 79.2015L119.651 80.1135C119.279 79.6935 118.679 79.3815 118.007 79.3815C117.287 79.3815 116.951 79.6815 116.951 80.1495C116.951 80.6175 117.227 80.8455 117.899 80.9415L118.547 81.0375C119.855 81.2295 120.683 81.7335 120.683 82.9695C120.683 84.2175 119.615 85.0815 117.971 85.0815ZM124.99 84.9375V80.5095C124.99 79.8135 124.642 79.4055 123.862 79.4055C123.154 79.4055 122.758 79.7535 122.47 80.1975L121.558 79.3815C122.014 78.6495 122.71 78.1695 123.97 78.1695C125.638 78.1695 126.526 78.9735 126.526 80.4255V84.9375H124.99ZM130.688 85.0815C128.996 85.0815 127.976 84.3735 127.976 83.1255C127.976 82.3575 128.48 81.7815 129.2 81.5775V81.5055C128.408 81.3135 127.928 80.7015 127.928 79.8975C127.928 78.8655 128.684 78.1695 129.836 78.1695C130.196 78.1695 130.676 78.2295 131.024 78.4215L130.7 79.5375C130.496 79.4295 130.316 79.3935 130.112 79.3935C129.656 79.3935 129.308 79.6695 129.308 80.1375C129.308 80.5935 129.548 80.9175 130.256 80.9175H130.904V81.9495H130.256C129.836 81.9495 129.512 82.2375 129.512 82.7055V82.9455C129.512 83.5455 129.956 83.8455 130.736 83.8455C131.636 83.8455 132.2 83.3415 132.2 82.4175V78.3135H133.736V82.6215C133.736 84.1215 132.548 85.0815 130.688 85.0815ZM137.955 85.0815C136.311 85.0815 135.207 84.3135 135.207 82.7055C135.207 81.8175 135.507 81.3615 135.783 80.9535C136.023 80.5815 136.275 80.1615 136.275 79.7415V79.5855H135.123V78.3135H136.479C137.283 78.3135 137.739 78.7335 137.739 79.3695V79.4295C137.739 79.9215 137.583 80.3655 137.247 80.9895C136.995 81.4695 136.815 81.8175 136.815 82.3815V82.7295C136.815 83.4375 137.235 83.8095 137.919 83.8095C138.615 83.8095 139.023 83.4375 139.023 82.7655V81.8055C139.023 81.1335 138.855 80.7495 138.303 80.7495H138.159V79.5975H138.399C138.831 79.5975 139.143 79.3695 139.143 78.7815V78.0615H140.643V78.6615C140.643 79.3215 140.295 79.8495 139.407 80.0055V80.0895C140.211 80.3415 140.631 81.0855 140.631 82.3335C140.631 84.0375 139.599 85.0815 137.955 85.0815ZM135.289 77.2215V76.0575H137.317V75.0615H138.517V76.1895H139.441V75.0615H140.641V77.2215H135.289ZM139.333 74.4735V72.5895H140.641V74.4735H139.333ZM144.695 85.0815C143.039 85.0815 141.815 84.1215 141.815 82.7535V82.1535C141.815 81.5535 142.115 81.1815 142.799 81.1815H144.191V82.3455H143.219V82.6335C143.219 83.4615 143.807 83.8935 144.755 83.8935C145.679 83.8935 146.219 83.2455 146.219 82.1775V81.1095C146.219 80.0415 145.607 79.4055 144.575 79.4055C143.651 79.4055 142.955 79.8855 142.643 80.3655L141.707 79.5255C142.175 78.7695 143.171 78.1695 144.635 78.1695C146.639 78.1695 147.827 79.4655 147.827 81.6255C147.827 83.7735 146.675 85.0815 144.695 85.0815Z" fill="black"/>
</svg>
