<svg width="160" height="125" viewBox="0 0 160 125" fill="none" xmlns="http://www.w3.org/2000/svg">
<g clip-path="url(#clip0_94_3157)">
<path d="M160 28.3416H0V64.6553H36.7782L38.352 68.9511C43.912 84.0571 57.1217 94.7642 72.6276 97.37L55.5221 124.938H104.465L87.3595 97.37C102.865 94.7642 116.075 84.0571 121.635 68.9511L123.209 64.6553H159.987V28.3416H160Z" fill="white"/>
<path d="M116.23 39.8226H43.77V46.5049H116.23V39.8226Z" fill="#2E3283"/>
<path d="M103.252 0H56.7476V46.5049H103.252V0Z" fill="#2BB25C"/>
<path d="M80.0065 17.299L94.0161 9.23645L85.9535 23.246L94.0161 37.2684L80.0065 29.1929L65.9841 37.2684L74.0596 23.246L65.9841 9.23645L80.0065 17.299Z" fill="#F8EB54"/>
</g>
<defs>
<clipPath id="clip0_94_3157">
<rect width="160" height="124.938" fill="white"/>
</clipPath>
</defs>
</svg>
