<svg width="44" height="45" viewBox="0 0 44 45" fill="none" xmlns="http://www.w3.org/2000/svg">
<path d="M0 4.4873C0 2.27816 1.79086 0.487305 4 0.487305H40C42.2091 0.487305 44 2.27817 44 4.4873V40.4873C44 42.6964 42.2091 44.4873 40 44.4873H4C1.79086 44.4873 0 42.6964 0 40.4873V4.4873Z" fill="white"/>
<g clip-path="url(#clip0_69_445)">
<path d="M33.7495 18.7851C34.5678 18.7851 35.2312 18.1218 35.2312 17.3035C35.2312 16.4851 34.5678 15.8218 33.7495 15.8218C32.9312 15.8218 32.2678 16.4851 32.2678 17.3035C32.2678 18.1218 32.9312 18.7851 33.7495 18.7851Z" fill="black"/>
<path d="M31.6539 29.0011V27.3193L32.2043 27.1942C32.3293 27.1808 32.3563 27.1384 32.3563 27.0018V21.6216C32.3563 21.5119 32.3293 21.4696 32.2043 21.4292L31.6539 21.2925V19.6204H35.8469V21.3041L35.2946 21.4426C35.1715 21.483 35.1426 21.5254 35.1426 21.6351V27.0095C35.1426 27.1326 35.1715 27.1615 35.2812 27.2019L35.8469 27.3539V29.0088L31.6539 29.0011Z" fill="black"/>
<path d="M24.0205 29.001L21.6825 21.6003C21.6744 21.5683 21.6568 21.5395 21.6321 21.5175C21.6074 21.4956 21.5767 21.4815 21.544 21.4772L20.8147 21.354V19.6472H25.533V21.354L24.9826 21.5195C24.9294 21.5265 24.8805 21.5526 24.8451 21.593C24.8097 21.6333 24.7902 21.6852 24.7902 21.7389C24.7996 21.893 24.8274 22.0455 24.8729 22.193L25.8774 26.155H25.9448L26.9454 22.1988C26.9894 22.0509 27.0172 21.8986 27.0281 21.7447C27.0249 21.6898 27.0026 21.6377 26.9649 21.5977C26.9273 21.5576 26.8768 21.532 26.8222 21.5253L26.2854 21.3598V19.653H30.8805V21.3463L30.1242 21.4964C30.0901 21.5033 30.0587 21.5201 30.0341 21.5448C30.0094 21.5694 29.9926 21.6008 29.9857 21.635L27.717 29.0068L24.0205 29.001Z" fill="black"/>
<path d="M36.7841 28.3256C36.7932 27.4722 36.8536 26.6202 36.9649 25.774H39.2221L39.4434 26.8497C39.7325 26.9468 40.0351 26.9981 40.3401 27.0017C40.8635 27.0017 41.2079 26.7669 41.2079 26.3936C41.2079 25.926 40.6152 25.7471 39.911 25.5393C38.5043 25.1121 36.8225 24.5598 36.8225 22.3796C36.8225 20.1995 38.2561 19.4836 40.4228 19.4836C41.8025 19.4836 42.6992 19.8416 43.6633 20.2976C43.6771 21.1046 43.6269 21.9115 43.5132 22.7106H41.2541L41.1444 21.76C40.9258 21.668 40.6908 21.6209 40.4536 21.6215C39.9437 21.6215 39.6127 21.7446 39.6127 22.1449C39.6127 22.6144 40.2477 22.8915 40.9366 23.1243C42.2836 23.565 44 24.1731 44 26.1743C44 28.1755 42.73 29.153 40.3305 29.153C39.1014 29.1454 37.8896 28.8626 36.7841 28.3256Z" fill="black"/>
<path d="M5.51684 19.6471V21.3501L6.19225 21.5425C6.47319 21.6176 6.46934 21.7619 6.3231 22.1987L5.01461 26.1646H4.92032L3.91009 22.1987C3.79655 21.7754 3.79848 21.5983 4.04093 21.5425L4.75868 21.3501V19.6471H0V21.3501L0.769702 21.5002C0.844748 21.5194 0.862066 21.556 0.881309 21.631L3.19041 29.0009H6.50975L7.66431 25.0851L8.81886 28.9952H12.1478L14.4569 21.6253C14.4658 21.5931 14.4828 21.5637 14.5064 21.5401C14.5301 21.5165 14.5594 21.4994 14.5916 21.4906L15.3363 21.3443V19.6414H10.5815V21.3443L11.2992 21.5367C11.5436 21.5925 11.5436 21.7696 11.4301 22.1929L10.4198 26.1588H10.3275L9.01128 22.1987C8.86696 21.7619 8.86119 21.6214 9.14213 21.5425L9.81755 21.3501V19.6471H5.51684Z" fill="black"/>
<path d="M17.5127 24.7752H18.7577V24.4212C18.7577 24.0363 18.5383 23.8323 18.1419 23.8323C17.7455 23.8323 17.5127 24.0382 17.5127 24.4212V24.7752ZM14.8591 26.3897V24.5847C14.8591 22.9299 16.1445 21.835 18.088 21.835C20.0315 21.835 21.315 22.9299 21.315 24.5847V26.1241H17.5127V26.4936C17.5127 26.89 17.9783 27.1498 18.4748 27.1498C18.9713 27.1498 19.46 26.9304 19.5408 26.5898H21.3054V27.9368C20.5953 28.7719 19.5139 29.1414 18.3921 29.1414C16.2831 29.1394 14.8591 28.0445 14.8591 26.3897Z" fill="black"/>
</g>
<defs>
<clipPath id="clip0_69_445">
<rect width="44" height="13.3312" fill="white" transform="translate(0 15.8218)"/>
</clipPath>
</defs>
</svg>
