<svg width="44" height="45" viewBox="0 0 44 45" fill="none" xmlns="http://www.w3.org/2000/svg">
<path d="M0 4.4873C0 2.27816 1.79086 0.487305 4 0.487305H40C42.2091 0.487305 44 2.27817 44 4.4873V40.4873C44 42.6964 42.2091 44.4873 40 44.4873H4C1.79086 44.4873 0 42.6964 0 40.4873V4.4873Z" fill="white"/>
<g clip-path="url(#clip0_69_429)">
<path d="M5.74633 37.9061H5.67581C5.4548 37.9061 5.37903 37.8251 5.37903 37.6252V36.592H5.64214V37.6042C5.64214 37.6378 5.65476 37.6536 5.6916 37.6536H5.74633V37.9061Z" fill="#231F20"/>
<path d="M6.19563 37.4254C6.11143 37.3412 6.06934 37.2392 6.06934 37.0992V37.0235C6.06934 36.7289 6.34297 36.5742 6.6166 36.5742C6.89023 36.5742 7.16386 36.7215 7.16386 37.034V37.9062H6.90076V37.0603C6.90076 36.8972 6.76184 36.8236 6.6166 36.8236C6.47136 36.8236 6.33244 36.8972 6.33244 37.0603C6.33244 37.1076 6.33771 37.1445 6.34507 37.1865C6.39454 37.1624 6.45768 37.1518 6.53662 37.1518H6.72816V37.4012H6.55451C6.4861 37.4012 6.46294 37.4243 6.44926 37.4906L6.36823 37.9062H6.09249L6.19458 37.4254H6.19563Z" fill="#231F20"/>
<path d="M7.56488 37.6083C7.64381 37.6314 7.80905 37.6735 7.97007 37.6735C8.0932 37.6735 8.19844 37.6398 8.19844 37.5188C8.19844 37.3032 7.5312 37.3431 7.5312 36.9276C7.5312 36.6572 7.74379 36.573 8.0069 36.573C8.15635 36.573 8.31211 36.6046 8.42787 36.6414L8.39104 36.8781C8.31 36.8571 8.15214 36.8234 8.01006 36.8234C7.89429 36.8234 7.79431 36.8465 7.79431 36.9286C7.79431 37.139 8.46155 37.078 8.46155 37.5199C8.46155 37.8198 8.24896 37.925 7.97217 37.925C7.81957 37.925 7.6596 37.8966 7.53015 37.8671L7.56383 37.6093L7.56488 37.6083Z" fill="#231F20"/>
<path d="M7.54914 36.1976H7.86697L7.88487 36.0398H8.1164V36.1976H8.20796L8.22585 36.0398H8.45739V36.4343H7.49231L7.54704 36.1976H7.54914Z" fill="#231F20"/>
<path d="M9.40768 37.3591H9.18983C9.12984 37.3591 9.10564 37.3822 9.10564 37.4485V37.6274C9.16036 37.6484 9.27087 37.6747 9.37927 37.6747C9.51293 37.6747 9.63922 37.6326 9.63922 37.4853V37.0308C9.63922 36.873 9.52135 36.8236 9.37611 36.8236C9.21088 36.8236 9.01092 36.8888 8.91304 36.9393L8.86884 36.7057C9.01829 36.6321 9.1972 36.5742 9.37927 36.5742C9.6529 36.5742 9.90233 36.6921 9.90233 37.0214V37.5106C9.90233 37.821 9.64764 37.9262 9.37927 37.9262C9.1772 37.9262 8.97198 37.8662 8.84253 37.7926V37.4348C8.84253 37.2328 8.93409 37.1118 9.17615 37.1118H9.40768V37.3612V37.3591Z" fill="#231F20"/>
<path d="M10.5517 37.519C10.5517 37.6348 10.6569 37.6737 10.7622 37.6737C10.8674 37.6737 10.9748 37.6337 10.9748 37.519V36.5911H11.2379V37.519C11.2379 37.8031 10.999 37.9241 10.7622 37.9241C10.5254 37.9241 10.2886 37.8031 10.2886 37.519V37.3486C10.2886 37.2307 10.3044 37.1834 10.3728 37.115L10.478 37.0098C10.5043 36.9835 10.5117 36.9677 10.5117 36.9288V36.9056C10.5117 36.8615 10.4959 36.8425 10.4485 36.8425H10.3012V36.5932H10.4717C10.6927 36.5932 10.7737 36.69 10.7737 36.8825V36.9372C10.7737 37.0445 10.7474 37.1003 10.6874 37.1603L10.5959 37.2497C10.559 37.2865 10.5517 37.3076 10.5517 37.3602V37.5201V37.519Z" fill="#231F20"/>
<path d="M10.9747 36.4343L10.9926 36.0398H11.2367V36.4343H10.9736H10.9747Z" fill="#231F20"/>
<path d="M12.0524 37.9062V37.0287C12.0524 36.8709 11.9367 36.8236 11.8083 36.8236C11.7325 36.8236 11.6557 36.8394 11.5925 36.8604V36.6163C11.6683 36.59 11.7557 36.5742 11.842 36.5742C12.0809 36.5742 12.3155 36.6899 12.3155 37.0129V37.9062H12.0524Z" fill="#231F20"/>
<path d="M13.5185 36.592H13.7816V37.5095C13.7816 37.8041 13.5585 37.9251 13.2449 37.9251C13.0554 37.9251 12.8639 37.8777 12.7113 37.802V37.4895C12.7113 37.3454 12.7397 37.2559 12.8555 37.1981C12.7692 37.1612 12.7113 37.0876 12.7113 36.9771V36.9171C12.7113 36.7362 12.7923 36.5941 13.027 36.5941H13.2691V36.8435H13.0565C12.9986 36.8435 12.9755 36.8835 12.9755 36.9382V36.9666C12.9755 37.0455 13.007 37.0718 13.0565 37.0718H13.3091V37.3212H13.1039C13.0091 37.3212 12.9755 37.3653 12.9755 37.4685V37.6389C13.046 37.6568 13.146 37.6757 13.2459 37.6757C13.3901 37.6757 13.5196 37.6336 13.5196 37.4863V36.5931L13.5185 36.592Z" fill="#231F20"/>
<path d="M15.2508 37.7661C15.1066 37.8682 14.9014 37.924 14.7141 37.924C14.4331 37.924 14.1879 37.7956 14.1879 37.4926V36.5909H14.451V37.4821C14.451 37.6294 14.5773 37.6736 14.7141 37.6736C14.8162 37.6736 14.9246 37.6473 14.9877 37.6104V36.0386H15.2508V37.7651V37.7661Z" fill="#231F20"/>
<path d="M15.6528 37.6083C15.7317 37.6314 15.8969 37.6735 16.058 37.6735C16.1811 37.6735 16.2863 37.6398 16.2863 37.5188C16.2863 37.3032 15.6191 37.3431 15.6191 36.9276C15.6191 36.6572 15.8317 36.573 16.0948 36.573C16.2442 36.573 16.4 36.6046 16.5158 36.6414L16.4789 36.8781C16.3979 36.8571 16.24 36.8234 16.098 36.8234C15.9822 36.8234 15.8822 36.8465 15.8822 36.9286C15.8822 37.139 16.5494 37.078 16.5494 37.5199C16.5494 37.8198 16.3369 37.925 16.0601 37.925C15.9075 37.925 15.7475 37.8966 15.618 37.8671L15.6517 37.6093L15.6528 37.6083Z" fill="#231F20"/>
<path d="M17.1883 36.7678C17.1883 36.8099 17.2062 36.8309 17.2514 36.8309H17.5429V37.0803H17.1883C17.023 37.0803 16.9252 37.0098 16.9252 36.8309V36.6868H17.1883V36.7678ZM17.1883 37.4927C17.1883 37.5348 17.2062 37.5558 17.2514 37.5558H17.5429V37.8052H17.1883C17.023 37.8052 16.9252 37.7347 16.9252 37.5558V37.4117H17.1883V37.4927Z" fill="#231F20"/>
<path d="M18.8521 37.519C18.8521 37.8031 18.6132 37.9241 18.3764 37.9241C18.1396 37.9241 17.9028 37.8031 17.9028 37.519V37.3486C17.9028 37.2307 17.9186 37.1834 17.987 37.115L18.0923 37.0098C18.1186 36.9835 18.1259 36.9677 18.1259 36.9288V36.9056C18.1259 36.8614 18.1102 36.8425 18.0628 36.8425H17.9155V36.5932H18.086C18.307 36.5932 18.388 36.69 18.388 36.8825V36.9372C18.388 37.0445 18.3617 37.1003 18.3017 37.1602L18.2101 37.2497C18.1733 37.2865 18.1659 37.3075 18.1659 37.3601V37.5201C18.1659 37.6358 18.2712 37.6747 18.3764 37.6747C18.4817 37.6747 18.589 37.6347 18.589 37.5201V37.2339C18.589 37.1476 18.5627 37.1129 18.4764 37.1129H18.4427V36.8635H18.4743C18.5269 36.8635 18.5427 36.8478 18.5553 36.7952L18.608 36.5742H18.8763L18.8237 36.792C18.8027 36.8762 18.7795 36.9361 18.7185 36.9835C18.81 37.0308 18.8521 37.0834 18.8521 37.2223V37.519Z" fill="#231F20"/>
<path d="M19.6668 37.9062V37.0287C19.6668 36.8709 19.5511 36.8236 19.4227 36.8236C19.3469 36.8236 19.2701 36.8394 19.2069 36.8604V36.6163C19.2827 36.59 19.37 36.5742 19.4563 36.5742C19.6952 36.5742 19.9299 36.6899 19.9299 37.0129V37.9062H19.6668Z" fill="#231F20"/>
<path d="M21.2655 37.519C21.2655 37.8031 21.0266 37.9241 20.7898 37.9241C20.553 37.9241 20.3162 37.8031 20.3162 37.519V37.3486C20.3162 37.2307 20.3319 37.1834 20.4004 37.115L20.5056 37.0098C20.5319 36.9835 20.5393 36.9677 20.5393 36.9288V36.9056C20.5393 36.8614 20.5235 36.8425 20.4761 36.8425H20.3288V36.5932H20.4993C20.7203 36.5932 20.8013 36.69 20.8013 36.8825V36.9372C20.8013 37.0445 20.775 37.1003 20.715 37.1602L20.6235 37.2497C20.5866 37.2865 20.5793 37.3075 20.5793 37.3601V37.5201C20.5793 37.6358 20.6845 37.6747 20.7898 37.6747C20.895 37.6747 21.0023 37.6347 21.0023 37.5201V37.2339C21.0023 37.1476 20.976 37.1129 20.8897 37.1129H20.8561V36.8635H20.8876C20.9403 36.8635 20.956 36.8478 20.9687 36.7952L21.0213 36.5742H21.2897L21.237 36.792C21.216 36.8762 21.1928 36.9361 21.1318 36.9835C21.2234 37.0308 21.2655 37.0834 21.2655 37.2223V37.519Z" fill="#231F20"/>
<path d="M22.7082 37.9062H22.4641L22.4462 37.7536C22.3388 37.8504 22.2126 37.9241 22.0599 37.9241C21.8442 37.9241 21.6737 37.8031 21.6737 37.519V36.5911H21.9368V37.5054C21.9368 37.6106 21.9842 37.6737 22.0757 37.6737C22.202 37.6737 22.3231 37.6053 22.4462 37.5001V36.5911H22.7093V37.9052L22.7082 37.9062Z" fill="#231F20"/>
<path d="M23.4839 37.9061H23.4134C23.1924 37.9061 23.1166 37.8251 23.1166 37.6252V36.592H23.3797V37.6042C23.3797 37.6378 23.3923 37.6536 23.4292 37.6536H23.4839V37.9061Z" fill="#231F20"/>
<path d="M24.4585 37.2276L24.2375 37.7978C24.2038 37.8841 24.1407 37.9052 24.027 37.9052H23.8902L23.8197 36.5911H24.0849L24.1133 37.0824V37.4349L24.3259 36.8751H24.589L24.8016 37.4349V37.0824L24.83 36.5911H25.0952L25.0247 37.9052H24.8879C24.7753 37.9052 24.7122 37.8841 24.6774 37.7978L24.4564 37.2276H24.4585Z" fill="#231F20"/>
<path d="M24.169 36.1976H24.4868L24.5047 36.0398H24.7363V36.1976H24.8278L24.8457 36.0398H25.0773V36.4343H24.1122L24.1669 36.1976H24.169Z" fill="#231F20"/>
<path d="M24.8427 35.9344L24.8584 35.5798H25.0794V35.9344H24.8427Z" fill="#231F20"/>
<path d="M26.0277 37.3591H25.8098C25.7498 37.3591 25.7256 37.3822 25.7256 37.4485V37.6274C25.7804 37.6484 25.8909 37.6747 25.9993 37.6747C26.1329 37.6747 26.2592 37.6326 26.2592 37.4853V37.0308C26.2592 36.873 26.1413 36.8236 25.9961 36.8236C25.8309 36.8236 25.6309 36.8888 25.533 36.9393L25.4888 36.7057C25.6383 36.6321 25.8172 36.5742 25.9993 36.5742C26.2729 36.5742 26.5223 36.6921 26.5223 37.0214V37.5106C26.5223 37.821 26.2676 37.9262 25.9993 37.9262C25.7972 37.9262 25.592 37.8662 25.4625 37.7926V37.4348C25.4625 37.2328 25.5541 37.1118 25.7961 37.1118H26.0277V37.3612V37.3591Z" fill="#231F20"/>
<path d="M26.9244 37.6083C27.0033 37.6314 27.1685 37.6735 27.3296 37.6735C27.4527 37.6735 27.5579 37.6398 27.5579 37.5188C27.5579 37.3032 26.8907 37.3431 26.8907 36.9276C26.8907 36.6572 27.1033 36.573 27.3664 36.573C27.5158 36.573 27.6716 36.6046 27.7874 36.6414L27.7505 36.8781C27.6695 36.8571 27.5116 36.8234 27.3696 36.8234C27.2538 36.8234 27.1538 36.8465 27.1538 36.9286C27.1538 37.139 27.8211 37.078 27.8211 37.5199C27.8211 37.8198 27.6085 37.925 27.3317 37.925C27.1791 37.925 27.0191 37.8966 26.8896 37.8671L26.9233 37.6093L26.9244 37.6083Z" fill="#231F20"/>
<path d="M27.6021 36.1217C27.6021 36.1638 27.62 36.1848 27.6652 36.1848H28.1462V36.4342H27.6021C27.4369 36.4342 27.339 36.3637 27.339 36.1848V36.0144H27.6021V36.1217Z" fill="#231F20"/>
<path d="M29.348 38.431H29.0849C28.9723 38.3311 28.8724 38.2658 28.7566 38.2658C28.665 38.2658 28.5914 38.3132 28.5914 38.431H28.3282C28.3282 38.1575 28.5124 38.0154 28.7355 38.0154C28.8587 38.0154 28.9723 38.0596 29.0849 38.1627V38.0154H29.348V38.431ZM29.2744 36.9013C29.1691 36.8644 29.0113 36.8223 28.8513 36.8223C28.7387 36.8223 28.6461 36.8487 28.6461 36.9402V36.9581C29.0007 36.9633 29.3165 37.0738 29.3165 37.4526V37.7735C29.206 37.8734 29.0534 37.9229 28.9113 37.9229C28.7145 37.9229 28.5356 37.8229 28.504 37.6209L28.4935 37.5525C28.4882 37.5125 28.4703 37.5031 28.4303 37.5031H28.4019V37.2537H28.483C28.6356 37.2537 28.704 37.3063 28.7324 37.4799L28.745 37.5557C28.7608 37.6398 28.8292 37.6735 28.9081 37.6735C28.9576 37.6735 29.0081 37.6609 29.0523 37.6367V37.4715C29.0523 37.2137 28.7471 37.1695 28.4272 37.1695C28.4009 37.1064 28.383 37.0201 28.383 36.957C28.383 36.6603 28.6198 36.573 28.8692 36.573C29.0344 36.573 29.1797 36.6014 29.3217 36.6519L29.2744 36.9013Z" fill="#231F20"/>
<path d="M30.4574 37.9063V37.3749C30.3995 37.3644 30.2995 37.3465 30.2048 37.3465C30.0732 37.3465 29.9469 37.3802 29.9469 37.5117C29.9469 37.6348 30.0227 37.6748 30.1153 37.6748C30.1785 37.6748 30.249 37.6569 30.31 37.6348V37.8821C30.2343 37.9105 30.1574 37.9241 30.0838 37.9241C29.8575 37.9241 29.6838 37.7926 29.6838 37.5117C29.6838 37.2045 29.9175 37.0961 30.1753 37.0961C30.27 37.0961 30.3669 37.1088 30.4563 37.1298V37.0141C30.4563 36.8668 30.3437 36.8226 30.2069 36.8226C30.0627 36.8226 29.8912 36.872 29.8017 36.9089L29.768 36.6595C29.8996 36.6069 30.0596 36.5732 30.2069 36.5732C30.309 36.5732 30.4037 36.589 30.4858 36.6227L30.5121 36.5122H30.7752L30.7415 36.6563C30.7257 36.7174 30.7079 36.7563 30.671 36.7879C30.7026 36.8489 30.7205 36.9194 30.7205 37.0088V37.9052H30.4574V37.9063Z" fill="#231F20"/>
<path d="M31.0751 36.6519C31.1908 36.6025 31.3298 36.573 31.4613 36.573C31.7265 36.573 31.9633 36.6961 31.9633 37.0412V37.4673C31.9633 37.7619 31.7981 37.906 31.4845 37.906H31.2561V37.6567H31.4792C31.6234 37.6567 31.7002 37.6093 31.7002 37.4515V37.0549C31.7002 36.876 31.5929 36.8234 31.4613 36.8234C31.3298 36.8234 31.2035 36.8676 31.114 36.9023L31.0751 36.653V36.6519Z" fill="#231F20"/>
<path d="M31.7476 36.1217C31.7476 36.1638 31.7655 36.1848 31.8108 36.1848H32.2917V36.4342H31.7476C31.5824 36.4342 31.4845 36.3637 31.4845 36.1848V36.0144H31.7476V36.1217Z" fill="#231F20"/>
<path d="M33.2989 37.9063V37.3749C33.241 37.3644 33.1411 37.3465 33.0463 37.3465C32.9148 37.3465 32.7885 37.3802 32.7885 37.5117C32.7885 37.6348 32.8643 37.6748 32.9569 37.6748C33.02 37.6748 33.0905 37.6569 33.1516 37.6348V37.8821C33.0758 37.9105 32.999 37.9241 32.9253 37.9241C32.699 37.9241 32.5254 37.7926 32.5254 37.5117C32.5254 37.2045 32.759 37.0961 33.0169 37.0961C33.1116 37.0961 33.2084 37.1088 33.2979 37.1298V37.0141C33.2979 36.8668 33.1853 36.8226 33.0484 36.8226C32.9043 36.8226 32.7327 36.872 32.6433 36.9089L32.6096 36.6595C32.7411 36.6069 32.9011 36.5732 33.0484 36.5732C33.1505 36.5732 33.2453 36.589 33.3273 36.6227L33.3537 36.5122H33.6168L33.5831 36.6563C33.5673 36.7174 33.5494 36.7563 33.5126 36.7879C33.5441 36.8489 33.562 36.9194 33.562 37.0088V37.9052H33.2989V37.9063Z" fill="#231F20"/>
<path d="M34.205 37.4979C34.205 37.6294 34.3123 37.6736 34.426 37.6736C34.4997 37.6736 34.5755 37.6578 34.6281 37.6315V37.8756C34.5597 37.9072 34.4786 37.9229 34.3965 37.9229C34.144 37.9229 33.9419 37.7946 33.9419 37.5105V37.056C33.9419 36.7277 34.2208 36.572 34.4997 36.572C34.7786 36.572 35.0575 36.7267 35.0575 37.056V37.9051H34.7944V37.0644C34.7944 36.8992 34.647 36.8224 34.4997 36.8224C34.3523 36.8224 34.205 36.8982 34.205 37.0644V37.4979Z" fill="#231F20"/>
<path d="M34.1471 36.1975H35.0564V36.4342H34.0913L34.146 36.1975H34.1471Z" fill="#231F20"/>
<path d="M36.5025 37.9062H36.2394V37.0361C36.2394 36.8762 36.1268 36.8236 35.9868 36.8236C35.8921 36.8236 35.79 36.8467 35.7006 36.8762L35.7269 37.0729V37.9062H35.4638V37.034L35.4091 36.7426C35.569 36.6668 35.7669 36.5742 35.9879 36.5742C36.2563 36.5742 36.5036 36.69 36.5036 37.0214V37.9072L36.5025 37.9062Z" fill="#231F20"/>
<path d="M37.3171 37.9062V37.0287C37.3171 36.8709 37.2013 36.8236 37.0729 36.8236C36.9972 36.8236 36.9203 36.8394 36.8572 36.8604V36.6163C36.933 36.59 37.0203 36.5742 37.1066 36.5742C37.3455 36.5742 37.5802 36.6899 37.5802 37.0129V37.9062H37.3171Z" fill="#231F20"/>
<path d="M37.9822 37.6083C38.0612 37.6314 38.2264 37.6735 38.3874 37.6735C38.5106 37.6735 38.6158 37.6398 38.6158 37.5188C38.6158 37.3032 37.9486 37.3431 37.9486 36.9276C37.9486 36.6572 38.1612 36.573 38.4243 36.573C38.5737 36.573 38.7295 36.6046 38.8452 36.6414L38.8084 36.8781C38.7274 36.8571 38.5695 36.8234 38.4274 36.8234C38.3116 36.8234 38.2117 36.8465 38.2117 36.9286C38.2117 37.139 38.8789 37.078 38.8789 37.5199C38.8789 37.8198 38.6663 37.925 38.3895 37.925C38.2369 37.925 38.077 37.8966 37.9475 37.8671L37.9812 37.6093L37.9822 37.6083Z" fill="#231F20"/>
<path d="M5.6337 39.9652L5.33691 38.9941H5.39901L5.66527 39.8779L5.93259 38.9941H5.99363L5.91259 39.2572L6.09993 39.8779L6.36724 38.9941H6.42828L6.1315 39.9652H6.06835L5.88207 39.3561L5.69579 39.9652H5.63265H5.6337Z" fill="#231F20"/>
<path d="M7.41853 39.9652V38.9941H7.95317V39.052H7.47957V39.4497H7.89423V39.5076H7.47957V39.9084H7.97211V39.9663H7.41748L7.41853 39.9652Z" fill="#231F20"/>
<path d="M9.06043 39.9074H9.51613V39.9652H8.99939V38.9941H9.06043V39.9074Z" fill="#231F20"/>
<path d="M10.5275 39.9652V38.9941H11.0432V39.052H10.5885V39.4813H10.9842V39.5391H10.5885V39.9663H10.5275V39.9652Z" fill="#231F20"/>
<path d="M11.8809 39.9652L12.2335 38.9941H12.2966L12.6492 39.9652H12.5913L12.4713 39.6359H12.0567L11.9378 39.9652H11.8799H11.8809ZM12.2651 39.0657L12.0788 39.5791H12.4514L12.2651 39.0657Z" fill="#231F20"/>
<path d="M13.6458 39.0139C13.7331 38.9929 13.8152 38.9834 13.8815 38.9834C14.1172 38.9834 14.2235 39.1244 14.2235 39.2654C14.2235 39.3716 14.1646 39.4779 14.0404 39.5168C14.0667 39.5379 14.0867 39.5673 14.1046 39.6084L14.2541 39.964H14.1941L14.0478 39.6262C14.0152 39.5494 13.9836 39.5337 13.9078 39.5337H13.7078V39.964H13.6468V39.0129L13.6458 39.0139ZM13.7068 39.4758H13.9131C14.092 39.4758 14.1604 39.3664 14.1604 39.2654C14.1604 39.1549 14.0751 39.0413 13.8783 39.0413C13.8299 39.0413 13.7678 39.0465 13.7057 39.0602V39.4758H13.7068Z" fill="#231F20"/>
<path d="M15.2718 39.9652V38.9941H15.8064V39.052H15.3328V39.4497H15.7475V39.5076H15.3328V39.9084H15.8254V39.9663H15.2708L15.2718 39.9652Z" fill="#231F20"/>
<path d="M18.3891 39.9652L18.0923 38.9941H18.1533L18.4206 39.8779L18.688 38.9941H18.749L18.668 39.2572L18.8553 39.8779L19.1226 38.9941H19.1837L18.8869 39.9652H18.8237L18.6374 39.3561L18.4512 39.9652H18.388H18.3891Z" fill="#231F20"/>
<path d="M20.0035 39.9652L20.3561 38.9941H20.4192L20.7718 39.9652H20.7139L20.5939 39.6359H20.1793L20.0603 39.9652H20.0024H20.0035ZM20.3876 39.0657L20.2014 39.5791H20.5739L20.3876 39.0657Z" fill="#231F20"/>
<path d="M21.5969 39.0508V38.9929H22.3157V39.0508H21.9874V39.964H21.9263V39.0508H21.598H21.5969Z" fill="#231F20"/>
<path d="M23.8523 39.8946C23.766 39.9535 23.6818 39.9735 23.6029 39.9735C23.3987 39.9735 23.2303 39.863 23.2303 39.5642V39.4338C23.2303 39.1402 23.384 38.9824 23.604 38.9824C23.6755 38.9824 23.7513 38.9972 23.8313 39.0403L23.8187 39.0939C23.745 39.0582 23.6692 39.0403 23.6029 39.0403C23.4324 39.0403 23.2924 39.1592 23.2924 39.4306V39.5674C23.2924 39.8136 23.4345 39.9167 23.6029 39.9167C23.6776 39.9167 23.766 39.8925 23.8387 39.8399L23.8523 39.8946Z" fill="#231F20"/>
<path d="M24.9258 39.4729H25.4394V38.9941H25.5015V39.9652H25.4394V39.5307H24.9258V39.9652H24.8647V38.9941H24.9258V39.4729Z" fill="#231F20"/>
<path d="M27.9263 39.0971V39.964H27.8652V38.9929H27.9389L28.422 39.8725V38.9929H28.483V39.964H28.402L27.9263 39.0971Z" fill="#231F20"/>
<path d="M29.5406 39.9652V38.9941H30.0752V39.052H29.6016V39.4497H30.0163V39.5076H29.6016V39.9084H30.0942V39.9663H29.5396L29.5406 39.9652Z" fill="#231F20"/>
<path d="M31.073 39.0508V38.9929H31.7918V39.0508H31.4634V39.964H31.4024V39.0508H31.0741H31.073Z" fill="#231F20"/>
<path d="M33.0306 39.9652L32.7338 38.9941H32.7948L33.0621 39.8779L33.3294 38.9941H33.3905L33.3094 39.2572L33.4968 39.8779L33.7641 38.9941H33.8251L33.5283 39.9652H33.4652L33.2789 39.3561L33.0926 39.9652H33.0295H33.0306Z" fill="#231F20"/>
<path d="M34.7607 39.5191V39.4402C34.7607 39.1635 34.9039 38.9846 35.1407 38.9846C35.3775 38.9846 35.5206 39.1635 35.5206 39.4402V39.5191C35.5206 39.7958 35.3775 39.9747 35.1407 39.9747C34.9039 39.9747 34.7607 39.7958 34.7607 39.5191ZM34.8218 39.436V39.5233C34.8218 39.7421 34.9344 39.9168 35.1407 39.9168C35.3469 39.9168 35.4596 39.7421 35.4596 39.5233V39.436C35.4596 39.2171 35.3469 39.0425 35.1407 39.0425C34.9344 39.0425 34.8218 39.2171 34.8218 39.436Z" fill="#231F20"/>
<path d="M36.5488 39.0139C36.6362 38.9929 36.7183 38.9834 36.7846 38.9834C37.0203 38.9834 37.1266 39.1244 37.1266 39.2654C37.1266 39.3716 37.0677 39.4779 36.9435 39.5168C36.9698 39.5379 36.9898 39.5673 37.0077 39.6084L37.1571 39.964H37.0971L36.9509 39.6262C36.9182 39.5494 36.8867 39.5337 36.8109 39.5337H36.6109V39.964H36.5499V39.0129L36.5488 39.0139ZM36.6099 39.4758H36.8161C36.9951 39.4758 37.0635 39.3664 37.0635 39.2654C37.0635 39.1549 36.9782 39.0413 36.7814 39.0413C36.733 39.0413 36.6709 39.0465 36.6088 39.0602V39.4758H36.6099Z" fill="#231F20"/>
<path d="M38.4916 39.4729C38.56 39.4865 38.6063 39.5286 38.641 39.6096L38.7904 39.9652H38.7305L38.5842 39.6275C38.5505 39.5486 38.521 39.5244 38.4305 39.5244H38.2379V39.9652H38.1769V38.9941H38.2379V39.4676H38.4284L38.7126 38.9941H38.7799L38.4926 39.4729H38.4916Z" fill="#231F20"/>
<path d="M43.4927 13.2825L33.0063 7.96826L30.0448 13.7833L27.0822 7.96826L22 10.5438L16.9168 7.96826L13.9552 13.7833L10.9937 7.96826L0.506226 13.2825L8.68677 29.3419L13.9552 26.6717L19.2248 29.3419L22 23.8931L24.7753 29.3419L30.0448 26.6717L35.3133 29.3419L43.4927 13.2825Z" fill="#394494"/>
<path d="M8.87512 23.8593L13.9531 26.4317L19.0784 23.8203L13.9573 13.78L8.87512 23.8593Z" fill="#2A3073"/>
<path d="M22.0432 10.771L16.7505 13.4655L22.0053 23.9077L27.3148 13.4655L22.0432 10.771Z" fill="#2A3073"/>
<path d="M30.0458 13.7812L24.9058 23.8573L29.9837 26.4308L35.1164 23.83L30.0458 13.7812Z" fill="#2A3073"/>
<path d="M8.70251 29.3514C9.65917 31.302 11.6651 32.6455 13.9847 32.6455C16.3042 32.6455 18.3102 31.3031 19.2668 29.3524L13.9847 26.6748L8.70251 29.3514Z" fill="#303981"/>
<path d="M18.1437 30.9204C20.44 28.6248 20.44 24.903 18.1437 22.6074C15.8475 20.3119 12.1245 20.3119 9.82827 22.6074C7.53201 24.903 7.53202 28.6248 9.82827 30.9204C12.1245 33.216 15.8475 33.216 18.1437 30.9204Z" fill="#1D1F43"/>
<path d="M35.8649 27.3333C36.1813 24.1023 33.8177 21.2267 30.5857 20.9105C27.3538 20.5943 24.4773 22.9571 24.161 26.1881C23.8447 29.4191 26.2083 32.2947 29.4402 32.6109C32.6722 32.9271 35.5486 30.5643 35.8649 27.3333Z" fill="#1D1F43"/>
<path d="M6.64108 16.7078C9.8612 16.288 12.1312 13.338 11.7113 10.1188C11.2913 6.89968 8.34048 4.63036 5.12035 5.05017C1.90022 5.46998 -0.36978 8.41995 0.0501565 11.6391C0.470093 14.8583 3.42095 17.1276 6.64108 16.7078Z" fill="#1D1F43"/>
<path d="M22.0326 16.7575C25.28 16.7575 27.9126 14.1258 27.9126 10.8794C27.9126 7.63296 25.28 5.00122 22.0326 5.00122C18.7852 5.00122 16.1527 7.63296 16.1527 10.8794C16.1527 14.1258 18.7852 16.7575 22.0326 16.7575Z" fill="#1D1F43"/>
<path d="M38.1191 16.7575C41.3665 16.7575 43.999 14.1258 43.999 10.8794C43.999 7.63296 41.3665 5.00122 38.1191 5.00122C34.8717 5.00122 32.2391 7.63296 32.2391 10.8794C32.2391 14.1258 34.8717 16.7575 38.1191 16.7575Z" fill="#1D1F43"/>
<path d="M8.70459 29.3482C9.6623 31.3009 11.6693 32.6445 13.992 32.6445C16.3147 32.6445 18.3217 31.2999 19.2784 29.3482L13.992 26.6685L8.70459 29.3482Z" fill="#B4C3CD"/>
<path d="M24.7332 29.3482C25.6909 31.3009 27.6979 32.6445 30.0206 32.6445C32.3433 32.6445 34.3503 31.2999 35.3069 29.3482L30.0206 26.6685L24.7332 29.3482Z" fill="#B4C3CD"/>
<path d="M11.1726 13.4656L5.88629 10.7859L0.598877 13.4646C1.55659 15.4173 3.56357 16.7608 5.88629 16.7608C8.209 16.7608 10.216 15.4162 11.1726 13.4646V13.4656Z" fill="#B4C3CD"/>
<path d="M27.3243 13.4656L22.0379 10.7859L16.7505 13.4656C17.7082 15.4183 19.7152 16.7619 22.0379 16.7619C24.3606 16.7619 26.3676 15.4173 27.3243 13.4656Z" fill="#B4C3CD"/>
<path d="M38.1232 10.7859L32.8358 13.4656C33.7935 15.4183 35.8005 16.7619 38.1232 16.7619C40.4459 16.7619 42.4529 15.4173 43.4096 13.4656L38.1232 10.7859Z" fill="#B4C3CD"/>
</g>
<defs>
<clipPath id="clip0_69_429">
<rect width="44" height="34.9744" fill="white" transform="translate(0 5.00024)"/>
</clipPath>
</defs>
</svg>
